SplineFontDB: 3.2
FontName: ParibartanS
FullName: ParibartanS
FamilyName: Paribartan
Weight: Regular
Copyright: Copyright 2024 The Paribartan Project Authors (github.com/mitradranirban/paribartan)
Version: 0.100
ItalicAngle: 0
UnderlinePosition: 0
UnderlineWidth: 0
Ascent: 800
Descent: 200
InvalidEm: 1
UFOAscent: 1200
UFODescent: -400
LayerCount: 2
Layer: 0 0 "Back" 1
Layer: 1 1 "public.default" 0 "glyphs"
StyleMap: 0x0040
FSType: 0
OS2Version: 0
OS2_WeightWidthSlopeOnly: 0
OS2_UseTypoMetrics: 0
CreationTime: 1734514292
ModificationTime: 1734689388
PfmFamily: 16
TTFWeight: 400
TTFWidth: 5
LineGap: 0
VLineGap: 0
Panose: 2 0 5 3 0 0 0 0 0 0
OS2TypoAscent: 1200
OS2TypoAOffset: 0
OS2TypoDescent: -400
OS2TypoDOffset: 0
OS2TypoLinegap: 0
OS2WinAscent: 1160
OS2WinAOffset: 0
OS2WinDescent: 348
OS2WinDOffset: 0
HheadAscent: 1200
HheadAOffset: 0
HheadDescent: -400
HheadDOffset: 0
OS2SubXSize: 650
OS2SubYSize: 700
OS2SubXOff: 0
OS2SubYOff: 140
OS2SupXSize: 650
OS2SupYSize: 700
OS2SupXOff: 0
OS2SupYOff: 480
OS2StrikeYSize: 49
OS2StrikeYPos: 258
OS2Vendor: 'anir'
OS2CodePages: 00000093.00000000
OS2UnicodeRanges: 2003806f.00002002.00000000.00000000
MarkAttachClasses: 1
DEI: 91125
LangName: 1033 "" "" "" "" "" "Version 0.100" "" "" "Dr Anirban Mitra" "Dr Anirban Mitra" "Variable Color Bengali Font" "https://fonts.atipra.in" "https://github.com/mitradranirban" "This Font Software is licensed under the SIL Open Font License, Version 1.1. This license is available with a FAQ at: https://openfontlicense.org+ACIA" "https://openfontlicense.org"
PickledDataWithLists: "(dp0
Vpublic.openTypeHeadModified
p1
V2024/12/18 07:18:57
p2
sVpublic.openTypePostUnderlinePosition
p3
I0
s."
Encoding: UnicodeBmp
UnicodeInterp: none
NameList: AGL For New Fonts
DisplaySize: -128
AntiAlias: 1
FitToEm: 1
WinInfo: 90 10 4
BeginPrivate: 0
EndPrivate
BeginChars: 66908 1830

StartChar: .notdef
Encoding: 65536 -1 0
GlifName: _notdef
Width: 1000
VWidth: 0
Flags: W
LayerCount: 2
Fore
SplineSet
208 799 m 257,0,-1
 668 799 l 257,1,2
 674 799 674 799 678.5 794.5 c 128,-1,3
 683 790 683 790 683 784 c 257,4,-1
 683 20 l 257,5,6
 683 14 683 14 678.5 9.5 c 128,-1,7
 674 5 674 5 668 5 c 257,8,-1
 208 5 l 257,9,10
 202 5 202 5 197.5 9.5 c 128,-1,11
 193 14 193 14 193 20 c 257,12,-1
 193 784 l 257,13,14
 193 790 193 790 197.5 794.5 c 128,-1,15
 202 799 202 799 208 799 c 257,0,-1
258 737 m 257,16,17
 252 737 252 737 247.5 732.5 c 128,-1,18
 243 728 243 728 243 722 c 257,19,-1
 243 86 l 257,20,21
 243 80 243 80 247.5 75.5 c 128,-1,22
 252 71 252 71 258 71 c 257,23,-1
 620 71 l 257,24,25
 626 71 626 71 630.5 75.5 c 128,-1,26
 635 80 635 80 635 86 c 257,27,-1
 635 722 l 257,28,29
 635 728 635 728 630.5 732.5 c 128,-1,30
 626 737 626 737 620 737 c 257,31,-1
 258 737 l 257,16,17
371 626 m 257,32,33
 375 626 375 626 384 626 c 257,34,35
 438 626 438 626 475.5 588.5 c 128,-1,36
 513 551 513 551 513 498 c 257,37,38
 513 462 513 462 495 432 c 128,-1,39
 477 402 477 402 447 385 c 257,40,-1
 447 327 l 257,41,-1
 371 327 l 257,42,-1
 371 369 l 257,43,-1
 371 432 l 257,44,-1
 371 446 l 257,45,46
 377 444 377 444 384 444 c 257,47,48
 406 444 406 444 422 459.5 c 128,-1,49
 438 475 438 475 438 498 c 257,50,51
 438 520 438 520 422 535.5 c 128,-1,52
 406 551 406 551 384 551 c 257,53,54
 377 551 377 551 371 549 c 257,55,-1
 371 626 l 257,32,33
371 211 m 257,56,-1
 371 282 l 257,57,-1
 447 282 l 257,58,-1
 447 211 l 257,59,-1
 371 211 l 257,56,-1
EndSplineSet
EndChar

StartChar: A
Encoding: 65 65 1
GlifName: A_
Width: 752
VWidth: 0
Flags: W
LayerCount: 2
Fore
SplineSet
407 372 m 257,0,-1
 357 540 l 257,1,-1
 297 372 l 257,2,-1
 407 372 l 257,0,-1
550 5 m 257,3,-1
 461 233 l 257,4,-1
 461 232 l 257,5,-1
 261 232 l 257,6,-1
 202 5 l 257,7,-1
 50 5 l 257,8,-1
 266 774 l 257,9,-1
 418 774 l 257,10,-1
 702 5 l 257,11,-1
 550 5 l 257,3,-1
EndSplineSet
EndChar

StartChar: AE
Encoding: 198 198 5
GlifName: A_E_
Width: 1024
VWidth: 0
Flags: W
LayerCount: 2
Fore
SplineSet
865 490 m 257,0,-1
 866 338 l 257,1,-1
 558 338 l 257,2,-1
 558 154 l 257,3,-1
 973 154 l 257,4,-1
 974 2 l 257,5,-1
 407 2 l 257,6,-1
 407 3 l 257,7,-1
 406 3 l 257,8,-1
 406 232 l 257,9,-1
 261 232 l 257,10,-1
 202 5 l 257,11,-1
 50 5 l 257,12,-1
 250 783 l 257,13,-1
 973 783 l 257,14,-1
 974 631 l 257,15,-1
 558 631 l 257,16,-1
 558 490 l 257,17,-1
 865 490 l 257,0,-1
407 372 m 257,18,-1
 341 540 l 257,19,-1
 297 372 l 257,20,-1
 407 372 l 257,18,-1
EndSplineSet
EndChar

StartChar: B
Encoding: 66 66 45
GlifName: B_
Width: 534
VWidth: 0
Flags: W
LayerCount: 2
Fore
SplineSet
202 459 m 257,0,1
 214 456 214 456 226 456 c 257,2,3
 271 456 271 456 302 487 c 128,-1,4
 333 518 333 518 333 562 c 257,5,6
 333 607 333 607 302 638 c 128,-1,7
 271 669 271 669 226 669 c 257,8,9
 214 669 214 669 202 666 c 257,10,-1
 202 459 l 257,0,1
202 141 m 257,11,12
 214 138 214 138 226 138 c 257,13,14
 271 138 271 138 302 169 c 128,-1,15
 333 200 333 200 333 244 c 257,16,17
 333 289 333 289 302 320 c 128,-1,18
 271 351 271 351 226 351 c 257,19,20
 214 351 214 351 202 348 c 257,21,-1
 202 141 l 257,11,12
202 785 m 257,22,23
 208 785 208 785 220 785 c 257,24,25
 327 785 327 785 402.5 709.5 c 128,-1,26
 478 634 478 634 478 527 c 257,27,28
 478 504 478 504 464 482 c 128,-1,29
 450 460 450 460 425.5 434 c 128,-1,30
 401 408 401 408 395 401 c 257,31,32
 397 399 397 399 427.5 367 c 128,-1,33
 458 335 458 335 471 312.5 c 128,-1,34
 484 290 484 290 484 265 c 257,35,36
 484 158 484 158 408.5 83 c 128,-1,37
 333 8 333 8 226 8 c 257,38,39
 210 8 210 8 202 9 c 257,40,-1
 50 9 l 257,41,-1
 50 785 l 257,42,-1
 202 785 l 257,22,23
EndSplineSet
EndChar

StartChar: C
Encoding: 67 67 49
GlifName: C_
Width: 555
VWidth: 0
Flags: W
LayerCount: 2
Fore
SplineSet
432 617 m 257,0,1
 337 617 337 617 270 548.5 c 128,-1,2
 203 480 203 480 203 383 c 257,3,4
 203 285 203 285 270 216.5 c 128,-1,5
 337 148 337 148 432 148 c 257,6,7
 470 148 470 148 505 160 c 257,8,-1
 505 -2 l 257,9,10
 469 -9 469 -9 432 -9 c 257,11,12
 274 -9 274 -9 162 106.5 c 128,-1,13
 50 222 50 222 50 385 c 128,-1,14
 50 548 50 548 162 663 c 128,-1,15
 274 778 274 778 432 778 c 257,16,17
 469 778 469 778 505 771 c 257,18,-1
 505 605 l 257,19,20
 470 617 470 617 432 617 c 257,0,1
EndSplineSet
EndChar

StartChar: D
Encoding: 68 68 73
GlifName: D_
Width: 630
VWidth: 0
Flags: W
LayerCount: 2
Fore
SplineSet
202 148 m 257,0,1
 296 150 296 150 361.5 218.5 c 128,-1,2
 427 287 427 287 427 383 c 257,3,4
 427 479 427 479 361.5 547 c 128,-1,5
 296 615 296 615 202 617 c 257,6,-1
 202 148 l 257,0,1
50 773 m 257,7,8
 65 768 65 768 124 773 c 128,-1,9
 183 778 183 778 198 778 c 257,10,11
 356 778 356 778 468 663 c 128,-1,12
 580 548 580 548 580 385 c 257,13,14
 580 278 580 278 529.5 188 c 128,-1,15
 479 98 479 98 392 45 c 128,-1,16
 305 -8 305 -8 202 -9 c 257,17,-1
 50 -9 l 257,18,-1
 50 773 l 257,7,8
EndSplineSet
EndChar

StartChar: E
Encoding: 69 69 84
GlifName: E_
Width: 668
VWidth: 0
Flags: W
LayerCount: 2
Fore
SplineSet
509 490 m 257,0,-1
 510 338 l 257,1,-1
 202 338 l 257,2,-1
 202 154 l 257,3,-1
 617 154 l 257,4,-1
 618 2 l 257,5,-1
 51 2 l 257,6,-1
 51 3 l 257,7,-1
 50 3 l 257,8,-1
 50 779 l 257,9,-1
 50 783 l 257,10,-1
 617 783 l 257,11,-1
 618 631 l 257,12,-1
 202 631 l 257,13,-1
 202 490 l 257,14,-1
 509 490 l 257,0,-1
EndSplineSet
EndChar

StartChar: Eth
Encoding: 208 208 124
GlifName: E_th
Width: 690
VWidth: 0
Flags: W
LayerCount: 2
Fore
SplineSet
110 773 m 257,0,1
 125 768 125 768 184 773 c 128,-1,2
 243 778 243 778 258 778 c 257,3,4
 416 778 416 778 528 663 c 128,-1,5
 640 548 640 548 640 385 c 257,6,7
 640 278 640 278 589.5 188 c 128,-1,8
 539 98 539 98 452 45 c 128,-1,9
 365 -8 365 -8 262 -9 c 257,10,-1
 110 -9 l 257,11,-1
 110 349 l 257,12,-1
 50 349 l 257,13,-1
 50 501 l 257,14,-1
 110 501 l 257,15,-1
 110 773 l 257,0,1
262 148 m 257,16,17
 356 150 356 150 421.5 218.5 c 128,-1,18
 487 287 487 287 487 383 c 257,19,20
 487 479 487 479 421.5 547 c 128,-1,21
 356 615 356 615 262 617 c 257,22,-1
 262 501 l 257,23,-1
 321 501 l 257,24,-1
 321 349 l 257,25,-1
 262 349 l 257,26,-1
 262 148 l 257,16,17
EndSplineSet
EndChar

StartChar: Euro
Encoding: 8364 8364 128
GlifName: E_uro
Width: 605
VWidth: 0
Flags: W
LayerCount: 2
Fore
SplineSet
65 363 m 257,0,-1
 473 363 l 257,1,2
 479 363 479 363 483.5 358.5 c 128,-1,3
 488 354 488 354 488 348 c 257,4,-1
 488 292 l 257,5,6
 488 286 488 286 483.5 281.5 c 128,-1,7
 479 277 479 277 473 277 c 257,8,-1
 65 277 l 257,9,10
 59 277 59 277 54.5 281.5 c 128,-1,11
 50 286 50 286 50 292 c 257,12,-1
 50 348 l 257,13,14
 50 354 50 354 54.5 358.5 c 128,-1,15
 59 363 59 363 65 363 c 257,0,-1
65 538 m 257,16,-1
 473 538 l 257,17,18
 479 538 479 538 483.5 533.5 c 128,-1,19
 488 529 488 529 488 523 c 257,20,-1
 488 467 l 257,21,22
 488 461 488 461 483.5 456.5 c 128,-1,23
 479 452 479 452 473 452 c 257,24,-1
 65 452 l 257,25,26
 59 452 59 452 54.5 456.5 c 128,-1,27
 50 461 50 461 50 467 c 257,28,-1
 50 523 l 257,29,30
 50 529 50 529 54.5 533.5 c 128,-1,31
 59 538 59 538 65 538 c 257,16,-1
482 617 m 257,32,33
 387 617 387 617 320 548.5 c 128,-1,34
 253 480 253 480 253 383 c 257,35,36
 253 285 253 285 320 216.5 c 128,-1,37
 387 148 387 148 482 148 c 257,38,39
 520 148 520 148 555 160 c 257,40,-1
 555 -2 l 257,41,42
 519 -9 519 -9 482 -9 c 257,43,44
 324 -9 324 -9 212 106.5 c 128,-1,45
 100 222 100 222 100 385 c 128,-1,46
 100 548 100 548 212 663 c 128,-1,47
 324 778 324 778 482 778 c 257,48,49
 519 778 519 778 555 771 c 257,50,-1
 555 605 l 257,51,52
 520 617 520 617 482 617 c 257,32,33
EndSplineSet
EndChar

StartChar: F
Encoding: 70 70 132
GlifName: F_
Width: 668
VWidth: 0
Flags: W
LayerCount: 2
Fore
SplineSet
509 490 m 257,0,-1
 510 338 l 257,1,-1
 202 338 l 257,2,-1
 202 3 l 257,3,-1
 50 3 l 257,4,-1
 50 779 l 257,5,-1
 50 783 l 257,6,-1
 617 783 l 257,7,-1
 618 631 l 257,8,-1
 202 631 l 257,9,-1
 202 490 l 257,10,-1
 509 490 l 257,0,-1
EndSplineSet
EndChar

StartChar: G
Encoding: 71 71 136
GlifName: G_
Width: 651
VWidth: 0
Flags: W
LayerCount: 2
Fore
SplineSet
432 617 m 257,0,1
 337 617 337 617 270 548.5 c 128,-1,2
 203 480 203 480 203 383 c 257,3,4
 203 285 203 285 270 216.5 c 128,-1,5
 337 148 337 148 432 148 c 257,6,7
 441 148 441 148 449 149 c 257,8,-1
 449 318 l 257,9,-1
 601 318 l 257,10,-1
 601 -9 l 257,11,-1
 449 -9 l 257,12,13
 441 -9 441 -9 432 -9 c 257,14,15
 274 -9 274 -9 162 106.5 c 128,-1,16
 50 222 50 222 50 385 c 128,-1,17
 50 548 50 548 162 663 c 128,-1,18
 274 778 274 778 432 778 c 257,19,20
 469 778 469 778 505 771 c 257,21,-1
 505 605 l 257,22,23
 470 617 470 617 432 617 c 257,0,1
EndSplineSet
EndChar

StartChar: H
Encoding: 72 72 152
GlifName: H_
Width: 652
VWidth: 0
Flags: W
LayerCount: 2
Fore
SplineSet
450 779 m 257,0,-1
 602 779 l 257,1,-1
 602 3 l 257,2,-1
 450 3 l 257,3,-1
 450 338 l 257,4,-1
 202 338 l 257,5,-1
 202 3 l 257,6,-1
 50 3 l 257,7,-1
 50 779 l 257,8,-1
 202 779 l 257,9,-1
 202 490 l 257,10,-1
 450 490 l 257,11,-1
 450 779 l 257,0,-1
EndSplineSet
EndChar

StartChar: Hbar
Encoding: 294 294 156
GlifName: H_bar
Width: 747
VWidth: 0
Flags: W
LayerCount: 2
Fore
SplineSet
252 566 m 257,0,-1
 252 490 l 257,1,-1
 500 490 l 257,2,-1
 500 566 l 257,3,-1
 252 566 l 257,0,-1
500 779 m 257,4,-1
 652 779 l 257,5,-1
 652 718 l 257,6,-1
 697 718 l 257,7,-1
 697 566 l 257,8,-1
 652 566 l 257,9,-1
 652 3 l 257,10,-1
 500 3 l 257,11,-1
 500 338 l 257,12,-1
 252 338 l 257,13,-1
 252 3 l 257,14,-1
 100 3 l 257,15,-1
 100 566 l 257,16,-1
 50 566 l 257,17,-1
 50 718 l 257,18,-1
 100 718 l 257,19,-1
 100 779 l 257,20,-1
 252 779 l 257,21,-1
 252 718 l 257,22,-1
 500 718 l 257,23,-1
 500 779 l 257,4,-1
EndSplineSet
EndChar

StartChar: I
Encoding: 73 73 164
GlifName: I_
Width: 252
VWidth: 0
Flags: W
LayerCount: 2
Fore
SplineSet
50 779 m 257,0,-1
 202 779 l 257,1,-1
 202 3 l 257,2,-1
 50 3 l 257,3,-1
 50 779 l 257,0,-1
EndSplineSet
EndChar

StartChar: J
Encoding: 74 74 204
GlifName: J_
Width: 419
VWidth: 0
Flags: W
LayerCount: 2
Fore
SplineSet
50 11 m 257,0,-1
 50 179 l 257,1,2
 81 153 81 153 121 153 c 257,3,4
 170 153 170 153 202 190 c 257,5,-1
 202 766 l 257,6,-1
 369 766 l 257,7,-1
 366 189 l 257,8,9
 342 106 342 106 275 54 c 128,-1,10
 208 2 208 2 121 2 c 257,11,12
 84 2 84 2 50 11 c 257,0,-1
EndSplineSet
EndChar

StartChar: K
Encoding: 75 75 212
GlifName: K_
Width: 753
VWidth: 0
Flags: W
LayerCount: 2
Fore
SplineSet
50 779 m 257,0,-1
 202 779 l 257,1,-1
 202 438 l 257,2,-1
 447 775 l 257,3,-1
 633 773 l 257,4,-1
 372 392 l 257,5,-1
 703 2 l 257,6,-1
 511 3 l 257,7,-1
 259 307 l 257,8,-1
 202 224 l 257,9,-1
 202 3 l 257,10,-1
 50 3 l 257,11,-1
 50 779 l 257,0,-1
EndSplineSet
EndChar

StartChar: L
Encoding: 76 76 216
GlifName: L_
Width: 718
VWidth: 0
Flags: W
LayerCount: 2
Fore
SplineSet
50 779 m 257,0,-1
 202 779 l 257,1,-1
 202 154 l 257,2,-1
 667 154 l 257,3,-1
 668 2 l 257,4,-1
 51 2 l 257,5,-1
 51 3 l 257,6,-1
 50 3 l 257,7,-1
 50 779 l 257,0,-1
EndSplineSet
EndChar

StartChar: Lcaron
Encoding: 317 317 224
GlifName: L_caron
Width: 718
VWidth: 0
Flags: W
LayerCount: 2
Fore
SplineSet
50 779 m 257,0,-1
 202 779 l 257,1,-1
 202 154 l 257,2,-1
 667 154 l 257,3,-1
 668 2 l 257,4,-1
 51 2 l 257,5,-1
 51 3 l 257,6,-1
 50 3 l 257,7,-1
 50 779 l 257,0,-1
252 525 m 257,8,-1
 252 782 l 257,9,-1
 404 782 l 257,10,-1
 359 525 l 257,11,-1
 252 525 l 257,8,-1
EndSplineSet
EndChar

StartChar: Lslash
Encoding: 321 321 232
GlifName: L_slash
Width: 869
VWidth: 0
Flags: W
LayerCount: 2
Fore
SplineSet
50 499 m 261,0,-1
 507 635 l 261,1,-1
 508 483 l 261,2,-1
 50 347 l 5,3,-1
 50 499 l 261,0,-1
201 779 m 257,4,-1
 353 779 l 257,5,-1
 353 154 l 257,6,-1
 818 154 l 257,7,-1
 819 2 l 257,8,-1
 202 2 l 257,9,-1
 202 3 l 257,10,-1
 201 3 l 257,11,-1
 201 779 l 257,4,-1
EndSplineSet
EndChar

StartChar: M
Encoding: 77 77 235
GlifName: M_
Width: 1052
VWidth: 0
Flags: W
LayerCount: 2
Fore
SplineSet
50 773 m 257,0,-1
 202 773 l 257,1,-1
 526 151 l 257,2,-1
 850 773 l 257,3,-1
 1002 773 l 257,4,-1
 1002 3 l 257,5,-1
 850 3 l 257,6,-1
 850 481 l 257,7,-1
 602 5 l 257,8,-1
 450 5 l 257,9,-1
 202 481 l 257,10,-1
 202 3 l 257,11,-1
 50 3 l 257,12,-1
 50 773 l 257,0,-1
EndSplineSet
EndChar

StartChar: N
Encoding: 78 78 239
GlifName: N_
Width: 852
VWidth: 0
Flags: W
LayerCount: 2
Fore
SplineSet
50 779 m 257,0,-1
 202 779 l 257,1,-1
 650 256 l 257,2,-1
 650 779 l 257,3,-1
 802 779 l 257,4,-1
 802 3 l 257,5,-1
 650 3 l 257,6,-1
 202 528 l 257,7,-1
 202 3 l 257,8,-1
 50 3 l 257,9,-1
 50 779 l 257,0,-1
EndSplineSet
EndChar

StartChar: O
Encoding: 79 79 255
GlifName: O_
Width: 864
VWidth: 0
Flags: W
LayerCount: 2
Fore
SplineSet
661 383 m 257,0,1
 661 480 661 480 594 548.5 c 128,-1,2
 527 617 527 617 432 617 c 128,-1,3
 337 617 337 617 270 548.5 c 128,-1,4
 203 480 203 480 203 383 c 257,5,6
 203 285 203 285 270 216.5 c 128,-1,7
 337 148 337 148 432 148 c 128,-1,8
 527 148 527 148 594 216.5 c 128,-1,9
 661 285 661 285 661 383 c 257,0,1
814 385 m 128,-1,11
 814 222 814 222 702 106.5 c 128,-1,12
 590 -9 590 -9 432 -9 c 128,-1,13
 274 -9 274 -9 162 106.5 c 128,-1,14
 50 222 50 222 50 385 c 128,-1,15
 50 548 50 548 162 663 c 128,-1,16
 274 778 274 778 432 778 c 128,-1,17
 590 778 590 778 702 663 c 128,-1,10
 814 548 814 548 814 385 c 128,-1,11
  PathStart: -1
EndSplineSet
EndChar

StartChar: OE
Encoding: 338 338 259
GlifName: O_E_
Width: 1068
VWidth: 0
Flags: W
LayerCount: 2
Fore
SplineSet
432 617 m 257,0,1
 337 617 337 617 270 548.5 c 128,-1,2
 203 480 203 480 203 383 c 257,3,4
 203 285 203 285 270 216.5 c 128,-1,5
 337 148 337 148 432 148 c 257,6,7
 441 148 441 148 450 149 c 257,8,-1
 450 616 l 257,9,10
 441 617 441 617 432 617 c 257,0,1
909 490 m 257,11,-1
 910 338 l 257,12,-1
 602 338 l 257,13,-1
 602 154 l 257,14,-1
 1017 154 l 257,15,-1
 1018 2 l 257,16,-1
 505 2 l 257,17,-1
 505 -2 l 257,18,19
 469 -9 469 -9 432 -9 c 257,20,21
 274 -9 274 -9 162 106.5 c 128,-1,22
 50 222 50 222 50 385 c 128,-1,23
 50 548 50 548 162 663 c 128,-1,24
 274 778 274 778 432 778 c 257,25,26
 441 778 441 778 450 778 c 257,27,-1
 450 779 l 257,28,-1
 450 783 l 257,29,-1
 1017 783 l 257,30,-1
 1018 631 l 257,31,-1
 602 631 l 257,32,-1
 602 490 l 257,33,-1
 909 490 l 257,11,-1
EndSplineSet
EndChar

StartChar: Oslash
Encoding: 216 216 291
GlifName: O_slash
Width: 864
VWidth: 0
Flags: W
LayerCount: 2
Fore
SplineSet
599 543 m 257,0,-1
 375 155 l 257,1,2
 403 148 403 148 432 148 c 257,3,4
 527 148 527 148 594 216.5 c 128,-1,5
 661 285 661 285 661 383 c 257,6,7
 661 476 661 476 599 543 c 257,0,-1
495 608 m 257,8,9
 464 617 464 617 432 617 c 257,10,11
 337 617 337 617 270 548.5 c 128,-1,12
 203 480 203 480 203 383 c 128,-1,13
 203 286 203 286 269 217 c 257,14,-1
 495 608 l 257,8,9
814 385 m 257,15,16
 814 222 814 222 702 106.5 c 128,-1,17
 590 -9 590 -9 432 -9 c 257,18,19
 361 -9 361 -9 295 17 c 257,20,-1
 240 -78 l 257,21,-1
 134 -17 l 257,22,-1
 190 80 l 257,23,24
 125 135 125 135 87.5 214.5 c 128,-1,25
 50 294 50 294 50 385 c 257,26,27
 50 548 50 548 162 663 c 128,-1,28
 274 778 274 778 432 778 c 257,29,30
 507 778 507 778 576 749 c 257,31,-1
 619 823 l 257,32,-1
 725 762 l 257,33,-1
 680 684 l 257,34,35
 743 629 743 629 778.5 551 c 128,-1,36
 814 473 814 473 814 385 c 257,15,16
EndSplineSet
EndChar

StartChar: P
Encoding: 80 80 299
GlifName: P_
Width: 534
VWidth: 0
Flags: W
LayerCount: 2
Fore
SplineSet
202 631 m 257,0,-1
 202 424 l 257,1,2
 214 421 214 421 226 421 c 257,3,4
 271 421 271 421 302 452 c 128,-1,5
 333 483 333 483 333 528 c 257,6,7
 333 572 333 572 302 603 c 128,-1,8
 271 634 271 634 226 634 c 257,9,10
 214 634 214 634 202 631 c 257,0,-1
202 8 m 257,11,-1
 50 8 l 257,12,-1
 50 784 l 257,13,-1
 202 784 l 257,14,15
 210 785 210 785 226 785 c 257,16,17
 333 785 333 785 408.5 710 c 128,-1,18
 484 635 484 635 484 528 c 128,-1,19
 484 421 484 421 408.5 345.5 c 128,-1,20
 333 270 333 270 226 270 c 257,21,22
 210 270 210 270 202 271 c 257,23,-1
 202 8 l 257,11,-1
EndSplineSet
EndChar

StartChar: Q
Encoding: 81 81 303
GlifName: Q_
Width: 872
VWidth: 0
Flags: W
LayerCount: 2
Fore
SplineSet
814 385 m 257,0,1
 814 298 814 298 780 221.5 c 128,-1,2
 746 145 746 145 685 90 c 257,3,-1
 822 -47 l 257,4,-1
 684 -186 l 257,5,-1
 501 -3 l 257,6,7
 467 -9 467 -9 432 -9 c 257,8,9
 274 -9 274 -9 162 106.5 c 128,-1,10
 50 222 50 222 50 385 c 128,-1,11
 50 548 50 548 162 663 c 128,-1,12
 274 778 274 778 432 778 c 128,-1,13
 590 778 590 778 702 663 c 128,-1,14
 814 548 814 548 814 385 c 257,0,1
661 383 m 257,15,16
 661 480 661 480 594 548.5 c 128,-1,17
 527 617 527 617 432 617 c 128,-1,18
 337 617 337 617 270 548.5 c 128,-1,19
 203 480 203 480 203 383 c 257,20,21
 203 285 203 285 270 216.5 c 128,-1,22
 337 148 337 148 432 148 c 128,-1,23
 527 148 527 148 594 216.5 c 128,-1,24
 661 285 661 285 661 383 c 257,15,16
EndSplineSet
EndChar

StartChar: R
Encoding: 82 82 307
GlifName: R_
Width: 562
VWidth: 0
Flags: W
LayerCount: 2
Fore
SplineSet
202 8 m 257,0,-1
 50 8 l 257,1,-1
 50 784 l 257,2,-1
 202 784 l 257,3,4
 210 785 210 785 226 785 c 257,5,6
 333 785 333 785 408.5 710 c 128,-1,7
 484 635 484 635 484 528 c 257,8,9
 484 445 484 445 436.5 378.5 c 128,-1,10
 389 312 389 312 313 285 c 257,11,-1
 512 2 l 257,12,-1
 372 2 l 257,13,-1
 207 271 l 257,14,15
 204 271 204 271 202 271 c 257,16,-1
 202 8 l 257,0,-1
202 631 m 257,17,-1
 202 424 l 257,18,19
 214 421 214 421 226 421 c 257,20,21
 271 421 271 421 302 452 c 128,-1,22
 333 483 333 483 333 528 c 257,23,24
 333 572 333 572 302 603 c 128,-1,25
 271 634 271 634 226 634 c 257,26,27
 214 634 214 634 202 631 c 257,17,-1
EndSplineSet
EndChar

StartChar: S
Encoding: 83 83 319
GlifName: S_
Width: 519
VWidth: 0
Flags: W
LayerCount: 2
Fore
SplineSet
50 62 m 257,0,-1
 125 187 l 257,1,2
 137 177 137 177 147 172 c 257,3,4
 185 150 185 150 227 160.5 c 128,-1,5
 269 171 269 171 292 207 c 257,6,7
 314 246 314 246 289.5 279.5 c 128,-1,8
 265 313 265 313 222 320 c 257,9,10
 155 356 155 356 114.5 403 c 128,-1,11
 74 450 74 450 63.5 512.5 c 128,-1,12
 53 575 53 575 96 644 c 257,13,14
 148 731 148 731 251 756.5 c 128,-1,15
 354 782 354 782 448 732 c 257,16,17
 451 729 451 729 458.5 724.5 c 128,-1,18
 466 720 466 720 469 717 c 257,19,-1
 394 592 l 257,20,21
 382 602 382 602 372 607 c 257,22,23
 334 628 334 628 291.5 617.5 c 128,-1,24
 249 607 249 607 227 570 c 257,25,26
 202 529 202 529 222.5 480 c 128,-1,27
 243 431 243 431 291 423 c 257,28,29
 340 397 340 397 373.5 370.5 c 128,-1,30
 407 344 407 344 431.5 308.5 c 128,-1,31
 456 273 456 273 454.5 229 c 128,-1,32
 453 185 453 185 422 135 c 257,33,34
 370 47 370 47 267.5 21.5 c 128,-1,35
 165 -4 165 -4 71 47 c 257,36,37
 68 50 68 50 60.5 54.5 c 128,-1,38
 53 59 53 59 50 62 c 257,0,-1
EndSplineSet
EndChar

StartChar: T
Encoding: 84 84 339
GlifName: T_
Width: 676
VWidth: 0
Flags: W
LayerCount: 2
Fore
SplineSet
50 619 m 257,0,-1
 50 771 l 257,1,-1
 626 771 l 257,2,-1
 626 619 l 257,3,-1
 414 619 l 257,4,-1
 414 3 l 257,5,-1
 262 3 l 257,6,-1
 262 619 l 257,7,-1
 50 619 l 257,0,-1
EndSplineSet
EndChar

StartChar: Thorn
Encoding: 222 222 347
GlifName: T_horn
Width: 534
VWidth: 0
Flags: W
LayerCount: 2
Fore
SplineSet
202 566 m 257,0,-1
 202 359 l 257,1,2
 214 356 214 356 226 356 c 257,3,4
 271 356 271 356 302 387 c 128,-1,5
 333 418 333 418 333 463 c 257,6,7
 333 507 333 507 302 538 c 128,-1,8
 271 569 271 569 226 569 c 257,9,10
 214 569 214 569 202 566 c 257,0,-1
202 8 m 257,11,-1
 50 8 l 257,12,-1
 50 908 l 257,13,-1
 197 908 l 257,14,-1
 202 719 l 257,15,16
 210 720 210 720 226 720 c 257,17,18
 333 720 333 720 408.5 645 c 128,-1,19
 484 570 484 570 484 463 c 128,-1,20
 484 356 484 356 408.5 280.5 c 128,-1,21
 333 205 333 205 226 205 c 257,22,23
 210 205 210 205 202 206 c 257,24,-1
 202 8 l 257,11,-1
EndSplineSet
EndChar

StartChar: U
Encoding: 85 85 351
GlifName: U_
Width: 669
VWidth: 0
Flags: W
LayerCount: 2
Fore
SplineSet
616 189 m 257,0,1
 600 131 600 131 555.5 89.5 c 128,-1,2
 511 48 511 48 455 28.5 c 128,-1,3
 399 9 399 9 335 8.5 c 128,-1,4
 271 8 271 8 214.5 27 c 128,-1,5
 158 46 158 46 114 88 c 128,-1,6
 70 130 70 130 53 189 c 257,7,-1
 50 766 l 257,8,-1
 217 766 l 257,9,-1
 217 190 l 257,10,11
 246 157 246 157 335 156.5 c 128,-1,12
 424 156 424 156 452 190 c 257,13,-1
 452 766 l 257,14,-1
 619 766 l 257,15,-1
 616 189 l 257,0,1
EndSplineSet
EndChar

StartChar: V
Encoding: 86 86 395
GlifName: V_
Width: 652
VWidth: 0
Flags: W
LayerCount: 2
Fore
SplineSet
50 774 m 257,0,-1
 202 774 l 257,1,-1
 326 297 l 257,2,-1
 450 774 l 257,3,-1
 602 774 l 257,4,-1
 402 5 l 257,5,-1
 250 5 l 257,6,-1
 50 774 l 257,0,-1
EndSplineSet
EndChar

StartChar: W
Encoding: 87 87 399
GlifName: W_
Width: 1053
VWidth: 0
Flags: W
LayerCount: 2
Fore
SplineSet
50 774 m 257,0,-1
 202 774 l 257,1,-1
 326 297 l 257,2,-1
 450 774 l 257,3,-1
 451 774 l 257,4,-1
 602 774 l 257,5,-1
 603 774 l 257,6,-1
 727 297 l 257,7,-1
 851 774 l 257,8,-1
 1003 774 l 257,9,-1
 803 5 l 257,10,-1
 651 5 l 257,11,-1
 526 484 l 257,12,-1
 402 5 l 257,13,-1
 250 5 l 257,14,-1
 50 774 l 257,0,-1
EndSplineSet
EndChar

StartChar: X
Encoding: 88 88 419
GlifName: X_
Width: 724
VWidth: 0
Flags: W
LayerCount: 2
Fore
SplineSet
50 775 m 257,0,-1
 236 773 l 257,1,-1
 366 546 l 257,2,-1
 498 774 l 257,3,-1
 673 773 l 257,4,-1
 453 393 l 257,5,-1
 674 5 l 257,6,-1
 499 3 l 257,7,-1
 363 238 l 257,8,-1
 229 7 l 257,9,-1
 51 4 l 257,10,-1
 274 389 l 257,11,-1
 50 775 l 257,0,-1
EndSplineSet
EndChar

StartChar: Y
Encoding: 89 89 423
GlifName: Y_
Width: 652
VWidth: 0
Flags: W
LayerCount: 2
Fore
SplineSet
249 456 m 257,0,-1
 50 770 l 257,1,-1
 202 770 l 257,2,-1
 326 599 l 257,3,-1
 450 770 l 257,4,-1
 602 770 l 257,5,-1
 402 455 l 257,6,-1
 401 455 l 257,7,-1
 401 6 l 257,8,-1
 249 6 l 257,9,-1
 249 456 l 257,0,-1
EndSplineSet
EndChar

StartChar: Z
Encoding: 90 90 443
GlifName: Z_
Width: 783
VWidth: 0
Flags: W
LayerCount: 2
Fore
SplineSet
50 15 m 257,0,-1
 50 167 l 257,1,-1
 480 615 l 257,2,-1
 50 615 l 257,3,-1
 50 767 l 257,4,-1
 733 767 l 257,5,-1
 733 615 l 257,6,-1
 301 167 l 257,7,-1
 733 167 l 257,8,-1
 733 15 l 257,9,-1
 50 15 l 257,0,-1
EndSplineSet
EndChar

StartChar: a
Encoding: 97 97 459
GlifName: a
Width: 534
VWidth: 0
Flags: W
LayerCount: 2
Fore
SplineSet
332 374 m 257,0,1
 320 377 320 377 308 377 c 257,2,3
 263 377 263 377 232 346 c 128,-1,4
 201 315 201 315 201 271 c 257,5,6
 201 226 201 226 232 195 c 128,-1,7
 263 164 263 164 308 164 c 257,8,9
 320 164 320 164 332 167 c 257,10,-1
 332 374 l 257,0,1
332 6 m 257,11,-1
 332 14 l 257,12,13
 324 13 324 13 308 13 c 257,14,15
 201 13 201 13 125.5 88.5 c 128,-1,16
 50 164 50 164 50 271 c 257,17,18
 50 377 50 377 125 448.5 c 128,-1,19
 200 520 200 520 308 520 c 257,20,21
 324 520 324 520 332 519 c 257,22,-1
 484 519 l 257,23,-1
 484 6 l 257,24,-1
 332 6 l 257,11,-1
EndSplineSet
EndChar

StartChar: acutecomb
Encoding: 769 769 479
GlifName: acutecomb
Width: 0
VWidth: 0
Flags: W
LayerCount: 2
Fore
SplineSet
-37 521 m 257,0,-1
 -145 628 l 257,1,-1
 37 810 l 257,2,-1
 145 703 l 257,3,-1
 -37 521 l 257,0,-1
EndSplineSet
EndChar

StartChar: ae
Encoding: 230 230 487
GlifName: ae
Width: 905
VWidth: 0
Flags: W
LayerCount: 2
Fore
SplineSet
854 265 m 257,0,1
 854 255 854 255 854.5 237.5 c 128,-1,2
 855 220 855 220 855 213 c 257,3,-1
 508 210 l 257,4,5
 539 159 539 159 596 159 c 257,6,7
 630 159 630 159 733.5 161.5 c 128,-1,8
 837 164 837 164 845 167 c 257,9,-1
 845 11 l 257,10,11
 826 8 826 8 596 8 c 257,12,13
 549 8 549 8 505 24 c 257,14,-1
 332 6 l 257,15,-1
 332 14 l 257,16,17
 324 13 324 13 308 13 c 257,18,19
 201 13 201 13 125.5 88.5 c 128,-1,20
 50 164 50 164 50 271 c 257,21,22
 50 377 50 377 125 448.5 c 128,-1,23
 200 520 200 520 308 520 c 257,24,25
 324 520 324 520 332 519 c 257,26,-1
 505 519 l 257,27,-1
 596 523 l 257,28,29
 703 523 703 523 778.5 447.5 c 128,-1,30
 854 372 854 372 854 265 c 257,0,1
332 374 m 257,31,32
 320 377 320 377 308 377 c 257,33,34
 263 377 263 377 232 346 c 128,-1,35
 201 315 201 315 201 271 c 257,36,37
 201 226 201 226 232 195 c 128,-1,38
 263 164 263 164 308 164 c 257,39,40
 320 164 320 164 332 167 c 257,41,-1
 332 374 l 257,31,32
503 302 m 257,42,-1
 695 299 l 257,43,44
 691 303 691 303 675 322 c 128,-1,45
 659 341 659 341 650 350.5 c 128,-1,46
 641 360 641 360 625.5 370 c 128,-1,47
 610 380 610 380 596 380 c 257,48,49
 578 380 578 380 562.5 368 c 128,-1,50
 547 356 547 356 526.5 330.5 c 128,-1,51
 506 305 506 305 503 302 c 257,42,-1
EndSplineSet
EndChar

StartChar: ampersand
Encoding: 38 38 499
GlifName: ampersand
Width: 650
VWidth: 0
Flags: W
LayerCount: 2
Fore
SplineSet
322.666992188 163 m 257,0,-1
 209.666992188 277 l 257,1,2
 208.666992188 271 208.666992188 271 208.666992188 265 c 257,3,4
 208.666992188 221 208.666992188 221 239.666992188 190 c 128,-1,5
 270.666992188 159 270.666992188 159 315.666992188 159 c 257,6,7
 316.666992188 159 316.666992188 159 322.666992188 163 c 257,0,-1
389.666992188 815 m 257,8,-1
 386.666992188 696 l 257,9,10
 368.666992188 695 368.666992188 695 304.166992188 660 c 128,-1,11
 239.666992188 625 239.666992188 625 224.666992188 610 c 257,12,13
 190.666992188 576 190.666992188 576 193.666992188 526 c 257,14,-1
 216.666992188 503 l 257,15,16
 263.666992188 523 263.666992188 523 315.666992188 523 c 257,17,18
 328.666992188 523 328.666992188 523 341.666992188 522 c 257,19,-1
 341.666992188 378 l 257,20,-1
 452.666992188 267 l 257,21,22
 565.666992188 359 565.666992188 359 569.666992188 360 c 257,23,-1
 569.666992188 207 l 257,24,25
 566.666992188 207 566.666992188 207 536.666992188 183 c 257,26,-1
 600.666992188 119 l 257,27,-1
 482.666992188 1 l 257,28,-1
 406.666992188 78 l 257,29,30
 319.666992188 8 319.666992188 8 315.666992188 8 c 257,31,32
 208.666992188 8 208.666992188 8 133.166992188 83 c 128,-1,33
 57.6669921875 158 57.6669921875 158 57.6669921875 265 c 257,34,35
 57.6669921875 335 57.6669921875 335 92.6669921875 395 c 257,36,-1
 76.6669921875 411 l 257,37,38
 56.6669921875 447 56.6669921875 447 51.6669921875 485 c 128,-1,39
 46.6669921875 523 46.6669921875 523 56.6669921875 563.5 c 128,-1,40
 66.6669921875 604 66.6669921875 604 80.1669921875 638 c 128,-1,41
 93.6669921875 672 93.6669921875 672 117.666992188 717 c 257,42,43
 130.666992188 741 130.666992188 741 191.166992188 769 c 128,-1,44
 251.666992188 797 251.666992188 797 312.666992188 811 c 128,-1,45
 373.666992188 825 373.666992188 825 389.666992188 815 c 257,8,-1
EndSplineSet
EndChar

StartChar: asciicircum
Encoding: 94 94 511
GlifName: asciicircum
Width: 502
VWidth: 0
Flags: W
LayerCount: 2
Fore
SplineSet
50 288 m 257,0,-1
 193 622 l 257,1,-1
 194 622 l 257,2,-1
 345 622 l 257,3,-1
 346 622 l 257,4,-1
 452 288 l 257,5,-1
 300 288 l 257,6,-1
 258 502 l 257,7,-1
 202 288 l 257,8,-1
 50 288 l 257,0,-1
EndSplineSet
EndChar

StartChar: asciitilde
Encoding: 126 126 515
GlifName: asciitilde
Width: 599
VWidth: 0
Flags: W
LayerCount: 2
Fore
SplineSet
549 582 m 257,0,-1
 549 430 l 257,1,2
 548 426 548 426 532.5 408 c 128,-1,3
 517 390 517 390 485 369.5 c 128,-1,4
 453 349 453 349 421 349 c 257,5,-1
 321 349 l 257,6,7
 289 349 289 349 244.5 377 c 128,-1,8
 200 405 200 405 168 405 c 257,9,10
 145 405 145 405 115.5 391 c 128,-1,11
 86 377 86 377 68 363 c 257,12,-1
 50 349 l 257,13,-1
 50 501 l 257,14,15
 114 557 114 557 164 557 c 257,16,17
 197 557 197 557 244 529.5 c 128,-1,18
 291 502 291 502 324 502 c 257,19,20
 369 502 369 502 413 502 c 257,21,22
 444 502 444 502 478 522 c 128,-1,23
 512 542 512 542 530 562 c 257,24,-1
 549 582 l 257,0,-1
EndSplineSet
EndChar

StartChar: asterisk
Encoding: 42 42 519
GlifName: asterisk
Width: 644
VWidth: 0
Flags: W
LayerCount: 2
Fore
SplineSet
594 501 m 257,0,-1
 594 349 l 257,1,-1
 505 349 l 257,2,-1
 568 286 l 257,3,-1
 461 179 l 257,4,-1
 398 242 l 257,5,-1
 398 154 l 257,6,-1
 246 154 l 257,7,-1
 246 242 l 257,8,-1
 183 179 l 257,9,-1
 76 286 l 257,10,-1
 139 349 l 257,11,-1
 50 349 l 257,12,-1
 50 501 l 257,13,-1
 139 501 l 257,14,-1
 76 564 l 257,15,-1
 183 671 l 257,16,-1
 246 608 l 257,17,-1
 246 697 l 257,18,-1
 398 697 l 257,19,-1
 398 608 l 257,20,-1
 461 671 l 257,21,-1
 568 564 l 257,22,-1
 505 501 l 257,23,-1
 594 501 l 257,0,-1
EndSplineSet
EndChar

StartChar: at
Encoding: 64 64 523
GlifName: at
Width: 876
VWidth: 0
Flags: W
LayerCount: 2
Fore
SplineSet
567.5546875 241 m 257,0,-1
 567.5546875 241 l 257,0,-1
530.5546875 171 m 257,1,-1
 530.5546875 171 l 257,1,-1
493.5546875 233 m 257,2,-1
 479.5546875 244 l 257,3,4
 425.5546875 244 425.5546875 244 387.5546875 281.5 c 128,-1,5
 349.5546875 319 349.5546875 319 349.5546875 373 c 257,6,7
 349.5546875 426 349.5546875 426 387.5546875 461.5 c 128,-1,8
 425.5546875 497 425.5546875 497 479.5546875 497 c 257,9,-1
 491.5546875 497 l 257,10,-1
 567.5546875 497 l 257,11,-1
 574.5546875 323 l 257,12,13
 576.5546875 311 576.5546875 311 590.0546875 297 c 128,-1,14
 603.5546875 283 603.5546875 283 620.0546875 275.5 c 128,-1,15
 636.5546875 268 636.5546875 268 651.0546875 281 c 128,-1,16
 665.5546875 294 665.5546875 294 668.5546875 331 c 257,17,18
 668.5546875 332 668.5546875 332 666.5546875 339 c 128,-1,19
 664.5546875 346 664.5546875 346 664.5546875 347 c 257,20,21
 673.5546875 401 673.5546875 401 657.5546875 453.5 c 128,-1,22
 641.5546875 506 641.5546875 506 601.5546875 546 c 257,23,24
 533.5546875 613 533.5546875 613 438.0546875 611.5 c 128,-1,25
 342.5546875 610 342.5546875 610 274.5546875 542 c 257,26,27
 205.5546875 473 205.5546875 473 204.5546875 377.5 c 128,-1,28
 203.5546875 282 203.5546875 282 270.5546875 214 c 257,29,30
 322.5546875 162 322.5546875 162 394.5546875 151 c 128,-1,31
 466.5546875 140 466.5546875 140 530.5546875 171 c 257,32,33
 541.5546875 176 541.5546875 176 569.5546875 148 c 128,-1,34
 597.5546875 120 597.5546875 120 620.5546875 89 c 257,35,-1
 643.5546875 59 l 257,36,37
 530.5546875 -17 530.5546875 -17 393.5546875 -5.5 c 128,-1,38
 256.5546875 6 256.5546875 6 159.5546875 103 c 257,39,40
 47.5546875 215 47.5546875 215 50.0546875 376 c 128,-1,41
 52.5546875 537 52.5546875 537 167.5546875 652 c 128,-1,42
 282.5546875 767 282.5546875 767 443.0546875 769.5 c 128,-1,43
 603.5546875 772 603.5546875 772 715.5546875 660 c 257,44,45
 799.5546875 576 799.5546875 576 820.5546875 453 c 128,-1,46
 841.5546875 330 841.5546875 330 793.5546875 225 c 257,47,48
 771.5546875 212 771.5546875 212 749.5546875 204 c 128,-1,49
 727.5546875 196 727.5546875 196 703.0546875 194.5 c 128,-1,50
 678.5546875 193 678.5546875 193 661.5546875 192.5 c 128,-1,51
 644.5546875 192 644.5546875 192 617.5546875 198.5 c 128,-1,52
 590.5546875 205 590.5546875 205 578.0546875 208 c 128,-1,53
 565.5546875 211 565.5546875 211 534.0546875 220.5 c 128,-1,54
 502.5546875 230 502.5546875 230 493.5546875 233 c 257,2,-1
491.5546875 425 m 257,55,56
 487.5546875 426 487.5546875 426 479.5546875 426 c 257,57,58
 456.5546875 426 456.5546875 426 441.0546875 410.5 c 128,-1,59
 425.5546875 395 425.5546875 395 425.5546875 373 c 128,-1,60
 425.5546875 351 425.5546875 351 441.0546875 335 c 128,-1,61
 456.5546875 319 456.5546875 319 479.5546875 319 c 257,62,63
 483.5546875 319 483.5546875 319 491.5546875 321 c 257,64,-1
 491.5546875 425 l 257,55,56
EndSplineSet
EndChar

StartChar: b
Encoding: 98 98 531
GlifName: b
Width: 534
VWidth: 0
Flags: W
LayerCount: 2
Fore
SplineSet
202 162 m 257,0,1
 214 159 214 159 226 159 c 257,2,3
 271 159 271 159 302 190 c 128,-1,4
 333 221 333 221 333 265 c 257,5,6
 333 310 333 310 302 341 c 128,-1,7
 271 372 271 372 226 372 c 257,8,9
 214 372 214 372 202 369 c 257,10,-1
 202 162 l 257,0,1
202 785 m 257,11,-1
 202 522 l 257,12,13
 210 523 210 523 226 523 c 257,14,15
 333 523 333 523 408.5 447.5 c 128,-1,16
 484 372 484 372 484 265 c 128,-1,17
 484 158 484 158 408.5 83 c 128,-1,18
 333 8 333 8 226 8 c 257,19,20
 210 8 210 8 202 9 c 257,21,-1
 50 9 l 257,22,-1
 50 785 l 257,23,-1
 202 785 l 257,11,-1
EndSplineSet
EndChar

StartChar: backslash
Encoding: 92 92 535
GlifName: backslash
Width: 691
VWidth: 0
Flags: W
LayerCount: 2
Fore
SplineSet
156 823 m 257,0,-1
 641 -17 l 257,1,-1
 535 -78 l 257,2,-1
 50 762 l 257,3,-1
 156 823 l 257,0,-1
EndSplineSet
EndChar

StartChar: backslash.0
Encoding: 65937 -1 536
GlifName: backslash.0
Width: 691
VWidth: 0
Flags: W
LayerCount: 2
Fore
SplineSet
156 833 m 257,0,-1
 50 772 l 257,1,-1
 535 -68 l 257,2,-1
 641 -7 l 257,3,-1
 156 833 l 257,0,-1
EndSplineSet
EndChar

StartChar: bar
Encoding: 124 124 539
GlifName: bar
Width: 222
VWidth: 0
Flags: W
LayerCount: 2
Fore
SplineSet
50 876 m 257,0,-1
 172 876 l 257,1,-1
 172 -94 l 257,2,-1
 50 -94 l 257,3,-1
 50 876 l 257,0,-1
EndSplineSet
EndChar

StartChar: braceleft
Encoding: 123 123 543
GlifName: braceleft
Width: 372
VWidth: 0
Flags: W
LayerCount: 2
Fore
SplineSet
322 -80 m 257,0,1
 307 -87 307 -87 285 -87 c 257,2,3
 241 -87 241 -87 206.5 -45 c 128,-1,4
 172 -3 172 -3 160 63 c 257,5,-1
 159 233 l 257,6,-1
 50 363 l 257,7,-1
 159 490 l 257,8,-1
 160 660 l 257,9,10
 172 726 172 726 206.5 768 c 128,-1,11
 241 810 241 810 285 810 c 257,12,13
 307 810 307 810 322 803 c 257,14,-1
 322 668 l 257,15,16
 306 689 306 689 285 689 c 257,17,18
 261 689 261 689 244 659 c 257,19,-1
 245 475 l 257,20,-1
 163 374 l 257,21,-1
 244 233 l 257,22,-1
 244 63 l 257,23,24
 260 34 260 34 285 34 c 257,25,26
 306 34 306 34 322 55 c 257,27,-1
 322 -80 l 257,0,1
EndSplineSet
EndChar

StartChar: braceright
Encoding: 125 125 547
GlifName: braceright
Width: 372
VWidth: 0
Flags: W
LayerCount: 2
Fore
SplineSet
50 -80 m 257,0,-1
 50 55 l 257,1,2
 66 34 66 34 87 34 c 257,3,4
 112 34 112 34 128 63 c 257,5,-1
 128 233 l 257,6,-1
 209 374 l 257,7,-1
 127 475 l 257,8,-1
 128 659 l 257,9,10
 111 689 111 689 87 689 c 257,11,12
 66 689 66 689 50 668 c 257,13,-1
 50 803 l 257,14,15
 65 810 65 810 87 810 c 257,16,17
 131 810 131 810 165.5 768 c 128,-1,18
 200 726 200 726 212 660 c 257,19,-1
 213 490 l 257,20,-1
 322 363 l 257,21,-1
 213 233 l 257,22,-1
 212 63 l 257,23,24
 200 -3 200 -3 165.5 -45 c 128,-1,25
 131 -87 131 -87 87 -87 c 257,26,27
 65 -87 65 -87 50 -80 c 257,0,-1
EndSplineSet
EndChar

StartChar: bracketleft
Encoding: 91 91 551
GlifName: bracketleft
Width: 362
VWidth: 0
Flags: W
LayerCount: 2
Fore
SplineSet
51 -75 m 257,0,-1
 50 -75 l 257,1,-1
 50 -74 l 257,2,-1
 50 778 l 257,3,-1
 50 779 l 257,4,-1
 51 779 l 257,5,-1
 312 779 l 257,6,-1
 311 694 l 257,7,-1
 144 694 l 257,8,-1
 144 10 l 257,9,-1
 311 10 l 257,10,-1
 312 -75 l 257,11,-1
 51 -75 l 257,0,-1
EndSplineSet
EndChar

StartChar: bracketright
Encoding: 93 93 555
GlifName: bracketright
Width: 362
VWidth: 0
Flags: W
LayerCount: 2
Fore
SplineSet
311 -76 m 257,0,-1
 50 -76 l 257,1,-1
 51 9 l 257,2,-1
 218 9 l 257,3,-1
 218 694 l 257,4,-1
 51 694 l 257,5,-1
 50 779 l 257,6,-1
 311 779 l 257,7,-1
 312 779 l 257,8,-1
 312 778 l 257,9,-1
 312 -75 l 257,10,-1
 312 -76 l 257,11,-1
 311 -76 l 257,0,-1
EndSplineSet
EndChar

StartChar: brokenbar
Encoding: 166 166 563
GlifName: brokenbar
Width: 252
VWidth: 0
Flags: W
LayerCount: 2
Fore
SplineSet
202 838 m 257,0,-1
 202 464 l 257,1,-1
 50 464 l 257,2,-1
 50 838 l 257,3,-1
 202 838 l 257,0,-1
202 375 m 257,4,-1
 202 -25 l 257,5,-1
 50 -25 l 257,6,-1
 50 375 l 257,7,-1
 202 375 l 257,4,-1
EndSplineSet
EndChar

StartChar: c
Encoding: 99 99 567
GlifName: c
Width: 384
VWidth: 0
Flags: W
LayerCount: 2
Fore
SplineSet
334 9 m 257,0,1
 321 8 321 8 308 8 c 257,2,3
 201 8 201 8 125.5 83 c 128,-1,4
 50 158 50 158 50 265 c 128,-1,5
 50 372 50 372 125.5 447.5 c 128,-1,6
 201 523 201 523 308 523 c 257,7,8
 321 523 321 523 334 522 c 257,9,-1
 334 369 l 257,10,11
 321 372 321 372 308 372 c 257,12,13
 263 372 263 372 232 341 c 128,-1,14
 201 310 201 310 201 265 c 257,15,16
 201 221 201 221 232 190 c 128,-1,17
 263 159 263 159 308 159 c 257,18,19
 321 159 321 159 334 162 c 257,20,-1
 334 9 l 257,0,1
EndSplineSet
EndChar

StartChar: cent
Encoding: 162 162 599
GlifName: cent
Width: 384
VWidth: 0
Flags: W
LayerCount: 2
Fore
SplineSet
334 9 m 257,0,1
 321 8 321 8 308 8 c 257,2,3
 296 8 296 8 285 9 c 257,4,-1
 285 -94 l 257,5,-1
 238 -94 l 257,6,-1
 238 18 l 257,7,8
 156 40 156 40 103 108.5 c 128,-1,9
 50 177 50 177 50 265 c 257,10,11
 50 353 50 353 103 421.5 c 128,-1,12
 156 490 156 490 238 513 c 257,13,-1
 238 705 l 257,14,-1
 285 705 l 257,15,-1
 285 522 l 257,16,17
 296 523 296 523 308 523 c 257,18,19
 321 523 321 523 334 522 c 257,20,-1
 334 369 l 257,21,22
 321 372 321 372 308 372 c 257,23,24
 296 372 296 372 285 370 c 257,25,-1
 285 161 l 257,26,27
 296 159 296 159 308 159 c 257,28,29
 321 159 321 159 334 162 c 257,30,-1
 334 9 l 257,0,1
238 347 m 257,31,32
 201 315 201 315 201 265 c 257,33,34
 201 216 201 216 238 184 c 257,35,-1
 238 347 l 257,31,32
EndSplineSet
EndChar

StartChar: colon
Encoding: 58 58 607
GlifName: colon
Width: 252
VWidth: 0
Flags: W
LayerCount: 2
Fore
SplineSet
50 3 m 257,0,-1
 50 145 l 257,1,-1
 202 145 l 257,2,-1
 202 3 l 257,3,-1
 50 3 l 257,0,-1
50 403 m 257,4,-1
 50 545 l 257,5,-1
 202 545 l 257,6,-1
 202 403 l 257,7,-1
 50 403 l 257,4,-1
EndSplineSet
EndChar

StartChar: comma
Encoding: 44 44 611
GlifName: comma
Width: 252
VWidth: 0
Flags: W
LayerCount: 2
Fore
SplineSet
50 3 m 257,0,-1
 50 145 l 257,1,-1
 202 145 l 257,2,-1
 202 3 l 257,3,-1
 142 -129 l 257,4,-1
 84 -125 l 257,5,-1
 93 3 l 257,6,-1
 50 3 l 257,0,-1
EndSplineSet
EndChar

StartChar: copyright
Encoding: 169 169 615
GlifName: copyright
Width: 796
VWidth: 0
Flags: W
LayerCount: 2
Fore
SplineSet
691 383 m 257,0,1
 691 507 691 507 605.5 595 c 128,-1,2
 520 683 520 683 398 683 c 128,-1,3
 276 683 276 683 190.5 595 c 128,-1,4
 105 507 105 507 105 383 c 257,5,6
 105 258 105 258 190.5 170 c 128,-1,7
 276 82 276 82 398 82 c 128,-1,8
 520 82 520 82 605.5 170 c 128,-1,9
 691 258 691 258 691 383 c 257,0,1
746 385 m 257,10,11
 746 287 746 287 699.5 204.5 c 128,-1,12
 653 122 653 122 573 74 c 128,-1,13
 493 26 493 26 398 26 c 128,-1,14
 303 26 303 26 223 74 c 128,-1,15
 143 122 143 122 96.5 204.5 c 128,-1,16
 50 287 50 287 50 385 c 257,17,18
 50 482 50 482 96.5 564.5 c 128,-1,19
 143 647 143 647 223 695 c 128,-1,20
 303 743 303 743 398 743 c 128,-1,21
 493 743 493 743 573 695 c 128,-1,22
 653 647 653 647 699.5 564.5 c 128,-1,23
 746 482 746 482 746 385 c 257,10,11
459 201 m 257,24,25
 451 200 451 200 443 200 c 257,26,27
 376 200 376 200 329 247 c 128,-1,28
 282 294 282 294 282 360 c 257,29,30
 282 427 282 427 329 474.5 c 128,-1,31
 376 522 376 522 443 522 c 257,32,33
 451 522 451 522 459 521 c 257,34,-1
 459 425 l 257,35,36
 451 427 451 427 443 427 c 257,37,38
 415 427 415 427 395.5 408 c 128,-1,39
 376 389 376 389 376 360 c 257,40,41
 376 333 376 333 395.5 313.5 c 128,-1,42
 415 294 415 294 443 294 c 257,43,44
 451 294 451 294 459 296 c 257,45,-1
 459 201 l 257,24,25
EndSplineSet
EndChar

StartChar: d
Encoding: 100 100 619
GlifName: d
Width: 534
VWidth: 0
Flags: W
LayerCount: 2
Fore
SplineSet
332 162 m 257,0,-1
 332 369 l 257,1,2
 320 372 320 372 308 372 c 257,3,4
 263 372 263 372 232 341 c 128,-1,5
 201 310 201 310 201 265 c 257,6,7
 201 221 201 221 232 190 c 128,-1,8
 263 159 263 159 308 159 c 257,9,10
 320 159 320 159 332 162 c 257,0,-1
332 785 m 257,11,-1
 484 785 l 257,12,-1
 484 9 l 257,13,-1
 332 9 l 257,14,15
 320 8 320 8 308 8 c 257,16,17
 201 8 201 8 125.5 83 c 128,-1,18
 50 158 50 158 50 265 c 128,-1,19
 50 372 50 372 125.5 447.5 c 128,-1,20
 201 523 201 523 308 523 c 257,21,22
 320 523 320 523 332 522 c 257,23,-1
 332 785 l 257,11,-1
EndSplineSet
EndChar

StartChar: dcaron
Encoding: 271 271 623
GlifName: dcaron
Width: 718
VWidth: 0
Flags: W
LayerCount: 2
Fore
SplineSet
332 162 m 257,0,-1
 332 369 l 257,1,2
 320 372 320 372 308 372 c 257,3,4
 263 372 263 372 232 341 c 128,-1,5
 201 310 201 310 201 265 c 257,6,7
 201 221 201 221 232 190 c 128,-1,8
 263 159 263 159 308 159 c 257,9,10
 320 159 320 159 332 162 c 257,0,-1
332 785 m 257,11,-1
 484 785 l 257,12,-1
 484 9 l 257,13,-1
 332 9 l 257,14,15
 320 8 320 8 308 8 c 257,16,17
 201 8 201 8 125.5 83 c 128,-1,18
 50 158 50 158 50 265 c 128,-1,19
 50 372 50 372 125.5 447.5 c 128,-1,20
 201 523 201 523 308 523 c 257,21,22
 320 523 320 523 332 522 c 257,23,-1
 332 785 l 257,11,-1
516 537 m 257,24,-1
 516 794 l 257,25,-1
 668 794 l 257,26,-1
 623 537 l 257,27,-1
 516 537 l 257,24,-1
EndSplineSet
EndChar

StartChar: dcroat
Encoding: 273 273 627
GlifName: dcroat
Width: 585
VWidth: 0
Flags: W
LayerCount: 2
Fore
SplineSet
332 162 m 257,0,-1
 332 369 l 257,1,2
 320 372 320 372 308 372 c 257,3,4
 263 372 263 372 232 341 c 128,-1,5
 201 310 201 310 201 265 c 257,6,7
 201 221 201 221 232 190 c 128,-1,8
 263 159 263 159 308 159 c 257,9,10
 320 159 320 159 332 162 c 257,0,-1
332 785 m 257,11,-1
 484 785 l 257,12,-1
 484 744 l 257,13,-1
 535 744 l 257,14,-1
 535 592 l 257,15,-1
 484 592 l 257,16,-1
 484 9 l 257,17,-1
 332 9 l 257,18,19
 320 8 320 8 308 8 c 257,20,21
 201 8 201 8 125.5 83 c 128,-1,22
 50 158 50 158 50 265 c 128,-1,23
 50 372 50 372 125.5 447.5 c 128,-1,24
 201 523 201 523 308 523 c 257,25,26
 320 523 320 523 332 522 c 257,27,-1
 332 592 l 257,28,-1
 264 592 l 257,29,-1
 264 744 l 257,30,-1
 332 744 l 257,31,-1
 332 785 l 257,11,-1
EndSplineSet
EndChar

StartChar: dieresis
Encoding: 168 168 635
GlifName: dieresis
Width: 452
VWidth: 0
Flags: W
LayerCount: 2
Fore
SplineSet
50 3 m 257,0,-1
 50 145 l 257,1,-1
 202 145 l 257,2,-1
 202 3 l 257,3,-1
 50 3 l 257,0,-1
250 3 m 257,4,-1
 250 145 l 257,5,-1
 402 145 l 257,6,-1
 402 3 l 257,7,-1
 250 3 l 257,4,-1
EndSplineSet
EndChar

StartChar: divide
Encoding: 247 247 639
GlifName: divide
Width: 644
VWidth: 0
Flags: W
LayerCount: 2
Fore
SplineSet
250 156 m 257,0,-1
 250 298 l 257,1,-1
 402 298 l 257,2,-1
 402 156 l 257,3,-1
 250 156 l 257,0,-1
250 556 m 257,4,-1
 250 698 l 257,5,-1
 402 698 l 257,6,-1
 402 556 l 257,7,-1
 250 556 l 257,4,-1
594 501 m 257,8,-1
 594 349 l 257,9,-1
 50 349 l 257,10,-1
 50 501 l 257,11,-1
 594 501 l 257,8,-1
EndSplineSet
EndChar

StartChar: dollar
Encoding: 36 36 643
GlifName: dollar
Width: 519
VWidth: 0
Flags: W
LayerCount: 2
Fore
SplineSet
243 591 m 257,0,1
 234 582 234 582 227 570 c 257,2,3
 202 529 202 529 222 480 c 257,4,5
 231 461 231 461 243 448 c 257,6,-1
 243 591 l 257,0,1
50 62 m 257,7,-1
 125 187 l 257,8,9
 133 181 133 181 147 172 c 257,10,11
 185 150 185 150 228 160 c 257,12,13
 236 162 236 162 243 165 c 257,14,-1
 243 315 l 257,15,16
 233 318 233 318 222 320 c 257,17,18
 173 347 173 347 137 380 c 128,-1,19
 101 413 101 413 80 454 c 128,-1,20
 59 495 59 495 62 544 c 128,-1,21
 65 593 65 593 96 644 c 257,22,23
 147 728 147 728 243 763 c 257,24,-1
 243 1035 l 257,25,-1
 322 1035 l 257,26,-1
 322 779 l 257,27,28
 393 782 393 782 448 732 c 257,29,30
 451 729 451 729 458.5 724.5 c 128,-1,31
 466 720 466 720 469 717 c 257,32,-1
 394 592 l 257,33,34
 382 602 382 602 372 607 c 257,35,36
 348 620 348 620 322 621 c 257,37,-1
 322 406 l 257,38,39
 351 388 351 388 373 371 c 257,40,41
 406 344 406 344 430.5 309 c 128,-1,42
 455 274 455 274 453.5 230 c 128,-1,43
 452 186 452 186 422 135 c 257,44,45
 387 76 387 76 322 37 c 257,46,-1
 322 -177 l 257,47,-1
 243 -177 l 257,48,-1
 243 5 l 257,49,50
 217 -1 217 -1 192 -1 c 257,51,52
 125 -2 125 -2 71 47 c 257,53,54
 68 50 68 50 60.5 54.5 c 128,-1,55
 53 59 53 59 50 62 c 257,7,-1
EndSplineSet
EndChar

StartChar: dotbelowcomb
Encoding: 803 803 651
GlifName: dotbelowcomb
Width: 252
VWidth: 0
Flags: W
LayerCount: 2
Fore
SplineSet
50 3 m 257,0,-1
 50 145 l 257,1,-1
 202 145 l 257,2,-1
 202 3 l 257,3,-1
 50 3 l 257,0,-1
EndSplineSet
EndChar

StartChar: dotlessi
Encoding: 305 305 655
GlifName: dotlessi
Width: 252
VWidth: 0
Flags: W
LayerCount: 2
Fore
SplineSet
50 517 m 257,0,-1
 202 517 l 257,1,-1
 202 3 l 257,2,-1
 50 3 l 257,3,-1
 50 517 l 257,0,-1
EndSplineSet
EndChar

StartChar: e
Encoding: 101 101 659
GlifName: e
Width: 617
VWidth: 0
Flags: W
LayerCount: 2
Fore
SplineSet
211 302 m 257,0,-1
 407 299 l 257,1,2
 403 303 403 303 387 322 c 128,-1,3
 371 341 371 341 362 350.5 c 128,-1,4
 353 360 353 360 337.5 370 c 128,-1,5
 322 380 322 380 308 380 c 257,6,7
 294 380 294 380 279 370.5 c 128,-1,8
 264 361 264 361 254.5 351 c 128,-1,9
 245 341 245 341 230 324 c 128,-1,10
 215 307 215 307 211 302 c 257,0,-1
566 265 m 257,11,12
 566 255 566 255 566.5 237.5 c 128,-1,13
 567 220 567 220 567 213 c 257,14,-1
 216 210 l 257,15,16
 230 187 230 187 254.5 173 c 128,-1,17
 279 159 279 159 308 159 c 257,18,19
 342 159 342 159 445.5 161.5 c 128,-1,20
 549 164 549 164 557 167 c 257,21,-1
 557 11 l 257,22,23
 538 8 538 8 308 8 c 257,24,25
 201 8 201 8 125.5 83 c 128,-1,26
 50 158 50 158 50 265 c 128,-1,27
 50 372 50 372 125.5 447.5 c 128,-1,28
 201 523 201 523 308 523 c 128,-1,29
 415 523 415 523 490.5 447.5 c 128,-1,30
 566 372 566 372 566 265 c 257,11,12
EndSplineSet
EndChar

StartChar: eight
Encoding: 56 56 691
GlifName: eight
Width: 558
VWidth: 0
Flags: W
LayerCount: 2
Fore
SplineSet
278 8 m 257,0,-1
 277 8 l 257,1,2
 276 8 276 8 274 8 c 257,3,4
 267 8 267 8 262 9 c 257,5,6
 172 15 172 15 111 80 c 128,-1,7
 50 145 50 145 50 234 c 257,8,9
 50 309 50 309 94 369 c 257,10,11
 50 428 50 428 50 503 c 257,12,13
 50 593 50 593 111 658 c 128,-1,14
 172 723 172 723 262 729 c 257,15,16
 267 730 267 730 274 730 c 257,17,18
 276 730 276 730 277 730 c 257,19,-1
 278 730 l 257,20,21
 279 730 279 730 281 730 c 257,22,23
 375 730 375 730 441.5 663.5 c 128,-1,24
 508 597 508 597 508 503 c 257,25,26
 508 428 508 428 464 369 c 257,27,28
 508 309 508 309 508 234 c 257,29,30
 508 141 508 141 441.5 74.5 c 128,-1,31
 375 8 375 8 281 8 c 257,32,33
 280 8 280 8 279 8 c 2,34,-1
 278 8 l 257,0,-1
279 597 m 257,35,36
 268 597 268 597 258 594 c 257,37,-1
 258 595 l 257,38,39
 225 588 225 588 204 562.5 c 128,-1,40
 183 537 183 537 183 503 c 257,41,42
 183 469 183 469 204 443.5 c 128,-1,43
 225 418 225 418 258 411 c 257,44,-1
 258 412 l 257,45,46
 268 410 268 410 279 409 c 257,47,48
 290 410 290 410 300 412 c 257,49,-1
 300 411 l 257,50,51
 333 418 333 418 354 443.5 c 128,-1,52
 375 469 375 469 375 503 c 257,53,54
 375 537 375 537 354 562.5 c 128,-1,55
 333 588 333 588 300 595 c 257,56,-1
 300 594 l 257,57,58
 290 597 290 597 279 597 c 257,35,36
279 329 m 257,59,60
 268 328 268 328 258 326 c 257,61,-1
 258 327 l 257,62,63
 225 320 225 320 204 294.5 c 128,-1,64
 183 269 183 269 183 234 c 257,65,66
 183 201 183 201 204 175.5 c 128,-1,67
 225 150 225 150 258 143 c 257,68,-1
 258 144 l 257,69,70
 268 141 268 141 279 141 c 257,71,72
 290 141 290 141 300 144 c 257,73,-1
 300 143 l 257,74,75
 333 150 333 150 354 175.5 c 128,-1,76
 375 201 375 201 375 234 c 257,77,78
 375 269 375 269 354 294.5 c 128,-1,79
 333 320 333 320 300 327 c 257,80,-1
 300 326 l 257,81,82
 290 328 290 328 279 329 c 257,59,60
EndSplineSet
EndChar

StartChar: equal
Encoding: 61 61 703
GlifName: equal
Width: 644
VWidth: 0
Flags: W
LayerCount: 2
Fore
SplineSet
594 551 m 257,0,-1
 594 399 l 257,1,-1
 50 399 l 257,2,-1
 50 551 l 257,3,-1
 594 551 l 257,0,-1
594 301 m 257,4,-1
 594 149 l 257,5,-1
 50 149 l 257,6,-1
 50 301 l 257,7,-1
 594 301 l 257,4,-1
EndSplineSet
EndChar

StartChar: eth
Encoding: 240 240 707
GlifName: eth
Width: 612
VWidth: 0
Flags: W
LayerCount: 2
Fore
SplineSet
135 785 m 257,0,-1
 287 785 l 257,1,2
 295 778 295 778 302 772 c 257,3,-1
 340 810 l 257,4,-1
 427 734 l 257,5,-1
 387 694 l 257,6,7
 434 646 434 646 468 599.5 c 128,-1,8
 502 553 502 553 529 488 c 128,-1,9
 556 423 556 423 561.5 354.5 c 128,-1,10
 567 286 567 286 549 196.5 c 128,-1,11
 531 107 531 107 484 9 c 257,12,-1
 332 9 l 257,13,14
 320 8 320 8 308 8 c 257,15,16
 201 8 201 8 125.5 83 c 128,-1,17
 50 158 50 158 50 265 c 128,-1,18
 50 372 50 372 125.5 447.5 c 128,-1,19
 201 523 201 523 308 523 c 257,20,21
 320 523 320 523 332 522 c 257,22,-1
 282 589 l 257,23,-1
 245 552 l 257,24,-1
 158 628 l 257,25,-1
 212 682 l 257,26,-1
 135 785 l 257,0,-1
310 372 m 257,27,28
 297 372 297 372 286 369 c 257,29,-1
 286 370 l 257,30,31
 249 362 249 362 225 333 c 128,-1,32
 201 304 201 304 201 265 c 257,33,34
 201 227 201 227 225 198 c 128,-1,35
 249 169 249 169 286 161 c 257,36,-1
 286 162 l 257,37,38
 297 159 297 159 310 159 c 257,39,40
 322 159 322 159 334 162 c 257,41,-1
 334 161 l 257,42,43
 371 169 371 169 395 198 c 128,-1,44
 419 227 419 227 419 265 c 257,45,46
 419 304 419 304 395 333 c 128,-1,47
 371 362 371 362 334 370 c 257,48,-1
 334 369 l 257,49,50
 322 372 322 372 310 372 c 257,27,28
EndSplineSet
EndChar

StartChar: exclam
Encoding: 33 33 711
GlifName: exclam
Width: 252
VWidth: 0
Flags: W
LayerCount: 2
Fore
SplineSet
50 3 m 257,0,-1
 50 145 l 257,1,-1
 202 145 l 257,2,-1
 202 3 l 257,3,-1
 50 3 l 257,0,-1
50 263 m 257,4,-1
 50 777 l 257,5,-1
 202 777 l 257,6,-1
 202 263 l 257,7,-1
 50 263 l 257,4,-1
EndSplineSet
EndChar

StartChar: exclamdown
Encoding: 161 161 715
GlifName: exclamdown
Width: 252
VWidth: 0
Flags: W
LayerCount: 2
Fore
SplineSet
202 777 m 257,0,-1
 202 635 l 257,1,-1
 50 635 l 257,2,-1
 50 777 l 257,3,-1
 202 777 l 257,0,-1
202 517 m 257,4,-1
 202 3 l 257,5,-1
 50 3 l 257,6,-1
 50 517 l 257,7,-1
 202 517 l 257,4,-1
EndSplineSet
EndChar

StartChar: f
Encoding: 102 102 719
GlifName: f
Width: 514
VWidth: 0
Flags: W
LayerCount: 2
Fore
SplineSet
464 757 m 257,0,-1
 464 589 l 257,1,2
 433 615 433 615 393 615 c 257,3,4
 344 615 344 615 312 578 c 257,5,-1
 312 516 l 257,6,-1
 409 516 l 257,7,-1
 409 364 l 257,8,-1
 312 364 l 257,9,-1
 312 2 l 257,10,-1
 145 2 l 257,11,-1
 147 364 l 257,12,-1
 50 364 l 257,13,-1
 50 516 l 257,14,-1
 148 516 l 257,15,-1
 148 579 l 257,16,17
 172 662 172 662 239 714 c 128,-1,18
 306 766 306 766 393 766 c 257,19,20
 430 766 430 766 464 757 c 257,0,-1
EndSplineSet
EndChar

StartChar: five
Encoding: 53 53 723
GlifName: five
Width: 418
VWidth: 0
Flags: W
LayerCount: 2
Fore
SplineSet
50 9 m 257,0,-1
 50 162 l 257,1,2
 62 159 62 159 76 159 c 257,3,4
 121 159 121 159 152 190 c 128,-1,5
 183 221 183 221 183 265 c 257,6,7
 183 310 183 310 152 341 c 128,-1,8
 121 372 121 372 76 372 c 257,9,10
 62 372 62 372 50 369 c 257,11,-1
 50 402 l 257,12,-1
 50 522 l 257,13,-1
 50 778 l 257,14,-1
 51 778 l 257,15,-1
 51 779 l 257,16,-1
 368 779 l 257,17,-1
 367 627 l 257,18,-1
 202 627 l 257,19,-1
 202 490 l 257,20,21
 262 456 262 456 298 396.5 c 128,-1,22
 334 337 334 337 334 265 c 257,23,24
 334 158 334 158 258.5 83 c 128,-1,25
 183 8 183 8 76 8 c 257,26,27
 59 8 59 8 50 9 c 257,0,-1
EndSplineSet
EndChar

StartChar: four
Encoding: 52 52 727
GlifName: four
Width: 565
VWidth: 0
Flags: W
LayerCount: 2
Fore
SplineSet
378 346 m 257,0,-1
 378 526 l 257,1,-1
 280 349 l 257,2,-1
 378 346 l 257,0,-1
386 5 m 257,3,-1
 386 197 l 257,4,-1
 385 196 l 257,5,-1
 50 196 l 257,6,-1
 372 779 l 257,7,-1
 515 779 l 257,8,-1
 515 5 l 257,9,-1
 386 5 l 257,3,-1
EndSplineSet
EndChar

StartChar: g
Encoding: 103 103 731
GlifName: g
Width: 620
VWidth: 0
Flags: W
LayerCount: 2
Fore
SplineSet
309 8 m 257,0,-1
 308 8 l 257,1,2
 306 8 306 8 304 8 c 257,3,-1
 300 8 l 257,4,5
 263 8 263 8 259 9 c 257,6,7
 161 16 161 16 105.5 87.5 c 128,-1,8
 50 159 50 159 50 265 c 257,9,10
 50 367 50 367 119.5 441.5 c 128,-1,11
 189 516 189 516 290 522 c 257,12,13
 296 523 296 523 304 523 c 257,14,15
 306 523 306 523 308 523 c 257,16,-1
 309 523 l 257,17,18
 310 523 310 523 312 523 c 257,19,20
 419 523 419 523 494.5 448 c 128,-1,21
 570 373 570 373 570 266 c 257,22,-1
 570 265 l 257,23,24
 570 262 570 262 570 258 c 257,25,-1
 567 -13 l 257,26,27
 543 -96 543 -96 477.5 -148 c 128,-1,28
 412 -200 412 -200 325 -200 c 257,29,30
 154 -200 154 -200 120 -191 c 257,31,-1
 120 -23 l 257,32,33
 132 -33 132 -33 211 -41 c 128,-1,34
 290 -49 290 -49 325 -49 c 257,35,36
 351 -49 351 -49 377.5 -39 c 128,-1,37
 404 -29 404 -29 419 -12 c 257,38,-1
 419 31 l 257,39,40
 368 8 368 8 312 8 c 257,41,42
 311 8 311 8 310 8 c 2,43,-1
 309 8 l 257,0,-1
310 372 m 257,44,45
 297 372 297 372 286 369 c 257,46,-1
 286 370 l 257,47,48
 249 362 249 362 225 333 c 128,-1,49
 201 304 201 304 201 265 c 257,50,51
 201 227 201 227 225 198 c 128,-1,52
 249 169 249 169 286 161 c 257,53,-1
 286 162 l 257,54,55
 297 159 297 159 310 159 c 257,56,57
 322 159 322 159 334 162 c 257,58,-1
 334 161 l 257,59,60
 371 169 371 169 395 198 c 128,-1,61
 419 227 419 227 419 265 c 257,62,63
 419 304 419 304 395 333 c 128,-1,64
 371 362 371 362 334 370 c 257,65,-1
 334 369 l 257,66,67
 322 372 322 372 310 372 c 257,44,45
EndSplineSet
EndChar

StartChar: germandbls
Encoding: 223 223 747
GlifName: germandbls
Width: 836
VWidth: 0
Flags: W
LayerCount: 2
Fore
SplineSet
283 52 m 257,0,-1
 350 164 l 257,1,2
 357 157 357 157 372 152 c 257,3,4
 412 135 412 135 443.5 139 c 128,-1,5
 475 143 475 143 495 167 c 257,6,7
 518 194 518 194 473 206 c 257,8,9
 461 209 461 209 419 216 c 257,10,11
 353 242 353 242 313 276.5 c 128,-1,12
 273 311 273 311 265 353 c 128,-1,13
 257 395 257 395 295 439 c 257,14,15
 303 449 303 449 320 471 c 128,-1,16
 337 493 337 493 346 503.5 c 128,-1,17
 355 514 355 514 371.5 530.5 c 128,-1,18
 388 547 388 547 402 553.5 c 128,-1,19
 416 560 416 560 435.5 565.5 c 128,-1,20
 455 571 455 571 477.5 567.5 c 128,-1,21
 500 564 500 564 526 554 c 257,22,23
 527 554 527 554 528 554 c 257,24,25
 573 554 573 554 604 585 c 128,-1,26
 635 616 635 616 635 661 c 257,27,28
 635 691 635 691 539.5 707 c 128,-1,29
 444 723 444 723 341 717.5 c 128,-1,30
 238 712 238 712 217 688 c 257,31,-1
 217 7 l 257,32,-1
 50 7 l 257,33,-1
 53 689 l 257,34,35
 77 772 77 772 144 824 c 257,36,37
 185 856 185 856 264 868.5 c 128,-1,38
 343 881 343 881 431 871 c 128,-1,39
 519 861 519 861 599.5 836.5 c 128,-1,40
 680 812 680 812 733 765 c 128,-1,41
 786 718 786 718 786 661 c 257,42,43
 786 584 786 584 774.5 537 c 128,-1,44
 763 490 763 490 743 471 c 128,-1,45
 723 452 723 452 698 447 c 128,-1,46
 673 442 673 442 642.5 445.5 c 128,-1,47
 612 449 612 449 583 451 c 128,-1,48
 554 453 554 453 523 442.5 c 128,-1,49
 492 432 492 432 470 405 c 257,50,51
 454 387 454 387 449.5 360 c 128,-1,52
 445 333 445 333 458 309 c 128,-1,53
 471 285 471 285 501 280 c 257,54,55
 540 263 540 263 569 248.5 c 128,-1,56
 598 234 598 234 624.5 214 c 128,-1,57
 651 194 651 194 662.5 174.5 c 128,-1,58
 674 155 674 155 671.5 130.5 c 128,-1,59
 669 106 669 106 647 80 c 257,60,61
 600 23 600 23 500 10.5 c 128,-1,62
 400 -2 400 -2 305 39 c 257,63,64
 297 41 297 41 283 52 c 257,0,-1
EndSplineSet
EndChar

StartChar: grave
Encoding: 96 96 751
GlifName: grave
Width: 390
VWidth: 0
Flags: W
LayerCount: 2
Fore
SplineSet
232 521 m 257,0,-1
 50 703 l 257,1,-1
 158 810 l 257,2,-1
 340 628 l 257,3,-1
 232 521 l 257,0,-1
EndSplineSet
EndChar

StartChar: gravecomb
Encoding: 768 768 755
GlifName: gravecomb
Width: 0
VWidth: 0
Flags: W
LayerCount: 2
Fore
SplineSet
37 521 m 257,0,-1
 -145 703 l 257,1,-1
 -37 810 l 257,2,-1
 145 628 l 257,3,-1
 37 521 l 257,0,-1
EndSplineSet
EndChar

StartChar: greater
Encoding: 62 62 759
GlifName: greater
Width: 644
VWidth: 0
Flags: W
LayerCount: 2
Fore
SplineSet
50 551 m 257,0,-1
 594 408 l 257,1,-1
 594 407 l 257,2,-1
 594 256 l 257,3,-1
 594 255 l 257,4,-1
 50 149 l 257,5,-1
 50 301 l 257,6,-1
 264 343 l 257,7,-1
 50 399 l 257,8,-1
 50 551 l 257,0,-1
EndSplineSet
EndChar

StartChar: guillemotleft
Encoding: 171 171 763
GlifName: guillemotleft
Width: 1244
VWidth: 0
Flags: W
LayerCount: 2
Fore
SplineSet
594 668 m 257,0,-1
 594 516 l 257,1,-1
 188 343 l 257,2,-1
 594 163 l 257,3,-1
 594 11 l 257,4,-1
 50 255 l 257,5,-1
 50 256 l 257,6,-1
 50 407 l 257,7,-1
 50 408 l 257,8,-1
 594 668 l 257,0,-1
1194 668 m 257,9,-1
 1194 516 l 257,10,-1
 788 343 l 257,11,-1
 1194 163 l 257,12,-1
 1194 11 l 257,13,-1
 650 255 l 257,14,-1
 650 256 l 257,15,-1
 650 407 l 257,16,-1
 650 408 l 257,17,-1
 1194 668 l 257,9,-1
EndSplineSet
EndChar

StartChar: guillemotright
Encoding: 187 187 767
GlifName: guillemotright
Width: 1244
VWidth: 0
Flags: W
LayerCount: 2
Fore
SplineSet
650 668 m 257,0,-1
 1194 408 l 257,1,-1
 1194 407 l 257,2,-1
 1194 256 l 257,3,-1
 1194 255 l 257,4,-1
 650 11 l 257,5,-1
 650 163 l 257,6,-1
 1056 343 l 257,7,-1
 650 516 l 257,8,-1
 650 668 l 257,0,-1
50 668 m 257,9,-1
 594 408 l 257,10,-1
 594 407 l 257,11,-1
 594 256 l 257,12,-1
 594 255 l 257,13,-1
 50 11 l 257,14,-1
 50 163 l 257,15,-1
 456 343 l 257,16,-1
 50 516 l 257,17,-1
 50 668 l 257,9,-1
EndSplineSet
EndChar

StartChar: h
Encoding: 104 104 771
GlifName: h
Width: 597
VWidth: 0
Flags: W
LayerCount: 2
Fore
SplineSet
50 773 m 257,0,-1
 219 773 l 257,1,-1
 219 517 l 257,2,3
 258 529 258 529 299 529 c 257,4,5
 386 529 386 529 453 477 c 128,-1,6
 520 425 520 425 544 342 c 257,7,-1
 547 11 l 257,8,-1
 380 11 l 257,9,-1
 380 341 l 257,10,11
 348 378 348 378 299 378 c 257,12,13
 251 378 251 378 219 343 c 257,14,-1
 219 11 l 257,15,-1
 50 11 l 257,16,-1
 50 773 l 257,0,-1
EndSplineSet
EndChar

StartChar: hbar
Encoding: 295 295 775
GlifName: hbar
Width: 658
VWidth: 0
Flags: W
LayerCount: 2
Fore
SplineSet
338 736 m 257,0,-1
 338 584 l 257,1,-1
 280 584 l 257,2,-1
 280 517 l 257,3,4
 319 529 319 529 360 529 c 257,5,6
 447 529 447 529 514 477 c 128,-1,7
 581 425 581 425 605 342 c 257,8,-1
 608 11 l 257,9,-1
 441 11 l 257,10,-1
 441 341 l 257,11,12
 409 378 409 378 360 378 c 257,13,14
 312 378 312 378 280 343 c 257,15,-1
 280 11 l 257,16,-1
 111 11 l 257,17,-1
 111 584 l 257,18,-1
 50 584 l 257,19,-1
 50 736 l 257,20,-1
 111 736 l 257,21,-1
 111 773 l 257,22,-1
 280 773 l 257,23,-1
 280 736 l 257,24,-1
 338 736 l 257,0,-1
EndSplineSet
EndChar

StartChar: hookabovecomb
Encoding: 777 777 783
GlifName: hookabovecomb
Width: 0
VWidth: 0
Flags: W
LayerCount: 2
Fore
SplineSet
-71 437 m 257,0,-1
 -71 514 l 257,1,2
 -63 512 -63 512 -58 512 c 257,3,4
 -35 512 -35 512 -19.5 527.5 c 128,-1,5
 -4 543 -4 543 -4 565 c 128,-1,6
 -4 587 -4 587 -20 603 c 128,-1,7
 -36 619 -36 619 -58 619 c 257,8,9
 -63 619 -63 619 -71 617 c 257,10,-1
 -71 694 l 257,11,-1
 -58 694 l 257,12,13
 -4 694 -4 694 33.5 656.5 c 128,-1,14
 71 619 71 619 71 565 c 257,15,16
 71 512 71 512 33.5 474.5 c 128,-1,17
 -4 437 -4 437 -58 437 c 257,18,-1
 -71 437 l 257,0,-1
EndSplineSet
EndChar

StartChar: hyphen
Encoding: 45 45 791
GlifName: hyphen
Width: 644
VWidth: 0
Flags: W
LayerCount: 2
Fore
SplineSet
594 501 m 257,0,-1
 594 349 l 257,1,-1
 50 349 l 257,2,-1
 50 501 l 257,3,-1
 594 501 l 257,0,-1
EndSplineSet
EndChar

StartChar: i
Encoding: 105 105 795
GlifName: i
Width: 252
VWidth: 0
Flags: W
LayerCount: 2
Fore
SplineSet
50 777 m 257,0,-1
 202 777 l 257,1,-1
 202 635 l 257,2,-1
 50 635 l 257,3,-1
 50 777 l 257,0,-1
50 517 m 257,4,-1
 202 517 l 257,5,-1
 202 3 l 257,6,-1
 50 3 l 257,7,-1
 50 517 l 257,4,-1
EndSplineSet
EndChar

StartChar: j
Encoding: 106 106 831
GlifName: j
Width: 419
VWidth: 0
Flags: W
LayerCount: 2
Fore
SplineSet
214 777 m 257,0,-1
 366 777 l 257,1,-1
 366 635 l 257,2,-1
 214 635 l 257,3,-1
 214 777 l 257,0,-1
50 -190 m 257,4,-1
 50 -22 l 257,5,6
 81 -48 81 -48 121 -48 c 257,7,8
 170 -48 170 -48 202 -11 c 257,9,-1
 202 522 l 257,10,-1
 369 522 l 257,11,-1
 366 -12 l 257,12,13
 342 -95 342 -95 275 -147 c 128,-1,14
 208 -199 208 -199 121 -199 c 257,15,16
 84 -199 84 -199 50 -190 c 257,4,-1
EndSplineSet
EndChar

StartChar: k
Encoding: 107 107 839
GlifName: k
Width: 688
VWidth: 0
Flags: W
LayerCount: 2
Fore
SplineSet
50 757 m 257,0,-1
 191 757 l 257,1,-1
 191 322 l 257,2,-1
 436 519 l 257,3,-1
 629 517 l 257,4,-1
 368 289 l 257,5,-1
 638 2 l 257,6,-1
 452 3 l 257,7,-1
 248 231 l 257,8,-1
 191 159 l 257,9,-1
 191 3 l 257,10,-1
 50 3 l 257,11,-1
 50 757 l 257,0,-1
EndSplineSet
EndChar

StartChar: l
Encoding: 108 108 843
GlifName: l
Width: 419
VWidth: 0
Flags: W
LayerCount: 2
Fore
SplineSet
369 11 m 257,0,1
 335 2 335 2 298 2 c 257,2,3
 211 2 211 2 144 54 c 128,-1,4
 77 106 77 106 53 189 c 257,5,-1
 50 766 l 257,6,-1
 217 766 l 257,7,-1
 217 190 l 257,8,9
 249 153 249 153 298 153 c 257,10,11
 338 153 338 153 369 179 c 257,12,-1
 369 11 l 257,0,1
EndSplineSet
EndChar

StartChar: lcaron
Encoding: 318 318 851
GlifName: lcaron
Width: 462
VWidth: 0
Flags: W
LayerCount: 2
Fore
SplineSet
369 11 m 257,0,1
 335 2 335 2 298 2 c 257,2,3
 211 2 211 2 144 54 c 128,-1,4
 77 106 77 106 53 189 c 257,5,-1
 50 766 l 257,6,-1
 217 766 l 257,7,-1
 217 190 l 257,8,9
 249 153 249 153 298 153 c 257,10,11
 338 153 338 153 369 179 c 257,12,-1
 369 11 l 257,0,1
260 509 m 257,13,-1
 260 766 l 257,14,-1
 412 766 l 257,15,-1
 367 509 l 257,16,-1
 260 509 l 257,13,-1
EndSplineSet
EndChar

StartChar: less
Encoding: 60 60 859
GlifName: less
Width: 644
VWidth: 0
Flags: W
LayerCount: 2
Fore
SplineSet
594 551 m 257,0,-1
 594 399 l 257,1,-1
 380 343 l 257,2,-1
 594 301 l 257,3,-1
 594 149 l 257,4,-1
 50 255 l 257,5,-1
 50 256 l 257,6,-1
 50 407 l 257,7,-1
 50 408 l 257,8,-1
 594 551 l 257,0,-1
EndSplineSet
EndChar

StartChar: lslash
Encoding: 322 322 863
GlifName: lslash
Width: 563
VWidth: 0
Flags: W
LayerCount: 2
Fore
SplineSet
78 313 m 29,0,-1
 78 433 l 29,1,-1
 497 621 l 29,2,-1
 497 505 l 29,3,-1
 78 313 l 29,0,-1
513 11 m 257,4,5
 479 2 479 2 442 2 c 257,6,7
 355 2 355 2 288 54 c 128,-1,8
 221 106 221 106 197 189 c 257,9,-1
 194 766 l 257,10,-1
 361 766 l 257,11,-1
 361 190 l 257,12,13
 393 153 393 153 442 153 c 257,14,15
 482 153 482 153 513 179 c 257,16,-1
 513 11 l 257,4,5
EndSplineSet
EndChar

StartChar: m
Encoding: 109 109 866
GlifName: m
Width: 924
VWidth: 0
Flags: W
LayerCount: 2
Fore
SplineSet
50 527 m 257,0,-1
 219 527 l 257,1,-1
 219 517 l 257,2,3
 258 529 258 529 299 529 c 257,4,5
 389 529 389 529 458 473 c 257,6,-1
 546 517 l 257,7,8
 585 529 585 529 626 529 c 257,9,10
 713 529 713 529 780 477 c 128,-1,11
 847 425 847 425 871 342 c 257,12,-1
 874 11 l 257,13,-1
 707 11 l 257,14,-1
 707 341 l 257,15,16
 675 378 675 378 626 378 c 257,17,18
 578 378 578 378 546 343 c 257,19,-1
 546 121 l 257,20,-1
 547 11 l 257,21,-1
 546 11 l 257,22,-1
 380 11 l 257,23,-1
 377 11 l 257,24,-1
 380 328 l 257,25,-1
 380 341 l 257,26,27
 348 378 348 378 299 378 c 257,28,29
 251 378 251 378 219 343 c 257,30,-1
 219 11 l 257,31,-1
 50 11 l 257,32,-1
 50 527 l 257,0,-1
EndSplineSet
EndChar

StartChar: mu
Encoding: 181 181 874
GlifName: mu
Width: 597
VWidth: 0
Flags: W
LayerCount: 2
Fore
SplineSet
50 -184 m 257,0,-1
 50 529 l 257,1,-1
 219 529 l 257,2,-1
 219 197 l 257,3,4
 251 162 251 162 299 162 c 257,5,6
 348 162 348 162 380 199 c 257,7,-1
 380 529 l 257,8,-1
 547 529 l 257,9,-1
 544 198 l 257,10,11
 520 115 520 115 453 63 c 128,-1,12
 386 11 386 11 299 11 c 257,13,14
 258 11 258 11 219 23 c 257,15,-1
 219 -184 l 257,16,-1
 50 -184 l 257,0,-1
EndSplineSet
EndChar

StartChar: multiply
Encoding: 215 215 878
GlifName: multiply
Width: 724
VWidth: 0
Flags: W
LayerCount: 2
Fore
SplineSet
50 718 m 257,0,-1
 236 716 l 257,1,-1
 365 565 l 257,2,-1
 498 717 l 257,3,-1
 673 716 l 257,4,-1
 453 463 l 257,5,-1
 674 205 l 257,6,-1
 499 203 l 257,7,-1
 362 360 l 257,8,-1
 229 207 l 257,9,-1
 51 204 l 257,10,-1
 274 461 l 257,11,-1
 50 718 l 257,0,-1
EndSplineSet
EndChar

StartChar: n
Encoding: 110 110 882
GlifName: n
Width: 597
VWidth: 0
Flags: W
LayerCount: 2
Fore
SplineSet
50 527 m 257,0,-1
 219 527 l 257,1,-1
 219 517 l 257,2,3
 258 529 258 529 299 529 c 257,4,5
 386 529 386 529 453 477 c 128,-1,6
 520 425 520 425 544 342 c 257,7,-1
 547 11 l 257,8,-1
 380 11 l 257,9,-1
 380 341 l 257,10,11
 348 378 348 378 299 378 c 257,12,13
 251 378 251 378 219 343 c 257,14,-1
 219 11 l 257,15,-1
 50 11 l 257,16,-1
 50 527 l 257,0,-1
EndSplineSet
EndChar

StartChar: nine
Encoding: 57 57 894
GlifName: nine
Width: 709
VWidth: 0
Flags: W
LayerCount: 2
Fore
SplineSet
326 396 m 257,0,1
 337 396 337 396 350 399 c 257,2,-1
 350 398 l 257,3,4
 387 406 387 406 411 435 c 128,-1,5
 435 464 435 464 435 503 c 257,6,7
 435 557 435 557 391 589 c 257,8,9
 376 598 376 598 359 605 c 257,10,11
 354 606 354 606 350 607 c 257,12,-1
 350 606 l 257,13,14
 339 609 339 609 326 609 c 257,15,16
 314 609 314 609 302 606 c 257,17,-1
 302 607 l 257,18,19
 265 599 265 599 241 570 c 128,-1,20
 217 541 217 541 217 503 c 257,21,22
 217 464 217 464 241 435 c 128,-1,23
 265 406 265 406 302 398 c 257,24,-1
 302 399 l 257,25,26
 314 396 314 396 326 396 c 257,0,1
277 151 m 257,27,28
 362 151 362 151 426 207 c 128,-1,29
 490 263 490 263 503 347 c 257,30,31
 433 271 433 271 330 264 c 257,32,33
 322 263 322 263 316 263 c 257,34,35
 313 263 313 263 312 263 c 257,36,-1
 311 263 l 257,37,38
 310 263 310 263 308 263 c 257,39,40
 217 263 217 263 146.5 319.5 c 128,-1,41
 76 376 76 376 56 463 c 257,42,43
 50 491 50 491 50 521 c 257,44,45
 50 561 50 561 62 599 c 257,46,47
 92 693 92 693 178 743 c 257,48,49
 227 777 227 777 277 777 c 257,50,51
 281 777 281 777 284 777 c 257,52,53
 296 778 296 778 308 778 c 257,54,55
 309 778 309 778 310 778 c 2,56,-1
 311 778 l 257,57,-1
 312 778 l 257,58,59
 314 778 314 778 316 778 c 257,60,61
 324 778 324 778 330 777 c 257,62,63
 410 771 410 771 472 722 c 257,64,65
 557 670 557 670 608 580 c 128,-1,66
 659 490 659 490 659 383 c 257,67,68
 659 220 659 220 547 105 c 128,-1,69
 435 -10 435 -10 277 -10 c 257,70,71
 194 -10 194 -10 158 -3 c 257,72,-1
 158 163 l 257,73,74
 173 158 173 158 213 154.5 c 128,-1,75
 253 151 253 151 277 151 c 257,27,28
EndSplineSet
EndChar

StartChar: numbersign
Encoding: 35 35 903
GlifName: numbersign
Width: 648
VWidth: 0
Flags: W
LayerCount: 2
Fore
SplineSet
406 471 m 257,0,-1
 258 471 l 257,1,-1
 241 373 l 257,2,-1
 389 373 l 257,3,-1
 406 471 l 257,0,-1
146 697 m 257,4,-1
 298 697 l 257,5,-1
 285 623 l 257,6,-1
 433 623 l 257,7,-1
 446 697 l 257,8,-1
 598 697 l 257,9,-1
 585 623 l 257,10,-1
 596 623 l 257,11,-1
 596 471 l 257,12,-1
 558 471 l 257,13,-1
 541 373 l 257,14,-1
 596 373 l 257,15,-1
 596 221 l 257,16,-1
 514 221 l 257,17,-1
 502 154 l 257,18,-1
 350 154 l 257,19,-1
 362 221 l 257,20,-1
 214 221 l 257,21,-1
 202 154 l 257,22,-1
 50 154 l 257,23,-1
 62 221 l 257,24,-1
 52 221 l 257,25,-1
 52 373 l 257,26,-1
 89 373 l 257,27,-1
 106 471 l 257,28,-1
 52 471 l 257,29,-1
 52 623 l 257,30,-1
 133 623 l 257,31,-1
 146 697 l 257,4,-1
EndSplineSet
EndChar

StartChar: o
Encoding: 111 111 907
GlifName: o
Width: 620
VWidth: 0
Flags: W
LayerCount: 2
Fore
SplineSet
310 372 m 257,0,1
 297 372 297 372 286 369 c 257,2,-1
 286 370 l 257,3,4
 249 362 249 362 225 333 c 128,-1,5
 201 304 201 304 201 265 c 257,6,7
 201 227 201 227 225 198 c 128,-1,8
 249 169 249 169 286 161 c 257,9,-1
 286 162 l 257,10,11
 297 159 297 159 310 159 c 257,12,13
 322 159 322 159 334 162 c 257,14,-1
 334 161 l 257,15,16
 371 169 371 169 395 198 c 128,-1,17
 419 227 419 227 419 265 c 257,18,19
 419 304 419 304 395 333 c 128,-1,20
 371 362 371 362 334 370 c 257,21,-1
 334 369 l 257,22,23
 322 372 322 372 310 372 c 257,0,1
309 8 m 257,24,-1
 308 8 l 257,25,26
 306 8 306 8 304 8 c 257,27,28
 296 8 296 8 290 9 c 257,29,30
 189 15 189 15 119.5 89 c 128,-1,31
 50 163 50 163 50 265 c 257,32,33
 50 367 50 367 119.5 441.5 c 128,-1,34
 189 516 189 516 290 522 c 257,35,36
 296 523 296 523 304 523 c 257,37,38
 306 523 306 523 308 523 c 257,39,-1
 309 523 l 257,40,41
 310 523 310 523 312 523 c 257,42,43
 419 523 419 523 494.5 447.5 c 128,-1,44
 570 372 570 372 570 265 c 128,-1,45
 570 158 570 158 494.5 83 c 128,-1,46
 419 8 419 8 312 8 c 257,47,48
 311 8 311 8 310 8 c 2,49,-1
 309 8 l 257,24,-1
EndSplineSet
EndChar

StartChar: oe
Encoding: 339 339 927
GlifName: oe
Width: 999
VWidth: 0
Flags: W
LayerCount: 2
Fore
SplineSet
309 8 m 257,0,-1
 308 8 l 257,1,2
 306 8 306 8 304 8 c 257,3,4
 296 8 296 8 290 9 c 257,5,6
 189 15 189 15 119.5 89 c 128,-1,7
 50 163 50 163 50 265 c 257,8,9
 50 367 50 367 119.5 441.5 c 128,-1,10
 189 516 189 516 290 522 c 257,11,12
 296 523 296 523 304 523 c 257,13,14
 306 523 306 523 308 523 c 257,15,-1
 309 523 l 257,16,17
 310 523 310 523 312 523 c 257,18,19
 425 523 425 523 501 441 c 257,20,21
 577 523 577 523 690 523 c 257,22,23
 797 523 797 523 872.5 447.5 c 128,-1,24
 948 372 948 372 948 265 c 257,25,26
 948 255 948 255 948.5 237.5 c 128,-1,27
 949 220 949 220 949 213 c 257,28,-1
 598 210 l 257,29,30
 612 187 612 187 636.5 173 c 128,-1,31
 661 159 661 159 690 159 c 257,32,33
 724 159 724 159 827.5 161.5 c 128,-1,34
 931 164 931 164 939 167 c 257,35,-1
 939 11 l 257,36,37
 920 8 920 8 690 8 c 257,38,39
 577 8 577 8 501 90 c 257,40,41
 425 8 425 8 312 8 c 257,42,43
 311 8 311 8 310 8 c 2,44,-1
 309 8 l 257,0,-1
593 302 m 257,45,-1
 789 299 l 257,46,47
 785 303 785 303 769 322 c 128,-1,48
 753 341 753 341 744 350.5 c 128,-1,49
 735 360 735 360 719.5 370 c 128,-1,50
 704 380 704 380 690 380 c 257,51,52
 676 380 676 380 661 370.5 c 128,-1,53
 646 361 646 361 636.5 351 c 128,-1,54
 627 341 627 341 612 324 c 128,-1,55
 597 307 597 307 593 302 c 257,45,-1
310 372 m 257,56,57
 297 372 297 372 286 369 c 257,58,-1
 286 370 l 257,59,60
 249 362 249 362 225 333 c 128,-1,61
 201 304 201 304 201 265 c 257,62,63
 201 227 201 227 225 198 c 128,-1,64
 249 169 249 169 286 161 c 257,65,-1
 286 162 l 257,66,67
 297 159 297 159 310 159 c 257,68,69
 322 159 322 159 334 162 c 257,70,-1
 334 161 l 257,71,72
 371 169 371 169 395 198 c 128,-1,73
 419 227 419 227 419 265 c 257,74,75
 419 304 419 304 395 333 c 128,-1,76
 371 362 371 362 334 370 c 257,77,-1
 334 369 l 257,78,79
 322 372 322 372 310 372 c 257,56,57
EndSplineSet
EndChar

StartChar: one
Encoding: 49 49 947
GlifName: one
Width: 436
VWidth: 0
Flags: W
LayerCount: 2
Fore
SplineSet
158 492 m 257,0,-1
 50 599 l 257,1,-1
 232 781 l 257,2,-1
 234 779 l 257,3,-1
 386 779 l 257,4,-1
 386 3 l 257,5,-1
 234 3 l 257,6,-1
 234 568 l 257,7,-1
 158 492 l 257,0,-1
EndSplineSet
EndChar

StartChar: oslash
Encoding: 248 248 967
GlifName: oslash
Width: 620
VWidth: 0
Flags: W
LayerCount: 2
Fore
SplineSet
324 160 m 257,0,1
 329 161 329 161 334 162 c 257,2,-1
 334 161 l 257,3,4
 371 169 371 169 395 198 c 128,-1,5
 419 227 419 227 419 265 c 257,6,7
 419 287 419 287 410 308 c 257,8,-1
 324 160 l 257,0,1
306 372 m 257,9,10
 295 371 295 371 286 369 c 257,11,-1
 286 370 l 257,12,13
 249 362 249 362 225 333 c 128,-1,14
 201 304 201 304 201 265 c 257,15,16
 201 238 201 238 214 214 c 257,17,-1
 306 372 l 257,9,10
50 265 m 257,18,19
 50 372 50 372 124.5 447.5 c 128,-1,20
 199 523 199 523 308 523 c 257,21,-1
 309 523 l 257,22,23
 310 523 310 523 312 523 c 257,24,25
 351 523 351 523 388 512 c 257,26,-1
 458 630 l 257,27,-1
 564 569 l 257,28,-1
 493 449 l 257,29,30
 570 373 570 373 570 265 c 257,31,32
 570 158 570 158 494.5 83 c 128,-1,33
 419 8 419 8 312 8 c 257,34,35
 311 8 311 8 310 8 c 2,36,-1
 309 8 l 257,37,-1
 308 8 l 257,38,39
 273 8 273 8 240 17 c 257,40,-1
 184 -78 l 257,41,-1
 78 -17 l 257,42,-1
 133 76 l 257,43,44
 94 112 94 112 72 161 c 128,-1,45
 50 210 50 210 50 265 c 257,18,19
EndSplineSet
EndChar

StartChar: otilde.0
Encoding: 66264 -1 972
GlifName: otilde.0
Width: 620
VWidth: 0
Flags: W
LayerCount: 2
Fore
SplineSet
383 710 m 257,0,-1
 373 700 l 257,1,2
 364 690 364 690 347 680 c 257,3,4
 330 670 330 670 315 670 c 257,5,6
 293 670 293 670 270 670 c 257,7,8
 254 670 254 670 231 684 c 257,9,10
 207 697 207 697 190 697 c 257,11,12
 165 697 165 697 133 669 c 257,13,-1
 133 593 l 257,14,-1
 142 600 l 257,15,16
 151 607 151 607 166 614 c 257,17,18
 181 621 181 621 192 621 c 257,19,20
 208 621 208 621 231 607 c 257,21,22
 253 593 253 593 269 593 c 257,23,-1
 319 593 l 257,24,25
 335 593 335 593 351 604 c 257,26,27
 367 614 367 614 375 623 c 257,28,29
 382 632 382 632 383 634 c 257,30,-1
 383 710 l 257,0,-1
310 382 m 257,31,32
 322 382 322 382 334 379 c 257,33,-1
 334 380 l 257,34,35
 371 372 371 372 395 343 c 257,36,37
 419 314 419 314 419 275 c 257,38,39
 419 237 419 237 395 208 c 257,40,41
 371 179 371 179 334 171 c 257,42,-1
 334 172 l 257,43,44
 322 169 322 169 310 169 c 257,45,46
 297 169 297 169 286 172 c 257,47,-1
 286 171 l 257,48,49
 249 179 249 179 225 208 c 257,50,51
 201 237 201 237 201 275 c 257,52,53
 201 314 201 314 225 343 c 257,54,55
 249 372 249 372 286 380 c 257,56,-1
 286 379 l 257,57,58
 297 382 297 382 310 382 c 257,31,32
309 18 m 257,59,-1
 310 18 l 257,60,61
 311 18 311 18 312 18 c 257,62,63
 419 18 419 18 495 93 c 257,64,65
 570 168 570 168 570 275 c 257,66,67
 570 382 570 382 495 458 c 257,68,69
 419 533 419 533 312 533 c 257,70,71
 310 533 310 533 309 533 c 257,72,-1
 308 533 l 257,73,74
 306 533 306 533 304 533 c 257,75,76
 296 533 296 533 290 532 c 257,77,78
 189 526 189 526 120 452 c 257,79,80
 50 377 50 377 50 275 c 257,81,82
 50 173 50 173 120 99 c 257,83,84
 189 25 189 25 290 19 c 257,85,86
 296 18 296 18 304 18 c 257,87,88
 306 18 306 18 308 18 c 257,89,-1
 309 18 l 257,59,-1
EndSplineSet
EndChar

StartChar: otilde.1
Encoding: 66265 -1 973
GlifName: otilde.1
Width: 620
VWidth: 0
Flags: W
LayerCount: 2
Fore
SplineSet
433 700 m 257,0,-1
 423 690 l 257,1,2
 414 680 414 680 397 670 c 257,3,4
 380 660 380 660 365 660 c 257,5,6
 343 660 343 660 320 660 c 257,7,8
 304 660 304 660 281 674 c 257,9,10
 257 687 257 687 240 687 c 257,11,12
 215 687 215 687 183 659 c 257,13,-1
 183 583 l 257,14,-1
 192 590 l 257,15,16
 201 597 201 597 216 604 c 257,17,18
 231 611 231 611 242 611 c 257,19,20
 258 611 258 611 281 597 c 257,21,22
 303 583 303 583 319 583 c 257,23,-1
 369 583 l 257,24,25
 385 583 385 583 401 594 c 257,26,27
 417 604 417 604 425 613 c 257,28,29
 432 622 432 622 433 624 c 257,30,-1
 433 700 l 257,0,-1
310 372 m 257,31,32
 322 372 322 372 334 369 c 257,33,-1
 334 370 l 257,34,35
 371 362 371 362 395 333 c 257,36,37
 419 304 419 304 419 265 c 257,38,39
 419 227 419 227 395 198 c 257,40,41
 371 169 371 169 334 161 c 257,42,-1
 334 162 l 257,43,44
 322 159 322 159 310 159 c 257,45,46
 297 159 297 159 286 162 c 257,47,-1
 286 161 l 257,48,49
 249 169 249 169 225 198 c 257,50,51
 201 227 201 227 201 265 c 257,52,53
 201 304 201 304 225 333 c 257,54,55
 249 362 249 362 286 370 c 257,56,-1
 286 369 l 257,57,58
 297 372 297 372 310 372 c 257,31,32
309 8 m 257,59,-1
 310 8 l 257,60,61
 311 8 311 8 312 8 c 257,62,63
 419 8 419 8 495 83 c 257,64,65
 570 158 570 158 570 265 c 257,66,67
 570 372 570 372 495 448 c 257,68,69
 419 523 419 523 312 523 c 257,70,71
 310 523 310 523 309 523 c 257,72,-1
 308 523 l 257,73,74
 306 523 306 523 304 523 c 257,75,76
 296 523 296 523 290 522 c 257,77,78
 189 516 189 516 120 442 c 257,79,80
 50 367 50 367 50 265 c 257,81,82
 50 163 50 163 120 89 c 257,83,84
 189 15 189 15 290 9 c 257,85,86
 296 8 296 8 304 8 c 257,87,88
 306 8 306 8 308 8 c 257,89,-1
 309 8 l 257,59,-1
EndSplineSet
EndChar

StartChar: p
Encoding: 112 112 975
GlifName: p
Width: 534
VWidth: 0
Flags: W
LayerCount: 2
Fore
SplineSet
202 361 m 257,0,-1
 202 154 l 257,1,2
 214 151 214 151 226 151 c 257,3,4
 271 151 271 151 302 182 c 128,-1,5
 333 213 333 213 333 258 c 257,6,7
 333 302 333 302 302 333 c 128,-1,8
 271 364 271 364 226 364 c 257,9,10
 214 364 214 364 202 361 c 257,0,-1
202 -197 m 257,11,-1
 50 -197 l 257,12,-1
 50 514 l 257,13,-1
 202 514 l 257,14,15
 210 515 210 515 226 515 c 257,16,17
 333 515 333 515 408.5 440 c 128,-1,18
 484 365 484 365 484 258 c 128,-1,19
 484 151 484 151 408.5 75.5 c 128,-1,20
 333 0 333 0 226 0 c 257,21,22
 210 0 210 0 202 1 c 257,23,-1
 202 -197 l 257,11,-1
EndSplineSet
EndChar

StartChar: paragraph
Encoding: 182 182 979
GlifName: paragraph
Width: 752
VWidth: 0
Flags: W
LayerCount: 2
Fore
SplineSet
332 8 m 257,0,-1
 332 271 l 257,1,2
 324 270 324 270 308 270 c 257,3,4
 201 270 201 270 125.5 345.5 c 128,-1,5
 50 421 50 421 50 528 c 128,-1,6
 50 635 50 635 125.5 710 c 128,-1,7
 201 785 201 785 308 785 c 257,8,9
 324 785 324 785 332 784 c 257,10,-1
 484 784 l 257,11,-1
 484 8 l 257,12,-1
 332 8 l 257,0,-1
550 779 m 257,13,-1
 702 779 l 257,14,-1
 702 3 l 257,15,-1
 550 3 l 257,16,-1
 550 779 l 257,13,-1
EndSplineSet
EndChar

StartChar: parenleft
Encoding: 40 40 983
GlifName: parenleft
Width: 555
VWidth: 0
Flags: W
LayerCount: 2
Fore
SplineSet
432 749 m 257,0,1
 332 749 332 749 243 638.5 c 128,-1,2
 154 528 154 528 154 383 c 257,3,4
 154 237 154 237 243 126.5 c 128,-1,5
 332 16 332 16 432 16 c 257,6,-1
 505 -2 l 257,7,8
 471 -9 471 -9 432 -9 c 257,9,10
 274 -9 274 -9 162 106.5 c 128,-1,11
 50 222 50 222 50 385 c 128,-1,12
 50 548 50 548 162 663 c 128,-1,13
 274 778 274 778 432 778 c 257,14,15
 471 778 471 778 505 771 c 257,16,-1
 432 749 l 257,0,1
EndSplineSet
EndChar

StartChar: parenright
Encoding: 41 41 987
GlifName: parenright
Width: 555
VWidth: 0
Flags: W
LayerCount: 2
Fore
SplineSet
123 749 m 257,0,-1
 50 771 l 257,1,2
 84 778 84 778 123 778 c 257,3,4
 281 778 281 778 393 663 c 128,-1,5
 505 548 505 548 505 385 c 128,-1,6
 505 222 505 222 393 106.5 c 128,-1,7
 281 -9 281 -9 123 -9 c 257,8,9
 84 -9 84 -9 50 -2 c 257,10,-1
 123 16 l 257,11,12
 223 16 223 16 312 126.5 c 128,-1,13
 401 237 401 237 401 383 c 257,14,15
 401 528 401 528 312 638.5 c 128,-1,16
 223 749 223 749 123 749 c 257,0,-1
EndSplineSet
EndChar

StartChar: percent
Encoding: 37 37 991
GlifName: percent
Width: 691
VWidth: 0
Flags: W
LayerCount: 2
Fore
SplineSet
535 823 m 257,0,-1
 641 762 l 257,1,-1
 156 -78 l 257,2,-1
 50 -17 l 257,3,-1
 535 823 l 257,0,-1
498 267 m 257,4,-1
 498 268 l 256,5,-1
 498 268 l 257,6,7
 479 264 479 264 467.5 249.5 c 128,-1,8
 456 235 456 235 456 215 c 257,9,10
 456 196 456 196 467.5 181.5 c 128,-1,11
 479 167 479 167 498 163 c 257,12,-1
 498 164 l 257,13,14
 506 162 506 162 510 162 c 128,-1,15
 514 162 514 162 522 164 c 257,16,-1
 522 163 l 257,17,18
 541 167 541 167 552.5 181.5 c 128,-1,19
 564 196 564 196 564 215 c 257,20,21
 564 235 564 235 552.5 249.5 c 128,-1,22
 541 264 541 264 522 268 c 257,23,-1
 522 267 l 257,24,25
 514 269 514 269 510 269 c 128,-1,26
 506 269 506 269 498 267 c 257,4,-1
  PathStart: -2
509 87 m 257,27,-1
 507 87 l 257,28,-1
 500 87 l 257,29,30
 449 91 449 91 414.5 127.5 c 128,-1,31
 380 164 380 164 380 215 c 128,-1,32
 380 266 380 266 415 303 c 128,-1,33
 450 340 450 340 500 344 c 257,34,-1
 507 344 l 257,35,-1
 509 344 l 257,36,-1
 511 344 l 257,37,38
 565 344 565 344 602.5 306.5 c 128,-1,39
 640 269 640 269 640 215 c 257,40,41
 640 162 640 162 602.5 124.5 c 128,-1,42
 565 87 565 87 511 87 c 257,43,-1
 509 87 l 257,27,-1
193 668 m 257,44,-1
 193 669 l 256,45,-1
 193 669 l 257,46,47
 174 665 174 665 162.5 650.5 c 128,-1,48
 151 636 151 636 151 616 c 257,49,50
 151 597 151 597 162.5 582.5 c 128,-1,51
 174 568 174 568 193 564 c 257,52,-1
 193 565 l 257,53,54
 201 563 201 563 205 563 c 128,-1,55
 209 563 209 563 217 565 c 257,56,-1
 217 564 l 257,57,58
 236 568 236 568 247.5 582.5 c 128,-1,59
 259 597 259 597 259 616 c 257,60,61
 259 636 259 636 247.5 650.5 c 128,-1,62
 236 665 236 665 217 669 c 257,63,-1
 217 668 l 257,64,65
 209 670 209 670 205 670 c 128,-1,66
 201 670 201 670 193 668 c 257,44,-1
  PathStart: -2
204 488 m 257,67,-1
 202 488 l 257,68,-1
 195 488 l 257,69,70
 144 492 144 492 109.5 528.5 c 128,-1,71
 75 565 75 565 75 616 c 128,-1,72
 75 667 75 667 110 704 c 128,-1,73
 145 741 145 741 195 745 c 257,74,-1
 202 745 l 257,75,-1
 204 745 l 257,76,-1
 206 745 l 257,77,78
 260 745 260 745 297.5 707.5 c 128,-1,79
 335 670 335 670 335 616 c 257,80,81
 335 563 335 563 297.5 525.5 c 128,-1,82
 260 488 260 488 206 488 c 257,83,-1
 204 488 l 257,67,-1
EndSplineSet
EndChar

StartChar: period
Encoding: 46 46 995
GlifName: period
Width: 252
VWidth: 0
Flags: W
LayerCount: 2
Fore
SplineSet
50 3 m 257,0,-1
 50 145 l 257,1,-1
 202 145 l 257,2,-1
 202 3 l 257,3,-1
 50 3 l 257,0,-1
EndSplineSet
EndChar

StartChar: periodcentered
Encoding: 183 183 999
GlifName: periodcentered
Width: 252
VWidth: 0
Flags: W
LayerCount: 2
Fore
SplineSet
50 403 m 257,0,-1
 50 545 l 257,1,-1
 202 545 l 257,2,-1
 202 403 l 257,3,-1
 50 403 l 257,0,-1
EndSplineSet
EndChar

StartChar: plus
Encoding: 43 43 1003
GlifName: plus
Width: 644
VWidth: 0
Flags: W
LayerCount: 2
Fore
SplineSet
246 697 m 257,0,-1
 398 697 l 257,1,-1
 398 501 l 257,2,-1
 594 501 l 257,3,-1
 594 349 l 257,4,-1
 398 349 l 257,5,-1
 398 154 l 257,6,-1
 246 154 l 257,7,-1
 246 349 l 257,8,-1
 50 349 l 257,9,-1
 50 501 l 257,10,-1
 246 501 l 257,11,-1
 246 697 l 257,0,-1
EndSplineSet
EndChar

StartChar: plusminus
Encoding: 177 177 1007
GlifName: plusminus
Width: 644
VWidth: 0
Flags: W
LayerCount: 2
Fore
SplineSet
246 697 m 257,0,-1
 398 697 l 257,1,-1
 398 501 l 257,2,-1
 594 501 l 257,3,-1
 594 349 l 257,4,-1
 398 349 l 257,5,-1
 398 154 l 257,6,-1
 246 154 l 257,7,-1
 246 349 l 257,8,-1
 50 349 l 257,9,-1
 50 501 l 257,10,-1
 246 501 l 257,11,-1
 246 697 l 257,0,-1
594 127 m 257,12,-1
 594 -25 l 257,13,-1
 50 -25 l 257,14,-1
 50 127 l 257,15,-1
 594 127 l 257,12,-1
EndSplineSet
EndChar

StartChar: q
Encoding: 113 113 1011
GlifName: q
Width: 534
VWidth: 0
Flags: W
LayerCount: 2
Fore
SplineSet
332 361 m 257,0,1
 320 364 320 364 308 364 c 257,2,3
 263 364 263 364 232 333 c 128,-1,4
 201 302 201 302 201 258 c 257,5,6
 201 213 201 213 232 182 c 128,-1,7
 263 151 263 151 308 151 c 257,8,9
 320 151 320 151 332 154 c 257,10,-1
 332 361 l 257,0,1
332 -197 m 257,11,-1
 332 1 l 257,12,13
 324 0 324 0 308 0 c 257,14,15
 201 0 201 0 125.5 75.5 c 128,-1,16
 50 151 50 151 50 258 c 128,-1,17
 50 365 50 365 125.5 440 c 128,-1,18
 201 515 201 515 308 515 c 257,19,20
 324 515 324 515 332 514 c 257,21,-1
 484 514 l 257,22,-1
 484 -197 l 257,23,-1
 332 -197 l 257,11,-1
EndSplineSet
EndChar

StartChar: question
Encoding: 63 63 1015
GlifName: question
Width: 384
VWidth: 0
Flags: W
LayerCount: 2
Fore
SplineSet
50 833 m 257,0,1
 59 834 59 834 76 834 c 257,2,3
 183 834 183 834 258.5 759 c 128,-1,4
 334 684 334 684 334 577 c 257,5,6
 334 505 334 505 298 445 c 128,-1,7
 262 385 262 385 202 352 c 257,8,-1
 202 235 l 257,9,-1
 50 235 l 257,10,-1
 50 320 l 257,11,-1
 50 445 l 257,12,-1
 50 473 l 257,13,14
 62 470 62 470 76 470 c 257,15,16
 121 470 121 470 152 501 c 128,-1,17
 183 532 183 532 183 577 c 257,18,19
 183 621 183 621 152 652 c 128,-1,20
 121 683 121 683 76 683 c 257,21,22
 62 683 62 683 50 680 c 257,23,-1
 50 833 l 257,0,1
50 3 m 257,24,-1
 50 145 l 257,25,-1
 202 145 l 257,26,-1
 202 3 l 257,27,-1
 50 3 l 257,24,-1
EndSplineSet
EndChar

StartChar: questiondown
Encoding: 191 191 1019
GlifName: questiondown
Width: 384
VWidth: 0
Flags: W
LayerCount: 2
Fore
SplineSet
334 4 m 257,0,1
 325 3 325 3 308 3 c 257,2,3
 201 3 201 3 125.5 78 c 128,-1,4
 50 153 50 153 50 260 c 257,5,6
 50 332 50 332 86 392 c 128,-1,7
 122 452 122 452 182 485 c 257,8,-1
 182 602 l 257,9,-1
 334 602 l 257,10,-1
 334 517 l 257,11,-1
 334 392 l 257,12,-1
 334 364 l 257,13,14
 322 367 322 367 308 367 c 257,15,16
 263 367 263 367 232 336 c 128,-1,17
 201 305 201 305 201 260 c 257,18,19
 201 216 201 216 232 185 c 128,-1,20
 263 154 263 154 308 154 c 257,21,22
 322 154 322 154 334 157 c 257,23,-1
 334 4 l 257,0,1
334 834 m 257,24,-1
 334 692 l 257,25,-1
 182 692 l 257,26,-1
 182 834 l 257,27,-1
 334 834 l 257,24,-1
EndSplineSet
EndChar

StartChar: quotedbl
Encoding: 34 34 1023
GlifName: quotedbl
Width: 452
VWidth: 0
Flags: W
LayerCount: 2
Fore
SplineSet
50 537 m 257,0,-1
 50 794 l 257,1,-1
 202 794 l 257,2,-1
 202 537 l 257,3,-1
 50 537 l 257,0,-1
250 537 m 257,4,-1
 250 794 l 257,5,-1
 402 794 l 257,6,-1
 402 537 l 257,7,-1
 250 537 l 257,4,-1
EndSplineSet
EndChar

StartChar: quotesingle
Encoding: 39 39 1027
GlifName: quotesingle
Width: 252
VWidth: 0
Flags: W
LayerCount: 2
Fore
SplineSet
50 537 m 257,0,-1
 50 794 l 257,1,-1
 202 794 l 257,2,-1
 202 537 l 257,3,-1
 50 537 l 257,0,-1
EndSplineSet
EndChar

StartChar: r
Encoding: 114 114 1031
GlifName: r
Width: 587
VWidth: 0
Flags: W
LayerCount: 2
Fore
SplineSet
50 527 m 257,0,-1
 219 527 l 257,1,-1
 219 517 l 257,2,3
 258 529 258 529 299 529 c 257,4,5
 379 529 379 529 443.5 478 c 128,-1,6
 508 427 508 427 537 350 c 257,7,-1
 372 350 l 257,8,-1
 372 349 l 257,9,10
 341 378 341 378 299 378 c 257,11,12
 251 378 251 378 219 343 c 257,13,-1
 219 11 l 257,14,-1
 50 11 l 257,15,-1
 50 527 l 257,0,-1
EndSplineSet
EndChar

StartChar: registered
Encoding: 174 174 1043
GlifName: registered
Width: 656
VWidth: 0
Flags: W
LayerCount: 2
Fore
SplineSet
563 384 m 257,0,1
 563 483 563 483 494.5 553 c 128,-1,2
 426 623 426 623 328 623 c 128,-1,3
 230 623 230 623 161.5 553 c 128,-1,4
 93 483 93 483 93 384 c 257,5,6
 93 284 93 284 161.5 213.5 c 128,-1,7
 230 143 230 143 328 143 c 128,-1,8
 426 143 426 143 494.5 213.5 c 128,-1,9
 563 284 563 284 563 384 c 257,0,1
606 385 m 257,10,11
 606 266 606 266 524.5 182 c 128,-1,12
 443 98 443 98 328 98 c 128,-1,13
 213 98 213 98 131.5 182 c 128,-1,14
 50 266 50 266 50 385 c 257,15,16
 50 504 50 504 131.5 587.5 c 128,-1,17
 213 671 213 671 328 671 c 128,-1,18
 443 671 443 671 524.5 587.5 c 128,-1,19
 606 504 606 504 606 385 c 257,10,11
291 251 m 257,20,-1
 236 251 l 257,21,-1
 236 533 l 257,22,-1
 291 533 l 257,23,24
 294 534 294 534 300 534 c 257,25,26
 339 534 339 534 366.5 506.5 c 128,-1,27
 394 479 394 479 394 440 c 257,28,29
 394 410 394 410 376.5 385.5 c 128,-1,30
 359 361 359 361 332 352 c 257,31,-1
 404 248 l 257,32,-1
 353 248 l 257,33,-1
 293 346 l 257,34,35
 292 346 292 346 291 346 c 257,36,-1
 291 251 l 257,20,-1
291 478 m 257,37,-1
 291 402 l 257,38,39
 296 401 296 401 300 401 c 257,40,41
 316 401 316 401 327.5 412.5 c 128,-1,42
 339 424 339 424 339 440 c 257,43,44
 339 456 339 456 327.5 467.5 c 128,-1,45
 316 479 316 479 300 479 c 257,46,47
 296 479 296 479 291 478 c 257,37,-1
EndSplineSet
EndChar

StartChar: s
Encoding: 115 115 1051
GlifName: s
Width: 508
VWidth: 0
Flags: W
LayerCount: 2
Fore
SplineSet
69.3916015625 52 m 257,0,-1
 136.391601562 164 l 257,1,2
 143.391601562 157 143.391601562 157 158.391601562 152 c 257,3,4
 198.391601562 135 198.391601562 135 229.891601562 139 c 128,-1,5
 261.391601562 143 261.391601562 143 281.391601562 167 c 257,6,7
 304.391601562 194 304.391601562 194 259.391601562 206 c 257,8,9
 247.391601562 209 247.391601562 209 205.391601562 216 c 257,10,11
 139.391601562 242 139.391601562 242 99.3916015625 276.5 c 128,-1,12
 59.3916015625 311 59.3916015625 311 51.3916015625 353 c 128,-1,13
 43.3916015625 395 43.3916015625 395 81.3916015625 439 c 257,14,15
 128.391601562 496 128.391601562 496 228.391601562 507.5 c 128,-1,16
 328.391601562 519 328.391601562 519 424.391601562 478 c 257,17,18
 442.391601562 470 442.391601562 470 446.391601562 467 c 257,19,-1
 379.391601562 337 l 257,20,21
 365.391601562 346 365.391601562 346 357.391601562 349 c 257,22,23
 316.391601562 365 316.391601562 365 296.391601562 361 c 128,-1,24
 276.391601562 357 276.391601562 357 256.391601562 333 c 257,25,26
 231.391601562 307 231.391601562 307 235.891601562 297.5 c 128,-1,27
 240.391601562 288 240.391601562 288 287.391601562 280 c 257,28,29
 326.391601562 263 326.391601562 263 355.391601562 248.5 c 128,-1,30
 384.391601562 234 384.391601562 234 410.891601562 214 c 128,-1,31
 437.391601562 194 437.391601562 194 448.891601562 174.5 c 128,-1,32
 460.391601562 155 460.391601562 155 457.891601562 130.5 c 128,-1,33
 455.391601562 106 455.391601562 106 433.391601562 80 c 257,34,35
 386.391601562 23 386.391601562 23 286.391601562 10.5 c 128,-1,36
 186.391601562 -2 186.391601562 -2 91.3916015625 39 c 257,37,38
 83.3916015625 41 83.3916015625 41 69.3916015625 52 c 257,0,-1
EndSplineSet
EndChar

StartChar: section
Encoding: 167 167 1071
GlifName: section
Width: 599
VWidth: 0
Flags: W
LayerCount: 2
Fore
SplineSet
50 113 m 257,0,-1
 125 238 l 257,1,2
 137 228 137 228 147 223 c 257,3,4
 185 201 185 201 227 211.5 c 128,-1,5
 269 222 269 222 292 258 c 257,6,7
 314 297 314 297 289.5 330.5 c 128,-1,8
 265 364 265 364 222 371 c 257,9,10
 155 407 155 407 114.5 454 c 128,-1,11
 74 501 74 501 63.5 563.5 c 128,-1,12
 53 626 53 626 96 695 c 257,13,14
 135 759 135 759 205 791 c 257,15,16
 172 826 172 826 155.5 864 c 128,-1,17
 139 902 139 902 143 949 c 128,-1,18
 147 996 147 996 176 1044 c 257,19,20
 228 1131 228 1131 331 1156.5 c 128,-1,21
 434 1182 434 1182 528 1132 c 257,22,23
 531 1129 531 1129 538.5 1124.5 c 128,-1,24
 546 1120 546 1120 549 1117 c 257,25,-1
 474 992 l 257,26,27
 462 1002 462 1002 452 1007 c 257,28,29
 414 1028 414 1028 371.5 1017.5 c 128,-1,30
 329 1007 329 1007 307 970 c 257,31,32
 282 929 282 929 302.5 880 c 128,-1,33
 323 831 323 831 371 823 c 257,34,35
 394 811 394 811 413 799 c 257,36,37
 431 792 431 792 448 783 c 257,38,39
 451 780 451 780 458.5 775.5 c 128,-1,40
 466 771 466 771 469 768 c 257,41,-1
 465 761 l 257,42,43
 580 663 580 663 502 535 c 257,44,45
 456 457 456 457 366 427 c 257,46,47
 505 323 505 323 422 186 c 257,48,49
 370 98 370 98 267.5 72.5 c 128,-1,50
 165 47 165 47 71 98 c 257,51,52
 68 101 68 101 60.5 105.5 c 128,-1,53
 53 110 53 110 50 113 c 257,0,-1
214 580 m 257,54,55
 220 575 220 575 227 572 c 257,56,57
 265 550 265 550 307 560.5 c 128,-1,58
 349 571 349 571 372 607 c 257,59,60
 385 630 385 630 381 653 c 257,61,62
 377 656 377 656 372 658 c 257,63,64
 334 679 334 679 291.5 668.5 c 128,-1,65
 249 658 249 658 227 621 c 257,66,67
 216 602 216 602 214 580 c 257,54,55
EndSplineSet
EndChar

StartChar: semicolon
Encoding: 59 59 1075
GlifName: semicolon
Width: 252
VWidth: 0
Flags: W
LayerCount: 2
Fore
SplineSet
50 403 m 257,0,-1
 50 545 l 257,1,-1
 202 545 l 257,2,-1
 202 403 l 257,3,-1
 50 403 l 257,0,-1
50 3 m 257,4,-1
 50 145 l 257,5,-1
 202 145 l 257,6,-1
 202 3 l 257,7,-1
 142 -129 l 257,8,-1
 84 -125 l 257,9,-1
 93 3 l 257,10,-1
 50 3 l 257,4,-1
EndSplineSet
EndChar

StartChar: seven
Encoding: 55 55 1079
GlifName: seven
Width: 610
VWidth: 0
Flags: W
LayerCount: 2
Fore
SplineSet
213 5 m 257,0,-1
 51 5 l 257,1,-1
 389 615 l 257,2,-1
 50 615 l 257,3,-1
 50 767 l 257,4,-1
 560 767 l 257,5,-1
 560 615 l 257,6,-1
 213 5 l 257,0,-1
EndSplineSet
EndChar

StartChar: six
Encoding: 54 54 1083
GlifName: six
Width: 709
VWidth: 0
Flags: W
LayerCount: 2
Fore
SplineSet
383 372 m 257,0,1
 372 372 372 372 359 369 c 257,2,-1
 359 370 l 257,3,4
 322 362 322 362 298 333 c 128,-1,5
 274 304 274 304 274 265 c 257,6,7
 274 211 274 211 318 179 c 257,8,9
 333 170 333 170 350 163 c 257,10,11
 355 162 355 162 359 161 c 257,12,-1
 359 162 l 257,13,14
 370 159 370 159 383 159 c 257,15,16
 395 159 395 159 407 162 c 257,17,-1
 407 161 l 257,18,19
 444 169 444 169 468 198 c 128,-1,20
 492 227 492 227 492 265 c 257,21,22
 492 304 492 304 468 333 c 128,-1,23
 444 362 444 362 407 370 c 257,24,-1
 407 369 l 257,25,26
 395 372 395 372 383 372 c 257,0,1
432 617 m 257,27,28
 347 617 347 617 283 561 c 128,-1,29
 219 505 219 505 206 421 c 257,30,31
 276 497 276 497 379 504 c 257,32,33
 387 505 387 505 393 505 c 257,34,35
 396 505 396 505 397 505 c 257,36,-1
 398 505 l 257,37,38
 399 505 399 505 401 505 c 257,39,40
 492 505 492 505 562.5 448.5 c 128,-1,41
 633 392 633 392 653 305 c 257,42,43
 659 277 659 277 659 247 c 257,44,45
 659 207 659 207 647 169 c 257,46,47
 617 75 617 75 531 25 c 257,48,49
 482 -9 482 -9 432 -9 c 257,50,51
 428 -9 428 -9 425 -9 c 257,52,53
 413 -10 413 -10 401 -10 c 257,54,55
 400 -10 400 -10 399 -10 c 2,56,-1
 398 -10 l 257,57,-1
 397 -10 l 257,58,59
 395 -10 395 -10 393 -10 c 257,60,61
 385 -10 385 -10 379 -9 c 257,62,63
 299 -3 299 -3 237 46 c 257,64,65
 152 98 152 98 101 188 c 128,-1,66
 50 278 50 278 50 385 c 257,67,68
 50 548 50 548 162 663 c 128,-1,69
 274 778 274 778 432 778 c 257,70,71
 515 778 515 778 551 771 c 257,72,-1
 551 605 l 257,73,74
 536 610 536 610 496 613.5 c 128,-1,75
 456 617 456 617 432 617 c 257,27,28
EndSplineSet
EndChar

StartChar: slash
Encoding: 47 47 1087
GlifName: slash
Width: 691
VWidth: 0
Flags: W
LayerCount: 2
Fore
SplineSet
535 823 m 257,0,-1
 641 762 l 257,1,-1
 156 -78 l 257,2,-1
 50 -17 l 257,3,-1
 535 823 l 257,0,-1
EndSplineSet
EndChar

StartChar: sterling
Encoding: 163 163 1092
GlifName: sterling
Width: 864
VWidth: 0
Flags: W
LayerCount: 2
Fore
SplineSet
512 757 m 257,0,-1
 512 589 l 257,1,2
 481 615 481 615 441 615 c 257,3,4
 392 615 392 615 360 578 c 257,5,-1
 360 516 l 257,6,-1
 457 516 l 257,7,-1
 457 364 l 257,8,-1
 360 364 l 257,9,-1
 360 171 l 257,10,-1
 626 171 l 257,11,12
 664 203 664 203 664 253 c 257,13,14
 664 293 664 293 638 323 c 257,15,-1
 806 323 l 257,16,17
 814 289 814 289 814 253 c 257,18,19
 814 165 814 165 762 98 c 128,-1,20
 710 31 710 31 628 7 c 257,21,-1
 360 6 l 257,22,-1
 360 2 l 257,23,-1
 193 2 l 257,24,-1
 193 5 l 257,25,-1
 50 5 l 257,26,-1
 50 171 l 257,27,-1
 194 171 l 257,28,-1
 195 364 l 257,29,-1
 98 364 l 257,30,-1
 98 516 l 257,31,-1
 196 516 l 257,32,-1
 196 579 l 257,33,34
 220 662 220 662 287 714 c 128,-1,35
 354 766 354 766 441 766 c 257,36,37
 478 766 478 766 512 757 c 257,0,-1
EndSplineSet
EndChar

StartChar: t
Encoding: 116 116 1096
GlifName: t
Width: 514
VWidth: 0
Flags: W
LayerCount: 2
Fore
SplineSet
464 11 m 257,0,1
 430 2 430 2 393 2 c 257,2,3
 306 2 306 2 239 54 c 128,-1,4
 172 106 172 106 148 189 c 257,5,-1
 147 369 l 257,6,-1
 50 369 l 257,7,-1
 50 521 l 257,8,-1
 146 521 l 257,9,-1
 145 766 l 257,10,-1
 312 766 l 257,11,-1
 312 521 l 257,12,-1
 409 521 l 257,13,-1
 409 369 l 257,14,-1
 312 369 l 257,15,-1
 312 190 l 257,16,17
 344 153 344 153 393 153 c 257,18,19
 433 153 433 153 464 179 c 257,20,-1
 464 11 l 257,0,1
EndSplineSet
EndChar

StartChar: tcaron
Encoding: 357 357 1100
GlifName: tcaron
Width: 643
VWidth: 0
Flags: W
LayerCount: 2
Fore
SplineSet
464 11 m 257,0,1
 430 2 430 2 393 2 c 257,2,3
 306 2 306 2 239 54 c 128,-1,4
 172 106 172 106 148 189 c 257,5,-1
 147 369 l 257,6,-1
 50 369 l 257,7,-1
 50 521 l 257,8,-1
 146 521 l 257,9,-1
 145 766 l 257,10,-1
 312 766 l 257,11,-1
 312 521 l 257,12,-1
 409 521 l 257,13,-1
 409 369 l 257,14,-1
 312 369 l 257,15,-1
 312 190 l 257,16,17
 344 153 344 153 393 153 c 257,18,19
 433 153 433 153 464 179 c 257,20,-1
 464 11 l 257,0,1
441 509 m 257,21,-1
 441 766 l 257,22,-1
 593 766 l 257,23,-1
 548 509 l 257,24,-1
 441 509 l 257,21,-1
EndSplineSet
EndChar

StartChar: thorn
Encoding: 254 254 1104
GlifName: thorn
Width: 534
VWidth: 0
Flags: W
LayerCount: 2
Fore
SplineSet
202 364 m 257,0,-1
 202 157 l 257,1,2
 214 154 214 154 226 154 c 257,3,4
 271 154 271 154 302 185 c 128,-1,5
 333 216 333 216 333 261 c 257,6,7
 333 305 333 305 302 336 c 128,-1,8
 271 367 271 367 226 367 c 257,9,10
 214 367 214 367 202 364 c 257,0,-1
202 -194 m 257,11,-1
 50 -194 l 257,12,-1
 50 706 l 257,13,-1
 197 706 l 257,14,-1
 202 517 l 257,15,16
 210 518 210 518 226 518 c 257,17,18
 333 518 333 518 408.5 443 c 128,-1,19
 484 368 484 368 484 261 c 128,-1,20
 484 154 484 154 408.5 78.5 c 128,-1,21
 333 3 333 3 226 3 c 257,22,23
 210 3 210 3 202 4 c 257,24,-1
 202 -194 l 257,11,-1
EndSplineSet
EndChar

StartChar: three
Encoding: 51 51 1108
GlifName: three
Width: 435
VWidth: 0
Flags: W
LayerCount: 2
Fore
SplineSet
50 0 m 257,0,-1
 50 124 l 257,1,2
 63 121 63 121 76 121 c 257,3,4
 142 121 142 121 188 146 c 128,-1,5
 234 171 234 171 234 207 c 257,6,7
 234 241 234 241 207 265 c 128,-1,8
 180 289 180 289 140 293 c 257,9,10
 133 293 133 293 127 293 c 128,-1,11
 121 293 121 293 115 293 c 257,12,13
 108 293 108 293 101 291 c 257,14,-1
 101 294 l 257,15,-1
 101 415 l 257,16,-1
 101 418 l 257,17,18
 108 416 108 416 115 416 c 257,19,20
 121 416 121 416 127 416 c 128,-1,21
 133 416 133 416 140 416 c 257,22,23
 180 419 180 419 207 443.5 c 128,-1,24
 234 468 234 468 234 501 c 257,25,26
 234 538 234 538 190 563 c 128,-1,27
 146 588 146 588 82 588 c 257,28,29
 69 588 69 588 56 585 c 257,30,-1
 56 709 l 257,31,32
 69 710 69 710 82 710 c 257,33,34
 208 710 208 710 296.5 649 c 128,-1,35
 385 588 385 588 385 501 c 257,36,37
 385 415 385 415 310 354 c 257,38,39
 385 293 385 293 385 207 c 128,-1,40
 385 121 385 121 294.5 60 c 128,-1,41
 204 -1 204 -1 76 -1 c 257,42,43
 63 -1 63 -1 50 0 c 257,0,-1
EndSplineSet
EndChar

StartChar: tildecomb
Encoding: 771 771 1120
GlifName: tildecomb
Width: 0
VWidth: 0
Flags: W
LayerCount: 2
Fore
SplineSet
125 924 m 257,0,-1
 125 848 l 257,1,2
 124 846 124 846 116.5 837 c 128,-1,3
 109 828 109 828 93 817.5 c 128,-1,4
 77 807 77 807 61 807 c 257,5,-1
 11 807 l 257,6,7
 -5 807 -5 807 -27.5 821 c 128,-1,8
 -50 835 -50 835 -66 835 c 257,9,10
 -77 835 -77 835 -92 828 c 128,-1,11
 -107 821 -107 821 -116 814 c 257,12,-1
 -125 807 l 257,13,-1
 -125 883 l 257,14,15
 -93 911 -93 911 -68 911 c 257,16,17
 -51 911 -51 911 -27.5 897.5 c 128,-1,18
 -4 884 -4 884 12 884 c 257,19,20
 35 884 35 884 57 884 c 257,21,22
 72 884 72 884 89 894 c 128,-1,23
 106 904 106 904 115 914 c 257,24,-1
 125 924 l 257,0,-1
EndSplineSet
EndChar

StartChar: two
Encoding: 50 50 1124
GlifName: two
Width: 603
VWidth: 0
Flags: W
LayerCount: 2
Fore
SplineSet
126 591 m 257,0,1
 88 591 88 591 53 581 c 257,2,-1
 53 714 l 257,3,4
 89 720 89 720 126 720 c 257,5,6
 230 720 230 720 318 678 c 128,-1,7
 406 636 406 636 457 563.5 c 128,-1,8
 508 491 508 491 508 405 c 257,9,10
 508 310 508 310 445 236.5 c 128,-1,11
 382 163 382 163 278 129 c 257,12,-1
 553 131 l 257,13,-1
 553 10 l 257,14,-1
 50 5 l 257,15,-1
 53 241 l 257,16,17
 88 231 88 231 126 231 c 257,18,19
 223 231 223 231 289 279 c 128,-1,20
 355 327 355 327 355 404 c 257,21,22
 355 481 355 481 288 536 c 128,-1,23
 221 591 221 591 126 591 c 257,0,1
EndSplineSet
EndChar

StartChar: u
Encoding: 117 117 1128
GlifName: u
Width: 597
VWidth: 0
Flags: W
LayerCount: 2
Fore
SplineSet
547 7 m 257,0,-1
 378 7 l 257,1,-1
 378 17 l 257,2,3
 339 5 339 5 298 5 c 257,4,5
 211 5 211 5 144 57 c 128,-1,6
 77 109 77 109 53 192 c 257,7,-1
 50 523 l 257,8,-1
 217 523 l 257,9,-1
 217 193 l 257,10,11
 249 156 249 156 298 156 c 257,12,13
 346 156 346 156 378 191 c 257,14,-1
 378 523 l 257,15,-1
 547 523 l 257,16,-1
 547 7 l 257,0,-1
EndSplineSet
EndChar

StartChar: u09A4
Encoding: 2468 2468 1132
GlifName: u09a4
Width: 726
VWidth: 0
Flags: W
LayerCount: 2
Fore
SplineSet
390 518 m 257,0,-1
 396 639 l 257,1,2
 397 639 397 639 398 639 c 257,3,4
 525 639 525 639 614.5 547 c 128,-1,5
 704 455 704 455 704 325 c 257,6,7
 704 194 704 194 614.5 102 c 128,-1,8
 525 10 525 10 398 10 c 128,-1,9
 271 10 271 10 181.5 102 c 128,-1,10
 92 194 92 194 92 325 c 257,11,-1
 148 330.5 l 2,12,13
 204 336 204 336 204 337 c 257,14,15
 204 334 204 334 204 331 c 257,16,17
 204 253 204 253 257.5 198 c 128,-1,18
 311 143 311 143 387 143 c 128,-1,19
 463 143 463 143 516.5 198 c 128,-1,20
 570 253 570 253 570 331 c 257,21,22
 570 408 570 408 517.5 462.5 c 128,-1,23
 465 517 465 517 390 518 c 257,0,-1
726 808 m 257,24,-1
 726 676 l 257,25,-1
 0 676 l 257,26,-1
 0 808 l 257,27,-1
 726 808 l 257,24,-1
EndSplineSet
EndChar

StartChar: underscore
Encoding: 95 95 1164
GlifName: underscore
Width: 644
VWidth: 0
Flags: W
LayerCount: 2
Fore
SplineSet
594 201 m 257,0,-1
 594 49 l 257,1,-1
 50 49 l 257,2,-1
 50 201 l 257,3,-1
 594 201 l 257,0,-1
EndSplineSet
EndChar

StartChar: uni0237
Encoding: 567 567 1245
GlifName: uni0237
Width: 419
VWidth: 0
Flags: W
LayerCount: 2
Fore
SplineSet
50 -190 m 257,0,-1
 50 -22 l 257,1,2
 81 -48 81 -48 121 -48 c 257,3,4
 170 -48 170 -48 202 -11 c 257,5,-1
 202 522 l 257,6,-1
 369 522 l 257,7,-1
 366 -12 l 257,8,9
 342 -95 342 -95 275 -147 c 128,-1,10
 208 -199 208 -199 121 -199 c 257,11,12
 84 -199 84 -199 50 -190 c 257,0,-1
EndSplineSet
EndChar

StartChar: uni0302
Encoding: 770 770 1249
GlifName: uni0302
Width: 0
VWidth: 0
Flags: W
LayerCount: 2
Fore
SplineSet
-100 771 m 257,0,-1
 -29 939 l 257,1,-1
 -28 939 l 257,2,-1
 47 939 l 257,3,-1
 48 939 l 257,4,-1
 100 771 l 257,5,-1
 24 771 l 257,6,-1
 4 879 l 257,7,-1
 -24 771 l 257,8,-1
 -100 771 l 257,0,-1
EndSplineSet
EndChar

StartChar: uni0304
Encoding: 772 772 1253
GlifName: uni0304
Width: 0
VWidth: 0
Flags: W
LayerCount: 2
Fore
SplineSet
136 863 m 257,0,-1
 136 787 l 257,1,-1
 -136 787 l 257,2,-1
 -136 863 l 257,3,-1
 136 863 l 257,0,-1
EndSplineSet
EndChar

StartChar: uni0306
Encoding: 774 774 1257
GlifName: uni0306
Width: 0
VWidth: 0
Flags: W
LayerCount: 2
Fore
SplineSet
128 937 m 257,0,-1
 128 923 l 257,1,2
 128 870 128 870 91 832.5 c 128,-1,3
 54 795 54 795 0 795 c 257,4,5
 -54 795 -54 795 -91 832 c 128,-1,6
 -128 869 -128 869 -128 923 c 257,7,-1
 -128 937 l 257,8,-1
 -52 937 l 257,9,10
 -54 929 -54 929 -54 923 c 257,11,12
 -54 901 -54 901 -38 885 c 128,-1,13
 -22 869 -22 869 0.5 869 c 128,-1,14
 23 869 23 869 38.5 885 c 128,-1,15
 54 901 54 901 54 923 c 257,16,17
 54 929 54 929 52 937 c 257,18,-1
 128 937 l 257,0,-1
EndSplineSet
EndChar

StartChar: uni0307
Encoding: 775 775 1261
GlifName: uni0307
Width: 0
VWidth: 0
Flags: W
LayerCount: 2
Fore
SplineSet
-76 503 m 257,0,-1
 -76 645 l 257,1,-1
 76 645 l 257,2,-1
 76 503 l 257,3,-1
 -76 503 l 257,0,-1
EndSplineSet
EndChar

StartChar: uni0308
Encoding: 776 776 1265
GlifName: uni0308
Width: 0
VWidth: 0
Flags: W
LayerCount: 2
Fore
SplineSet
-176 503 m 257,0,-1
 -176 645 l 257,1,-1
 -24 645 l 257,2,-1
 -24 503 l 257,3,-1
 -176 503 l 257,0,-1
24 503 m 257,4,-1
 24 645 l 257,5,-1
 176 645 l 257,6,-1
 176 503 l 257,7,-1
 24 503 l 257,4,-1
EndSplineSet
EndChar

StartChar: uni030A
Encoding: 778 778 1269
GlifName: uni030A_
Width: 0
VWidth: 0
Flags: W
LayerCount: 2
Fore
SplineSet
-12 617 m 257,0,-1
 -12 618 l 256,1,-1
 -12 618 l 257,2,3
 -31 614 -31 614 -42.5 599.5 c 128,-1,4
 -54 585 -54 585 -54 565 c 257,5,6
 -54 546 -54 546 -42.5 531.5 c 128,-1,7
 -31 517 -31 517 -12 513 c 257,8,-1
 -12 514 l 257,9,10
 -4 512 -4 512 0 512 c 128,-1,11
 4 512 4 512 12 514 c 257,12,-1
 12 513 l 257,13,14
 31 517 31 517 42.5 531.5 c 128,-1,15
 54 546 54 546 54 565 c 257,16,17
 54 585 54 585 42.5 599.5 c 128,-1,18
 31 614 31 614 12 618 c 257,19,-1
 12 617 l 257,20,21
 4 619 4 619 0 619 c 128,-1,22
 -4 619 -4 619 -12 617 c 257,0,-1
  PathStart: -2
-1 437 m 257,23,-1
 -3 437 l 257,24,-1
 -10 437 l 257,25,26
 -61 441 -61 441 -95.5 477.5 c 128,-1,27
 -130 514 -130 514 -130 565 c 128,-1,28
 -130 616 -130 616 -95 653 c 128,-1,29
 -60 690 -60 690 -10 694 c 257,30,-1
 -3 694 l 257,31,-1
 -1 694 l 257,32,-1
 1 694 l 257,33,34
 55 694 55 694 92.5 656.5 c 128,-1,35
 130 619 130 619 130 565 c 257,36,37
 130 512 130 512 92.5 474.5 c 128,-1,38
 55 437 55 437 1 437 c 257,39,-1
 -1 437 l 257,23,-1
EndSplineSet
EndChar

StartChar: uni030B
Encoding: 779 779 1273
GlifName: uni030B_
Width: 0
VWidth: 0
Flags: W
LayerCount: 2
Fore
SplineSet
-180 521 m 257,0,-1
 -288 628 l 257,1,-1
 -106 810 l 257,2,-1
 2 703 l 257,3,-1
 -180 521 l 257,0,-1
106 519 m 257,4,-1
 -2 626 l 257,5,-1
 180 808 l 257,6,-1
 288 701 l 257,7,-1
 106 519 l 257,4,-1
EndSplineSet
EndChar

StartChar: uni030C
Encoding: 780 780 1277
GlifName: uni030C_
Width: 0
VWidth: 0
Flags: W
LayerCount: 2
Fore
SplineSet
-100 939 m 257,0,-1
 -24 939 l 257,1,-1
 4 831 l 257,2,-1
 24 939 l 257,3,-1
 100 939 l 257,4,-1
 48 771 l 257,5,-1
 47 771 l 257,6,-1
 -28 771 l 257,7,-1
 -29 771 l 257,8,-1
 -100 939 l 257,0,-1
EndSplineSet
EndChar

StartChar: uni030F
Encoding: 783 783 1281
GlifName: uni030F_
Width: 0
VWidth: 0
Flags: W
LayerCount: 2
Fore
SplineSet
180 521 m 257,0,-1
 -2 703 l 257,1,-1
 106 810 l 257,2,-1
 288 628 l 257,3,-1
 180 521 l 257,0,-1
-106 519 m 257,4,-1
 -288 701 l 257,5,-1
 -180 808 l 257,6,-1
 2 626 l 257,7,-1
 -106 519 l 257,4,-1
EndSplineSet
EndChar

StartChar: uni0312
Encoding: 786 786 1285
GlifName: uni0312
Width: 0
VWidth: 0
Flags: W
LayerCount: 2
Fore
SplineSet
76 413 m 257,0,-1
 76 271 l 257,1,-1
 -76 271 l 257,2,-1
 -76 413 l 257,3,-1
 -16 545 l 257,4,-1
 42 541 l 257,5,-1
 33 413 l 257,6,-1
 76 413 l 257,0,-1
EndSplineSet
EndChar

StartChar: uni0313
Encoding: 787 787 1289
GlifName: uni0313
Width: 0
VWidth: 0
Flags: W
LayerCount: 2
Fore
SplineSet
-76 403 m 257,0,-1
 -76 545 l 257,1,-1
 76 545 l 257,2,-1
 76 403 l 257,3,-1
 16 271 l 257,4,-1
 -42 275 l 257,5,-1
 -33 403 l 257,6,-1
 -76 403 l 257,0,-1
EndSplineSet
EndChar

StartChar: uni0326
Encoding: 806 806 1293
GlifName: uni0326
Width: 0
VWidth: 0
LayerCount: 2
Fore
SplineSet
-126 103 m 257,0,-1
 -126 245 l 257,1,-1
 26 245 l 257,2,-1
 26 103 l 257,3,-1
 -34 -29 l 257,4,-1
 -92 -25 l 257,5,-1
 -83 103 l 257,6,-1
 -126 103 l 257,0,-1
EndSplineSet
EndChar

StartChar: uni0327
Encoding: 807 807 1297
GlifName: uni0327
Width: 0
VWidth: 0
LayerCount: 2
Fore
SplineSet
-121 -63 m 257,0,-1
 -121 14 l 257,1,2
 -113 12 -113 12 -108 12 c 257,3,4
 -85 12 -85 12 -69.5 27.5 c 128,-1,5
 -54 43 -54 43 -54 65 c 128,-1,6
 -54 87 -54 87 -70 103 c 128,-1,7
 -86 119 -86 119 -108 119 c 257,8,9
 -113 119 -113 119 -121 117 c 257,10,-1
 -121 194 l 257,11,-1
 -108 194 l 257,12,13
 -54 194 -54 194 -16.5 156.5 c 128,-1,14
 21 119 21 119 21 65 c 257,15,16
 21 12 21 12 -16.5 -25.5 c 128,-1,17
 -54 -63 -54 -63 -108 -63 c 257,18,-1
 -121 -63 l 257,0,-1
EndSplineSet
EndChar

StartChar: uni0328
Encoding: 808 808 1301
GlifName: uni0328
Width: 0
VWidth: 0
LayerCount: 2
Fore
SplineSet
21 -63 m 257,0,-1
 8 -63 l 257,1,2
 -46 -63 -46 -63 -83.5 -25.5 c 128,-1,3
 -121 12 -121 12 -121 65 c 257,4,5
 -121 119 -121 119 -83.5 156.5 c 128,-1,6
 -46 194 -46 194 8 194 c 257,7,-1
 21 194 l 257,8,-1
 21 117 l 257,9,10
 13 119 13 119 8 119 c 257,11,12
 -14 119 -14 119 -30 103 c 128,-1,13
 -46 87 -46 87 -46 65 c 128,-1,14
 -46 43 -46 43 -30.5 27.5 c 128,-1,15
 -15 12 -15 12 8 12 c 257,16,17
 13 12 13 12 21 14 c 257,18,-1
 21 -63 l 257,0,-1
EndSplineSet
EndChar

StartChar: u0964
Encoding: 2404 2404 1305
GlifName: u0964
Width: 252
VWidth: 0
Flags: W
LayerCount: 2
Fore
SplineSet
202 375 m 257,0,-1
 202 -25 l 257,1,-1
 50 -25 l 257,2,-1
 50 375 l 257,3,-1
 202 375 l 257,0,-1
EndSplineSet
EndChar

StartChar: u0980
Encoding: 2432 2432 1313
GlifName: u0980
Width: 534
VWidth: 0
Flags: W
LayerCount: 2
Fore
SplineSet
210 348 m 257,0,-1
 210 270 l 257,1,2
 107 270 107 270 53.5 342.5 c 128,-1,3
 0 415 0 415 0 528 c 257,4,5
 0 635 0 635 75.5 710 c 128,-1,6
 151 785 151 785 258 785 c 257,7,-1
 264 785 l 257,8,9
 270 785 270 785 276.5 785.5 c 128,-1,10
 283 786 283 786 293.5 785.5 c 128,-1,11
 304 785 304 785 314 784 c 128,-1,12
 324 783 324 783 335.5 781 c 128,-1,13
 347 779 347 779 357 776 c 128,-1,14
 367 773 367 773 377 768 c 128,-1,15
 387 763 387 763 395 757 c 257,16,17
 412 743 412 743 421.5 712.5 c 128,-1,18
 431 682 431 682 432 659 c 257,19,-1
 434 636 l 257,20,-1
 434 8 l 257,21,-1
 282 8 l 257,22,-1
 282 271 l 257,23,24
 280 271 280 271 281 302.5 c 128,-1,25
 282 334 282 334 284 361.5 c 128,-1,26
 286 389 286 389 283 393 c 257,27,-1
 282 424 l 257,28,-1
 282 631 l 257,29,30
 270 634 270 634 258 634 c 257,31,32
 213 634 213 634 182 603 c 128,-1,33
 151 572 151 572 151 528 c 257,34,35
 151 503 151 503 151.5 493 c 128,-1,36
 152 483 152 483 154.5 465.5 c 128,-1,37
 157 448 157 448 163 440.5 c 128,-1,38
 169 433 169 433 181 427 c 128,-1,39
 193 421 193 421 210 421 c 257,40,-1
 210 402 l 257,41,42
 210 383 210 383 209.5 367 c 128,-1,43
 209 351 209 351 210 348 c 257,0,-1
EndSplineSet
EndChar

StartChar: u0981
Encoding: 2433 2433 1317
GlifName: u0981
Width: 0
VWidth: 0
LayerCount: 2
Fore
SplineSet
-61 663 m 257,0,-1
 -61 777 l 257,1,-1
 61 777 l 257,2,-1
 61 663 l 257,3,-1
 -61 663 l 257,0,-1
193 624 m 257,4,-1
 193 605 l 257,5,6
 193 524 193 524 137 467.5 c 128,-1,7
 81 411 81 411 1 411 c 257,8,9
 -80 411 -80 411 -136.5 467.5 c 128,-1,10
 -193 524 -193 524 -193 605 c 257,11,-1
 -193 624 l 257,12,-1
 -77 624 l 257,13,14
 -80 615 -80 615 -80 605 c 257,15,16
 -80 571 -80 571 -56.5 547.5 c 128,-1,17
 -33 524 -33 524 1 524 c 128,-1,18
 35 524 35 524 57.5 547.5 c 128,-1,19
 80 571 80 571 80 605 c 257,20,21
 80 615 80 615 77 624 c 257,22,-1
 193 624 l 257,4,-1
EndSplineSet
EndChar

StartChar: u0982
Encoding: 2434 2434 1321
GlifName: u0982
Width: 445
VWidth: 0
Flags: W
LayerCount: 2
Fore
SplineSet
159 432 m 257,0,-1
 392 74 l 257,1,-1
 286 13 l 257,2,-1
 53 371 l 257,3,-1
 159 432 l 257,0,-1
194 668 m 257,4,-1
 194 669 l 256,5,-1
 194 669 l 257,6,7
 175 665 175 665 163.5 650.5 c 128,-1,8
 152 636 152 636 152 616 c 257,9,10
 152 597 152 597 163.5 582.5 c 128,-1,11
 175 568 175 568 194 564 c 257,12,-1
 194 565 l 257,13,14
 202 563 202 563 206 563 c 128,-1,15
 210 563 210 563 218 565 c 257,16,-1
 218 564 l 257,17,18
 237 568 237 568 248.5 582.5 c 128,-1,19
 260 597 260 597 260 616 c 257,20,21
 260 636 260 636 248.5 650.5 c 128,-1,22
 237 665 237 665 218 669 c 257,23,-1
 218 668 l 257,24,25
 210 670 210 670 206 670 c 128,-1,26
 202 670 202 670 194 668 c 257,4,-1
  PathStart: -2
205 488 m 257,27,-1
 203 488 l 257,28,-1
 196 488 l 257,29,30
 145 492 145 492 110.5 528.5 c 128,-1,31
 76 565 76 565 76 616 c 128,-1,32
 76 667 76 667 111 704 c 128,-1,33
 146 741 146 741 196 745 c 257,34,-1
 203 745 l 257,35,-1
 205 745 l 257,36,-1
 207 745 l 257,37,38
 261 745 261 745 298.5 707.5 c 128,-1,39
 336 670 336 670 336 616 c 257,40,41
 336 563 336 563 298.5 525.5 c 128,-1,42
 261 488 261 488 207 488 c 257,43,-1
 205 488 l 257,27,-1
EndSplineSet
EndChar

StartChar: u0983
Encoding: 2435 2435 1325
GlifName: u0983
Width: 445
VWidth: 0
Flags: W
LayerCount: 2
Fore
SplineSet
210.5 668 m 257,0,-1
 210.5 669 l 256,1,-1
 210.5 669 l 257,2,3
 191.5 665 191.5 665 180 650.5 c 128,-1,4
 168.5 636 168.5 636 168.5 616 c 257,5,6
 168.5 597 168.5 597 180 582.5 c 128,-1,7
 191.5 568 191.5 568 210.5 564 c 257,8,-1
 210.5 565 l 257,9,10
 218.5 563 218.5 563 222.5 563 c 128,-1,11
 226.5 563 226.5 563 234.5 565 c 257,12,-1
 234.5 564 l 257,13,14
 253.5 568 253.5 568 265 582.5 c 128,-1,15
 276.5 597 276.5 597 276.5 616 c 257,16,17
 276.5 636 276.5 636 265 650.5 c 128,-1,18
 253.5 665 253.5 665 234.5 669 c 257,19,-1
 234.5 668 l 257,20,21
 226.5 670 226.5 670 222.5 670 c 128,-1,22
 218.5 670 218.5 670 210.5 668 c 257,0,-1
  PathStart: -2
221.5 488 m 257,23,-1
 219.5 488 l 257,24,-1
 212.5 488 l 257,25,26
 161.5 492 161.5 492 127 528.5 c 128,-1,27
 92.5 565 92.5 565 92.5 616 c 128,-1,28
 92.5 667 92.5 667 127.5 704 c 128,-1,29
 162.5 741 162.5 741 212.5 745 c 257,30,-1
 219.5 745 l 257,31,-1
 221.5 745 l 257,32,-1
 223.5 745 l 257,33,34
 277.5 745 277.5 745 315 707.5 c 128,-1,35
 352.5 670 352.5 670 352.5 616 c 257,36,37
 352.5 563 352.5 563 315 525.5 c 128,-1,38
 277.5 488 277.5 488 223.5 488 c 257,39,-1
 221.5 488 l 257,23,-1
210.5 268 m 257,40,-1
 210.5 269 l 256,41,-1
 210.5 269 l 257,42,43
 191.5 265 191.5 265 180 250.5 c 128,-1,44
 168.5 236 168.5 236 168.5 216 c 257,45,46
 168.5 197 168.5 197 180 182.5 c 128,-1,47
 191.5 168 191.5 168 210.5 164 c 257,48,-1
 210.5 165 l 257,49,50
 218.5 163 218.5 163 222.5 163 c 128,-1,51
 226.5 163 226.5 163 234.5 165 c 257,52,-1
 234.5 164 l 257,53,54
 253.5 168 253.5 168 265 182.5 c 128,-1,55
 276.5 197 276.5 197 276.5 216 c 257,56,57
 276.5 236 276.5 236 265 250.5 c 128,-1,58
 253.5 265 253.5 265 234.5 269 c 257,59,-1
 234.5 268 l 257,60,61
 226.5 270 226.5 270 222.5 270 c 128,-1,62
 218.5 270 218.5 270 210.5 268 c 257,40,-1
  PathStart: -2
221.5 88 m 257,63,-1
 219.5 88 l 257,64,-1
 212.5 88 l 257,65,66
 161.5 92 161.5 92 127 128.5 c 128,-1,67
 92.5 165 92.5 165 92.5 216 c 128,-1,68
 92.5 267 92.5 267 127.5 304 c 128,-1,69
 162.5 341 162.5 341 212.5 345 c 257,70,-1
 219.5 345 l 257,71,-1
 221.5 345 l 257,72,-1
 223.5 345 l 257,73,74
 277.5 345 277.5 345 315 307.5 c 128,-1,75
 352.5 270 352.5 270 352.5 216 c 257,76,77
 352.5 163 352.5 163 315 125.5 c 128,-1,78
 277.5 88 277.5 88 223.5 88 c 257,79,-1
 221.5 88 l 257,63,-1
EndSplineSet
EndChar

StartChar: u0985
Encoding: 2437 2437 1329
GlifName: u0985
Width: 946
VWidth: 0
Flags: W
LayerCount: 2
Fore
SplineSet
401 510 m 257,0,-1
 396 639 l 257,1,2
 397 639 397 639 398 639 c 257,3,4
 525 639 525 639 614.5 547 c 128,-1,5
 704 455 704 455 704 325 c 257,6,7
 704 306 704 306 701 288 c 257,8,-1
 773 216 l 257,9,-1
 773 676 l 257,10,-1
 0 676 l 257,11,-1
 0 808 l 257,12,-1
 946 808 l 257,13,-1
 946 676 l 257,14,-1
 925 676 l 257,15,-1
 925 5 l 257,16,-1
 773 5 l 257,17,-1
 771 3 l 257,18,-1
 641 133 l 257,19,20
 598 76 598 76 534.5 43 c 128,-1,21
 471 10 471 10 398 10 c 257,22,23
 271 10 271 10 181.5 102 c 128,-1,24
 92 194 92 194 92 325 c 257,25,-1
 153.5 326.5 l 2,26,27
 215 328 215 328 215 329 c 257,28,29
 215 326 215 326 215 323 c 257,30,31
 215 245 215 245 268.5 190 c 128,-1,32
 322 135 322 135 398 135 c 128,-1,33
 474 135 474 135 527.5 190 c 128,-1,34
 581 245 581 245 581 323 c 257,35,36
 581 400 581 400 528.5 454.5 c 128,-1,37
 476 509 476 509 401 510 c 257,0,-1
EndSplineSet
EndChar

StartChar: u0986
Encoding: 2438 2438 1333
GlifName: u0986
Width: 1261
VWidth: 0
Flags: W
LayerCount: 2
Fore
SplineSet
1061 855 m 257,0,-1
 1213 855 l 257,1,-1
 1213 808 l 257,2,-1
 1261 808 l 257,3,-1
 1261 676 l 257,4,-1
 1213 676 l 257,5,-1
 1213 3 l 257,6,-1
 1061 3 l 257,7,-1
 1061 494 l 257,8,-1
 1059 492 l 257,9,-1
 925 630 l 257,10,-1
 925 5 l 257,11,-1
 773 5 l 257,12,-1
 771 3 l 257,13,-1
 641 133 l 257,14,15
 598 76 598 76 534.5 43 c 128,-1,16
 471 10 471 10 398 10 c 257,17,18
 271 10 271 10 181.5 102 c 128,-1,19
 92 194 92 194 92 325 c 257,20,-1
 153.5 326.5 l 2,21,22
 215 328 215 328 215 329 c 257,23,24
 215 326 215 326 215 323 c 257,25,26
 215 245 215 245 268.5 190 c 128,-1,27
 322 135 322 135 398 135 c 128,-1,28
 474 135 474 135 527.5 190 c 128,-1,29
 581 245 581 245 581 323 c 257,30,31
 581 400 581 400 528.5 454.5 c 128,-1,32
 476 509 476 509 401 510 c 257,33,-1
 396 639 l 257,34,35
 397 639 397 639 398 639 c 257,36,37
 525 639 525 639 614.5 547 c 128,-1,38
 704 455 704 455 704 325 c 257,39,40
 704 306 704 306 701 288 c 257,41,-1
 773 216 l 257,42,-1
 773 676 l 257,43,-1
 0 676 l 257,44,-1
 0 805 l 257,45,-1
 754 805 l 257,46,-1
 946 805 l 257,47,-1
 955 805 l 257,48,-1
 1061 702 l 257,49,-1
 1061 855 l 257,0,-1
EndSplineSet
EndChar

StartChar: u0987
Encoding: 2439 2439 1337
GlifName: u0987
Width: 689
VWidth: 0
Flags: W
LayerCount: 2
Fore
SplineSet
689 808 m 257,0,-1
 689 676 l 257,1,-1
 0 676 l 257,2,-1
 0 808 l 257,3,-1
 333 808 l 257,4,5
 324 854 324 854 300 878 c 257,6,7
 268 909 268 909 237 940 c 257,8,9
 213 964 213 964 160.5 977.5 c 128,-1,10
 108 991 108 991 85 1015 c 257,11,12
 69 1030 69 1030 58.5 1060 c 128,-1,13
 48 1090 48 1090 46 1113 c 257,14,-1
 44 1135 l 257,15,-1
 132 1223 l 257,16,17
 133 1214 133 1214 135 1198.5 c 128,-1,18
 137 1183 137 1183 148.5 1149.5 c 128,-1,19
 160 1116 160 1116 176 1100 c 257,20,21
 198 1078 198 1078 249.5 1066 c 128,-1,22
 301 1054 301 1054 324 1032 c 257,23,-1
 394 961 l 257,24,25
 408 947 408 947 416.5 926.5 c 128,-1,26
 425 906 425 906 427 887 c 128,-1,27
 429 868 429 868 429 851 c 128,-1,28
 429 834 429 834 428 823.5 c 2,29,-1
 427 813 l 257,30,-1
 422 808 l 257,31,-1
 689 808 l 257,0,-1
236 477 m 257,32,-1
 128 583 l 257,33,34
 205 660 205 660 311.5 661 c 128,-1,35
 418 662 418 662 495 585 c 257,36,37
 571 508 571 508 570 402 c 128,-1,38
 569 296 569 296 492 219 c 257,39,40
 455 181 455 181 412 161 c 257,41,-1
 593 4 l 257,42,-1
 434 4 l 257,43,-1
 226 158 l 257,44,45
 173 180 173 180 131 222 c 257,46,-1
 233 325 l 257,47,-1
 234 324 l 257,48,49
 266 292 266 292 309 292.5 c 128,-1,50
 352 293 352 293 386 326 c 257,51,52
 419 360 419 360 419.5 403 c 128,-1,53
 420 446 420 446 388 478 c 257,54,55
 356 510 356 510 313 510 c 128,-1,56
 270 510 270 510 236 477 c 257,32,-1
EndSplineSet
EndChar

StartChar: u0988
Encoding: 2440 2440 1341
GlifName: u0988
Width: 1077
VWidth: 0
Flags: W
LayerCount: 2
Fore
SplineSet
236 477 m 257,0,-1
 128 583 l 257,1,2
 205 660 205 660 311.5 661 c 128,-1,3
 418 662 418 662 495 585 c 257,4,5
 542 538 542 538 560 475 c 257,6,-1
 639 540 l 257,7,8
 654 564 654 564 675 585 c 257,9,10
 715 625 715 625 768 645 c 257,11,-1
 778 653 l 257,12,-1
 777 648 l 257,13,14
 843 671 843 671 915.5 654 c 128,-1,15
 988 637 988 637 1042 583 c 257,16,-1
 934 477 l 257,17,18
 900 510 900 510 857 510 c 128,-1,19
 814 510 814 510 782 478 c 257,20,21
 750 446 750 446 750.5 403 c 128,-1,22
 751 360 751 360 784 326 c 257,23,24
 818 293 818 293 861 292.5 c 128,-1,25
 904 292 904 292 936 324 c 257,26,-1
 937 325 l 257,27,-1
 1039 222 l 257,28,29
 992 174 992 174 932.5 152.5 c 128,-1,30
 873 131 873 131 804 146 c 128,-1,31
 735 161 735 161 678 219 c 257,32,33
 624 273 624 273 607 346 c 257,34,-1
 534 270 l 257,35,-1
 533 271 l 257,36,37
 516 242 516 242 492 219 c 257,38,39
 435 161 435 161 366 146 c 128,-1,40
 297 131 297 131 237.5 152.5 c 128,-1,41
 178 174 178 174 131 222 c 257,42,-1
 233 325 l 257,43,-1
 234 324 l 257,44,45
 266 292 266 292 309 292.5 c 128,-1,46
 352 293 352 293 386 326 c 257,47,48
 390 330 390 330 393 334 c 257,49,-1
 389 336 l 257,50,-1
 403 347 l 257,51,52
 423 379 423 379 419 415 c 128,-1,53
 415 451 415 451 388 478 c 257,54,55
 356 510 356 510 313 510 c 128,-1,56
 270 510 270 510 236 477 c 257,0,-1
1077 808 m 257,57,-1
 1077 676 l 257,58,-1
 0 676 l 257,59,-1
 0 808 l 257,60,-1
 538 808 l 257,61,62
 529 854 529 854 505 878 c 257,63,64
 473 909 473 909 442 940 c 257,65,66
 418 964 418 964 365.5 977.5 c 128,-1,67
 313 991 313 991 290 1015 c 257,68,69
 274 1030 274 1030 263.5 1060 c 128,-1,70
 253 1090 253 1090 251 1113 c 257,71,-1
 249 1135 l 257,72,-1
 337 1223 l 257,73,74
 338 1214 338 1214 340 1198.5 c 128,-1,75
 342 1183 342 1183 353.5 1149.5 c 128,-1,76
 365 1116 365 1116 381 1100 c 257,77,78
 403 1078 403 1078 454.5 1066 c 128,-1,79
 506 1054 506 1054 529 1032 c 257,80,-1
 599 961 l 257,81,82
 613 947 613 947 621.5 926.5 c 128,-1,83
 630 906 630 906 632 887 c 128,-1,84
 634 868 634 868 634 851 c 128,-1,85
 634 834 634 834 633 823.5 c 2,86,-1
 632 813 l 257,87,-1
 627 808 l 257,88,-1
 1077 808 l 257,57,-1
EndSplineSet
EndChar

StartChar: u0989
Encoding: 2441 2441 1345
GlifName: u0989
Width: 616
VWidth: 0
Flags: W
LayerCount: 2
Fore
SplineSet
616 808 m 257,0,-1
 616 676 l 257,1,-1
 441 676 l 257,2,-1
 441 489 l 257,3,4
 501 455 501 455 536.5 395.5 c 128,-1,5
 572 336 572 336 570 265 c 257,6,7
 567 156 567 156 492 82 c 128,-1,8
 417 8 417 8 309 8 c 257,9,10
 247 8 247 8 198 30 c 128,-1,11
 149 52 149 52 118.5 89 c 128,-1,12
 88 126 88 126 72 171.5 c 128,-1,13
 56 217 56 217 56 266 c 257,14,-1
 201 266 l 257,15,-1
 201 265 l 257,16,17
 201 220 201 220 232 190 c 128,-1,18
 263 160 263 160 310 159 c 257,19,20
 357 160 357 160 388 190 c 128,-1,21
 419 220 419 220 419 265 c 257,22,23
 419 307 419 307 392.5 336.5 c 128,-1,24
 366 366 366 366 324 371 c 257,25,-1
 309 371 l 257,26,-1
 309 523 l 257,27,-1
 309 523 l 257,28,-1
 309 676 l 257,29,-1
 0 676 l 257,30,-1
 0 808 l 257,31,-1
 299 808 l 257,32,33
 289 855 289 855 265 880 c 257,34,35
 234 911 234 911 202 943 c 257,36,37
 178 966 178 966 125.5 980 c 128,-1,38
 73 994 73 994 50 1017 c 257,39,40
 34 1033 34 1033 24 1063 c 128,-1,41
 14 1093 14 1093 11 1115 c 257,42,-1
 9 1137 l 257,43,-1
 97 1225 l 257,44,45
 98 1216 98 1216 100.5 1200.5 c 128,-1,46
 103 1185 103 1185 114 1151.5 c 128,-1,47
 125 1118 125 1118 141 1102 c 257,48,49
 164 1080 164 1080 215 1068 c 128,-1,50
 266 1056 266 1056 289 1034 c 258,51,-1
 359 963 l 258,52,53
 373 949 373 949 381.5 928.5 c 128,-1,54
 390 908 390 908 392 889 c 0,55,56
 394.357421875 866.599609375 394.357421875 866.599609375 394 853 c 2,57,-1
 393 815 l 284,58,-1
 385 808 l 257,59,-1
 616 808 l 257,0,-1
EndSplineSet
EndChar

StartChar: u098A
Encoding: 2442 2442 1349
GlifName: u098A_
Width: 616
VWidth: 0
Flags: W
LayerCount: 2
Fore
SplineSet
616 808 m 1,0,-1
 616 676 l 1,1,-1
 441 676 l 1,2,-1
 441 489 l 1,3,4
 501 455 501 455 536.5 395.5 c 128,-1,5
 572 336 572 336 570 265 c 0,6,7
 567 156 567 156 492 82 c 0,8,9
 418 9 418 9 311.395507812 8.0087890625 c 1,10,-1
 172 -45 l 24,11,-1
 8 4 l 5,12,-1
 20 125 l 5,13,-1
 131.375 74.8642578125 l 1,14,15
 125 82 125 82 118.5 89 c 0,16,17
 88 126 88 126 72 171.5 c 128,-1,18
 56 217 56 217 56 266 c 1,19,-1
 201 266 l 1,20,-1
 201 265 l 2,21,22
 201 220 201 220 232 190 c 0,23,24
 265 158 265 158 310 159 c 0,25,26
 357 160 357 160 388 190 c 128,-1,27
 419 220 419 220 419 265 c 0,28,29
 419 307 419 307 392.5 336.5 c 128,-1,30
 366 366 366 366 324 371 c 1,31,-1
 309 371 l 1,32,-1
 309 523 l 1,33,-1
 309 676 l 1,34,-1
 0 676 l 1,35,-1
 0 808 l 1,36,-1
 299 808 l 1,37,38
 289 855 289 855 265 880 c 0,39,40
 234 911 234 911 202 943 c 0,41,42
 178 966 178 966 125.5 980 c 128,-1,43
 73 994 73 994 50 1017 c 0,44,45
 34 1033 34 1033 24 1063 c 0,46,47
 12.494140625 1098.56347656 12.494140625 1098.56347656 11 1115 c 2,48,-1
 9 1137 l 1,49,-1
 97 1225 l 1,50,51
 98 1216 98 1216 100.5 1200.5 c 128,-1,52
 103 1185 103 1185 114 1151.5 c 128,-1,53
 125 1118 125 1118 141 1102 c 0,54,55
 164 1080 164 1080 215 1068 c 0,56,57
 267.401367188 1055.90722656 267.401367188 1055.90722656 289 1034 c 2,58,-1
 359 963 l 2,59,60
 373 949 373 949 381.5 928.5 c 128,-1,61
 390 908 390 908 392 889 c 128,-1,62
 394 870 394 870 394 853 c 128,-1,63
 394 836 394 836 393 825.5 c 128,-1,64
 392 815 392 815 393 815 c 1,65,-1
 385 808 l 1,66,-1
 616 808 l 1,0,-1
EndSplineSet
EndChar

StartChar: u098B
Encoding: 2443 2443 1351
GlifName: u098B_
Width: 1344
VWidth: 0
Flags: W
LayerCount: 2
Fore
SplineSet
897 782 m 257,0,-1
 1043 782 l 257,1,-1
 1043 291 l 257,2,-1
 1117 216 l 257,3,-1
 1117 781 l 257,4,-1
 1119 781 l 257,5,-1
 1119 800 l 257,6,-1
 1319 800 l 257,7,-1
 1319 668 l 257,8,-1
 1269 668 l 257,9,-1
 1269 5 l 257,10,-1
 1118 5 l 257,11,-1
 1115 3 l 257,12,-1
 1043 75 l 257,13,-1
 1043 6 l 257,14,-1
 897 6 l 257,15,-1
 896 6 l 257,16,-1
 443 185 l 257,17,-1
 443 337 l 257,18,-1
 690 567 l 257,19,-1
 700 634 l 257,20,21
 680 577 680 577 630.5 541 c 128,-1,22
 581 505 581 505 519 505 c 257,23,24
 474 505 474 505 434.5 524 c 128,-1,25
 395 543 395 543 368 576 c 257,26,27
 341 543 341 543 302 524 c 128,-1,28
 263 505 263 505 219 505 c 257,29,30
 138 505 138 505 81.5 561.5 c 128,-1,31
 25 618 25 618 25 699 c 257,32,-1
 25 718 l 257,33,-1
 141 718 l 257,34,35
 138 709 138 709 138 699 c 257,36,37
 138 665 138 665 161.5 641.5 c 128,-1,38
 185 618 185 618 219 618 c 128,-1,39
 253 618 253 618 275.5 641.5 c 128,-1,40
 298 665 298 665 298 699 c 257,41,42
 298 709 298 709 295 718 c 257,43,-1
 325 718 l 257,44,-1
 411 718 l 257,45,-1
 441 718 l 257,46,47
 438 709 438 709 438 699 c 257,48,49
 438 665 438 665 461.5 641.5 c 128,-1,50
 485 618 485 618 519 618 c 128,-1,51
 553 618 553 618 575.5 641.5 c 128,-1,52
 598 665 598 665 598 699 c 257,53,54
 598 709 598 709 595 718 c 257,55,-1
 711 718 l 257,56,-1
 711 706 l 257,57,-1
 713 719 l 257,58,-1
 897 719 l 257,59,-1
 897 782 l 257,0,-1
896 165 m 257,60,-1
 896 714 l 257,61,-1
 729 449 l 257,62,-1
 728 450 l 257,63,-1
 587 279 l 257,64,-1
 896 165 l 257,60,-1
EndSplineSet
EndChar

StartChar: u098B.0
Encoding: 66547 -1 1352
GlifName: u098B_.0
Width: 1344
VWidth: 0
Flags: W
LayerCount: 2
Fore
SplineSet
872 792 m 257,0,-1
 872 729 l 257,1,-1
 688 729 l 257,2,-1
 686 716 l 257,3,-1
 686 728 l 257,4,-1
 570 728 l 257,5,6
 573 719 573 719 573 709 c 257,7,8
 573 675 573 675 551 652 c 257,9,10
 528 628 528 628 494 628 c 257,11,12
 460 628 460 628 437 652 c 257,13,14
 413 675 413 675 413 709 c 257,15,16
 413 719 413 719 416 728 c 257,17,-1
 386 728 l 257,18,-1
 300 728 l 257,19,-1
 270 728 l 257,20,21
 273 719 273 719 273 709 c 257,22,23
 273 675 273 675 251 652 c 257,24,25
 228 628 228 628 194 628 c 257,26,27
 160 628 160 628 137 652 c 257,28,29
 113 675 113 675 113 709 c 257,30,31
 113 719 113 719 116 728 c 257,32,-1
 0 728 l 257,33,-1
 0 709 l 257,34,35
 0 628 0 628 57 572 c 257,36,37
 113 515 113 515 194 515 c 257,38,39
 238 515 238 515 277 534 c 257,40,41
 316 553 316 553 343 586 c 257,42,43
 370 553 370 553 410 534 c 257,44,45
 449 515 449 515 494 515 c 257,46,47
 556 515 556 515 606 551 c 257,48,49
 655 587 655 587 675 644 c 257,50,-1
 665 577 l 257,51,-1
 418 347 l 257,52,-1
 418 195 l 257,53,-1
 871 16 l 257,54,-1
 872 16 l 257,55,-1
 1018 16 l 257,56,-1
 1018 85 l 257,57,-1
 1090 13 l 257,58,-1
 1093 15 l 257,59,-1
 1244 15 l 257,60,-1
 1244 678 l 257,61,-1
 1294 678 l 257,62,-1
 1294 810 l 257,63,-1
 1094 810 l 257,64,-1
 1094 791 l 257,65,-1
 1092 791 l 257,66,-1
 1092 226 l 257,67,-1
 1018 301 l 257,68,-1
 1018 792 l 257,69,-1
 872 792 l 257,0,-1
871 175 m 257,70,-1
 562 289 l 257,71,-1
 703 460 l 257,72,-1
 704 459 l 257,73,-1
 871 724 l 257,74,-1
 871 175 l 257,70,-1
EndSplineSet
EndChar

StartChar: u098C
Encoding: 2444 2444 1355
GlifName: u098C_
Width: 779
VWidth: 0
Flags: W
LayerCount: 2
Fore
SplineSet
103.603515625 109 m 257,0,1
 102.603515625 122 102.603515625 122 102.603515625 135 c 257,2,3
 102.603515625 242 102.603515625 242 177.603515625 317.5 c 128,-1,4
 252.603515625 393 252.603515625 393 359.603515625 393 c 257,5,6
 429.603515625 393 429.603515625 393 488.603515625 358.5 c 128,-1,7
 547.603515625 324 547.603515625 324 581.603515625 266 c 257,8,9
 595.603515625 325 595.603515625 325 579.603515625 384 c 128,-1,10
 563.603515625 443 563.603515625 443 518.603515625 488 c 257,11,12
 449.603515625 557 449.603515625 557 353.603515625 558.5 c 128,-1,13
 257.603515625 560 257.603515625 560 190.603515625 492 c 257,14,15
 163.603515625 466 163.603515625 466 147.603515625 432 c 257,16,-1
 32.603515625 547 l 257,17,18
 53.603515625 577 53.603515625 577 79.603515625 603 c 257,19,20
 152.603515625 677 152.603515625 677 252.103515625 702 c 128,-1,21
 351.603515625 727 351.603515625 727 452.103515625 699 c 128,-1,22
 552.603515625 671 552.603515625 671 628.603515625 595 c 257,23,24
 703.603515625 519 703.603515625 519 731.603515625 419 c 128,-1,25
 759.603515625 319 759.603515625 319 734.603515625 219.5 c 128,-1,26
 709.603515625 120 709.603515625 120 635.603515625 47 c 257,27,28
 609.603515625 21 609.603515625 21 579.603515625 0 c 257,29,-1
 470.603515625 109 l 257,30,-1
 463.603515625 109 l 257,31,32
 463.603515625 112 463.603515625 112 464.603515625 115 c 257,33,-1
 461.603515625 118 l 257,34,35
 463.603515625 118 463.603515625 118 465.603515625 119 c 257,36,37
 466.603515625 127 466.603515625 127 466.603515625 135 c 257,38,39
 466.603515625 180 466.603515625 180 435.603515625 211 c 128,-1,40
 404.603515625 242 404.603515625 242 359.603515625 242 c 257,41,42
 315.603515625 242 315.603515625 242 284.603515625 211 c 128,-1,43
 253.603515625 180 253.603515625 180 253.603515625 135 c 257,44,45
 253.603515625 122 253.603515625 122 256.603515625 109 c 257,46,-1
 103.603515625 109 l 257,0,1
EndSplineSet
EndChar

StartChar: u098F
Encoding: 2447 2447 1359
GlifName: u098F_
Width: 697
VWidth: 0
Flags: W
LayerCount: 2
Fore
SplineSet
47.5 323 m 257,0,-1
 215.5 323 l 257,1,2
 189.5 292 189.5 292 189.5 253 c 257,3,4
 189.5 203 189.5 203 225.5 171 c 257,5,-1
 492.5 171 l 257,6,-1
 492.5 578 l 257,7,8
 460.5 615 460.5 615 411.5 615 c 257,9,10
 371.5 615 371.5 615 340.5 589 c 257,11,-1
 340.5 757 l 257,12,13
 374.5 766 374.5 766 411.5 766 c 257,14,15
 498.5 766 498.5 766 565.5 714 c 128,-1,16
 632.5 662 632.5 662 656.5 579 c 257,17,-1
 659.5 2 l 257,18,19
 586.5 1 586.5 1 443 4.5 c 128,-1,20
 299.5 8 299.5 8 225.5 7 c 257,21,22
 142.5 31 142.5 31 90 98.5 c 128,-1,23
 37.5 166 37.5 166 37.5 253 c 257,24,25
 37.5 290 37.5 290 47.5 323 c 257,0,-1
EndSplineSet
EndChar

StartChar: u0990
Encoding: 2448 2448 1363
GlifName: u0990
Width: 956
VWidth: 0
Flags: W
LayerCount: 2
Fore
SplineSet
325.663085938 757 m 257,0,1
 359.663085938 766 359.663085938 766 396.663085938 766 c 257,2,3
 483.663085938 766 483.663085938 766 550.663085938 714 c 128,-1,4
 617.663085938 662 617.663085938 662 641.663085938 579 c 257,5,-1
 642.663085938 444 l 257,6,7
 713.663085938 418 713.663085938 418 756.663085938 419 c 257,8,9
 786.663085938 419 786.663085938 419 795.663085938 458 c 257,10,11
 813.663085938 535 813.663085938 535 779.663085938 618.5 c 128,-1,12
 745.663085938 702 745.663085938 702 683.663085938 764 c 257,13,14
 659.663085938 788 659.663085938 788 607.163085938 801.5 c 128,-1,15
 554.663085938 815 554.663085938 815 531.663085938 839 c 257,16,17
 515.663085938 854 515.663085938 854 505.163085938 884 c 128,-1,18
 494.663085938 914 494.663085938 914 492.663085938 937 c 257,19,-1
 490.663085938 959 l 257,20,-1
 578.663085938 1047 l 257,21,22
 579.663085938 1038 579.663085938 1038 581.663085938 1022.5 c 128,-1,23
 583.663085938 1007 583.663085938 1007 595.163085938 973.5 c 128,-1,24
 606.663085938 940 606.663085938 940 622.663085938 924 c 257,25,26
 644.663085938 902 644.663085938 902 696.163085938 890 c 128,-1,27
 747.663085938 878 747.663085938 878 770.663085938 856 c 257,28,-1
 840.663085938 785 l 257,29,30
 856.663085938 769 856.663085938 769 876.163085938 726.5 c 128,-1,31
 895.663085938 684 895.663085938 684 910.663085938 627.5 c 128,-1,32
 925.663085938 571 925.663085938 571 931.663085938 515.5 c 128,-1,33
 937.663085938 460 937.663085938 460 922.163085938 413 c 128,-1,34
 906.663085938 366 906.663085938 366 867.663085938 347 c 257,35,36
 803.663085938 317 803.663085938 317 744.663085938 317 c 257,37,38
 706.663085938 317 706.663085938 317 642.663085938 336 c 257,39,-1
 644.663085938 2 l 257,40,41
 571.663085938 1 571.663085938 1 428.163085938 4.5 c 128,-1,42
 284.663085938 8 284.663085938 8 210.663085938 7 c 257,43,44
 127.663085938 31 127.663085938 31 75.1630859375 98.5 c 128,-1,45
 22.6630859375 166 22.6630859375 166 22.6630859375 253 c 257,46,47
 22.6630859375 290 22.6630859375 290 32.6630859375 323 c 257,48,-1
 200.663085938 323 l 257,49,50
 174.663085938 292 174.663085938 292 174.663085938 253 c 257,51,52
 174.663085938 203 174.663085938 203 210.663085938 171 c 257,53,-1
 477.663085938 171 l 257,54,-1
 477.663085938 578 l 257,55,56
 445.663085938 615 445.663085938 615 396.663085938 615 c 257,57,58
 356.663085938 615 356.663085938 615 325.663085938 589 c 257,59,-1
 325.663085938 757 l 257,0,1
EndSplineSet
EndChar

StartChar: u0993
Encoding: 2451 2451 1367
GlifName: u0993
Width: 616
VWidth: 0
Flags: W
LayerCount: 2
Fore
SplineSet
285 687 m 257,0,1
 237 684 237 684 223 681 c 257,2,3
 224 681 224 681 219 702 c 128,-1,4
 214 723 214 723 209 744 c 128,-1,5
 204 765 204 765 205 765 c 257,6,7
 209 765 209 765 229 775 c 128,-1,8
 249 785 249 785 277.5 797.5 c 128,-1,9
 306 810 306 810 329 813 c 257,10,11
 435 828 435 828 502.5 757 c 128,-1,12
 570 686 570 686 568 570 c 257,13,14
 566 483 566 483 518 418 c 257,15,16
 568 350 568 350 568 265 c 257,17,18
 568 158 568 158 492.5 83 c 128,-1,19
 417 8 417 8 310 8 c 257,20,21
 309 8 309 8 308 8 c 2,22,-1
 307 8 l 257,23,-1
 306 8 l 257,24,25
 304 8 304 8 302 8 c 257,26,27
 294 8 294 8 288 9 c 257,28,29
 187 15 187 15 117.5 89 c 128,-1,30
 48 163 48 163 48 265 c 257,31,32
 48 347 48 347 94 413 c 257,33,-1
 106 417 l 257,34,35
 207 389 207 389 210 388 c 257,36,37
 223 382 223 382 218 366 c 257,38,39
 202 318 202 318 200 290 c 257,40,41
 199 278 199 278 199 265 c 257,42,43
 199 220 199 220 230 190 c 128,-1,44
 261 160 261 160 308 159 c 257,45,46
 355 160 355 160 386 190 c 128,-1,47
 417 220 417 220 417 265 c 257,48,49
 417 304 417 304 393 333 c 128,-1,50
 369 362 369 362 332 370 c 257,51,-1
 332 369 l 257,52,-1
 308 464 l 257,53,54
 320 464 320 464 332 467 c 257,55,-1
 332 466 l 257,56,57
 369 474 369 474 393 503 c 128,-1,58
 417 532 417 532 417 570 c 257,59,60
 417 628 417 628 381 659 c 128,-1,61
 345 690 345 690 285 687 c 257,0,1
EndSplineSet
EndChar

StartChar: u0994
Encoding: 2452 2452 1371
GlifName: u0994
Width: 884
VWidth: 0
Flags: W
LayerCount: 2
Fore
SplineSet
285 687 m 257,0,1
 237 684 237 684 223 681 c 257,2,3
 224 681 224 681 219 702 c 128,-1,4
 214 723 214 723 209 744 c 128,-1,5
 204 765 204 765 205 765 c 257,6,7
 209 765 209 765 229 775 c 128,-1,8
 249 785 249 785 277.5 797.5 c 128,-1,9
 306 810 306 810 329 813 c 257,10,11
 435 828 435 828 502.5 757 c 128,-1,12
 570 686 570 686 568 570 c 257,13,14
 567 503 567 503 537 447 c 257,15,16
 613 418 613 418 660 419 c 257,17,18
 690 419 690 419 699 458 c 257,19,20
 717 535 717 535 683 618.5 c 128,-1,21
 649 702 649 702 587 764 c 257,22,23
 563 788 563 788 510.5 801.5 c 128,-1,24
 458 815 458 815 435 839 c 257,25,26
 419 854 419 854 408.5 884 c 128,-1,27
 398 914 398 914 396 937 c 257,28,-1
 394 959 l 257,29,-1
 482 1047 l 257,30,31
 483 1038 483 1038 485 1022.5 c 128,-1,32
 487 1007 487 1007 498.5 973.5 c 128,-1,33
 510 940 510 940 526 924 c 257,34,35
 548 902 548 902 599.5 890 c 128,-1,36
 651 878 651 878 674 856 c 257,37,-1
 744 785 l 257,38,39
 760 769 760 769 779.5 726.5 c 128,-1,40
 799 684 799 684 814 627.5 c 128,-1,41
 829 571 829 571 835 515.5 c 128,-1,42
 841 460 841 460 825.5 413 c 128,-1,43
 810 366 810 366 771 347 c 257,44,45
 707 317 707 317 648 317 c 257,46,47
 614 317 614 317 559 332 c 257,48,49
 568 299 568 299 568 265 c 257,50,51
 568 158 568 158 492.5 83 c 128,-1,52
 417 8 417 8 310 8 c 257,53,54
 309 8 309 8 308 8 c 2,55,-1
 307 8 l 257,56,-1
 306 8 l 257,57,58
 304 8 304 8 302 8 c 257,59,60
 294 8 294 8 288 9 c 257,61,62
 187 15 187 15 117.5 89 c 128,-1,63
 48 163 48 163 48 265 c 257,64,65
 48 347 48 347 94 413 c 257,66,-1
 106 417 l 257,67,68
 207 389 207 389 210 388 c 257,69,70
 223 382 223 382 218 366 c 257,71,72
 202 318 202 318 200 290 c 257,73,74
 199 278 199 278 199 265 c 257,75,76
 199 220 199 220 230 190 c 128,-1,77
 261 160 261 160 308 159 c 257,78,79
 355 160 355 160 386 190 c 128,-1,80
 417 220 417 220 417 265 c 257,81,82
 417 304 417 304 393 333 c 128,-1,83
 369 362 369 362 332 370 c 257,84,-1
 332 369 l 257,85,-1
 308 464 l 257,86,87
 320 464 320 464 332 467 c 257,88,-1
 332 466 l 257,89,90
 369 474 369 474 393 503 c 128,-1,91
 417 532 417 532 417 570 c 257,92,93
 417 628 417 628 381 659 c 128,-1,94
 345 690 345 690 285 687 c 257,0,1
EndSplineSet
EndChar

StartChar: u0995
Encoding: 2453 2453 1375
GlifName: u0995
Width: 1098
VWidth: 0
Flags: W
LayerCount: 2
Fore
SplineSet
1098 808 m 257,0,-1
 1098 676 l 257,1,-1
 670 676 l 257,2,-1
 670 483 l 257,3,4
 722 507 722 507 780 507 c 257,5,6
 888 507 888 507 963 432 c 128,-1,7
 1038 357 1038 357 1038 249 c 257,8,9
 1038 236 1038 236 1037 223 c 257,10,-1
 884 223 l 257,11,12
 888 236 888 236 888 249 c 257,13,14
 888 295 888 295 857 326 c 128,-1,15
 826 357 826 357 780 357 c 257,16,17
 736 357 736 357 705 325.5 c 128,-1,18
 674 294 674 294 674 249 c 257,19,20
 674 236 674 236 678 223 c 257,21,-1
 670 223 l 257,22,-1
 670 6 l 257,23,-1
 527 6 l 257,24,-1
 70 279 l 257,25,-1
 70 431 l 257,26,-1
 524 608 l 257,27,-1
 524 676 l 257,28,-1
 0 676 l 257,29,-1
 0 808 l 257,30,-1
 1098 808 l 257,0,-1
525 160 m 257,31,32
 524 457 524 457 524 459 c 257,33,-1
 214 355 l 257,34,-1
 525 160 l 257,31,32
EndSplineSet
EndChar

StartChar: u0996
Encoding: 2454 2454 1379
GlifName: u0996
Width: 674
VWidth: 0
Flags: W
LayerCount: 2
Fore
SplineSet
674 808 m 257,0,-1
 674 676 l 257,1,-1
 600 676 l 257,2,-1
 600 6 l 257,3,-1
 454 6 l 257,4,-1
 454 782 l 257,5,-1
 476 782 l 257,6,-1
 476 808 l 257,7,-1
 674 808 l 257,0,-1
270 719 m 257,8,-1
 402 719 l 257,9,-1
 286 449 l 257,10,-1
 285 450 l 257,11,-1
 144 279 l 257,12,-1
 453 165 l 257,13,-1
 453 7 l 257,14,-1
 0 185 l 257,15,-1
 0 337 l 257,16,-1
 246 567 l 257,17,-1
 257 634 l 257,18,19
 237 577 237 577 187.5 541 c 128,-1,20
 138 505 138 505 76 505 c 257,21,22
 -6 505 -6 505 -62 561.5 c 128,-1,23
 -118 618 -118 618 -118 699 c 257,24,-1
 -118 718 l 257,25,-1
 -2 718 l 257,26,27
 -6 709 -6 709 -6 699 c 257,28,29
 -6 665 -6 665 18 641.5 c 128,-1,30
 42 618 42 618 75.5 618 c 128,-1,31
 109 618 109 618 131.5 641.5 c 128,-1,32
 154 665 154 665 154 699 c 257,33,34
 154 709 154 709 152 718 c 257,35,-1
 268 718 l 257,36,-1
 268 706 l 257,37,-1
 270 719 l 257,8,-1
EndSplineSet
EndChar

StartChar: u0997
Encoding: 2455 2455 1383
GlifName: u0997
Width: 638
VWidth: 0
Flags: W
LayerCount: 2
Fore
SplineSet
19 388 m 257,0,-1
 86 500 l 257,1,2
 93 493 93 493 108 488 c 257,3,4
 148 471 148 471 179.5 475 c 128,-1,5
 211 479 211 479 231 503 c 257,6,7
 254 530 254 530 209 542 c 257,8,9
 197 545 197 545 155 552 c 257,10,11
 89 578 89 578 49 612.5 c 128,-1,12
 9 647 9 647 1 689 c 128,-1,13
 -7 731 -7 731 31 775 c 257,14,15
 78 832 78 832 178 843.5 c 128,-1,16
 278 855 278 855 374 814 c 257,17,18
 382 810 382 810 438 783 c 257,19,-1
 438 855 l 257,20,-1
 590 855 l 257,21,-1
 590 808 l 257,22,-1
 638 808 l 257,23,-1
 638 676 l 257,24,-1
 590 676 l 257,25,-1
 590 3 l 257,26,-1
 438 3 l 257,27,-1
 438 618 l 257,28,29
 423 626 423 626 367.5 654.5 c 128,-1,30
 312 683 312 683 307 685 c 257,31,32
 266 701 266 701 246 697 c 128,-1,33
 226 693 226 693 206 669 c 257,34,35
 181 643 181 643 185.5 633.5 c 128,-1,36
 190 624 190 624 237 616 c 257,37,38
 276 599 276 599 305 584.5 c 128,-1,39
 334 570 334 570 360.5 550 c 128,-1,40
 387 530 387 530 398.5 510.5 c 128,-1,41
 410 491 410 491 407.5 466.5 c 128,-1,42
 405 442 405 442 383 416 c 257,43,44
 336 359 336 359 236 346.5 c 128,-1,45
 136 334 136 334 41 375 c 257,46,47
 33 377 33 377 19 388 c 257,0,-1
EndSplineSet
EndChar

StartChar: u0998
Encoding: 2456 2456 1387
GlifName: u0998
Width: 776
VWidth: 0
Flags: W
LayerCount: 2
Fore
SplineSet
86 677 m 257,0,-1
 0 676 l 257,1,-1
 0 808 l 257,2,-1
 776 808 l 257,3,-1
 776 676 l 257,4,-1
 755 676 l 257,5,-1
 755 5 l 257,6,-1
 365 24 l 257,7,8
 237 24 237 24 146.5 91 c 128,-1,9
 56 158 56 158 56 253 c 128,-1,10
 56 348 56 348 131 415 c 257,11,12
 56 482 56 482 56 577 c 257,13,14
 56 630 56 630 86 677 c 257,0,-1
603 676 m 257,15,-1
 359 672 l 257,16,17
 295 672 295 672 251 644.5 c 128,-1,18
 207 617 207 617 207 577 c 257,19,20
 207 540 207 540 234 513.5 c 128,-1,21
 261 487 261 487 301 483 c 257,22,23
 308 483 308 483 314 483 c 128,-1,24
 320 483 320 483 326 483 c 257,25,26
 333 484 333 484 340 485 c 257,27,-1
 340 482 l 257,28,-1
 340 349 l 257,29,-1
 340 346 l 257,30,31
 333 347 333 347 326 348 c 257,32,33
 320 348 320 348 314 348 c 128,-1,34
 308 348 308 348 301 348 c 257,35,36
 261 344 261 344 234 317 c 128,-1,37
 207 290 207 290 207 253 c 257,38,39
 207 214 207 214 253 186.5 c 128,-1,40
 299 159 299 159 365 159 c 257,41,-1
 606 165 l 257,42,-1
 603 676 l 257,15,-1
EndSplineSet
EndChar

StartChar: u0999
Encoding: 2457 2457 1391
GlifName: u0999
Width: 521
VWidth: 0
Flags: W
LayerCount: 2
Fore
SplineSet
-40 705 m 257,0,-1
 80 801 l 257,1,-1
 262 696 l 257,2,3
 266 742 266 742 300 775 c 128,-1,4
 334 808 334 808 381 812 c 257,5,-1
 388 812 l 257,6,-1
 390 812 l 257,7,-1
 392 812 l 257,8,9
 446 812 446 812 483.5 774.5 c 128,-1,10
 521 737 521 737 521 683 c 257,11,12
 521 651 521 651 482 611.5 c 128,-1,13
 443 572 443 572 405 551 c 257,14,-1
 353 453 l 257,15,16
 390 432 390 432 402.5 425 c 128,-1,17
 415 418 415 418 445 396.5 c 128,-1,18
 475 375 475 375 486.5 359.5 c 128,-1,19
 498 344 498 344 509.5 318.5 c 128,-1,20
 521 293 521 293 520 265 c 257,21,22
 517 156 517 156 442 82 c 128,-1,23
 367 8 367 8 259 8 c 257,24,25
 197 8 197 8 148 30 c 128,-1,26
 99 52 99 52 68.5 89 c 128,-1,27
 38 126 38 126 22 171.5 c 128,-1,28
 6 217 6 217 6 266 c 257,29,-1
 151 266 l 257,30,-1
 151 265 l 257,31,32
 151 220 151 220 182 190 c 128,-1,33
 213 160 213 160 260 159 c 257,34,35
 307 160 307 160 338 190 c 128,-1,36
 369 220 369 220 369 265 c 257,37,38
 369 307 369 307 342.5 336.5 c 128,-1,39
 316 366 316 366 274 371 c 257,40,-1
 259 371 l 257,41,-1
 268 523 l 257,42,-1
 268 523 l 257,43,-1
 277 549 l 257,44,-1
 271 572 l 257,45,46
 256 580 256 580 244 592 c 257,47,-1
 -40 705 l 257,0,-1
379 735 m 257,48,-1
 379 736 l 256,49,-1
 379 736 l 257,50,51
 360 732 360 732 348.5 717.5 c 128,-1,52
 337 703 337 703 337 683 c 257,53,54
 337 655 337 655 358 640 c 257,55,-1
 367 635 l 257,56,57
 373 632 373 632 379 631 c 257,58,-1
 379 632 l 257,59,60
 387 630 387 630 391 630 c 128,-1,61
 395 630 395 630 403 632 c 257,62,-1
 403 631 l 257,63,64
 422 635 422 635 433.5 649.5 c 128,-1,65
 445 664 445 664 445 683 c 257,66,67
 445 703 445 703 433.5 717.5 c 128,-1,68
 422 732 422 732 403 736 c 257,69,-1
 403 735 l 257,70,71
 395 737 395 737 391 737 c 128,-1,72
 387 737 387 737 379 735 c 257,48,-1
  PathStart: -2
EndSplineSet
EndChar

StartChar: u099A
Encoding: 2458 2458 1395
GlifName: u099A_
Width: 530
VWidth: 0
Flags: W
LayerCount: 2
Fore
SplineSet
202 163 m 257,0,1
 214 160 214 160 226 160 c 257,2,3
 271 160 271 160 302 190.5 c 128,-1,4
 333 221 333 221 333 266 c 257,5,6
 333 311 333 311 302 342 c 128,-1,7
 271 373 271 373 226 373 c 257,8,9
 214 373 214 373 202 370 c 257,10,-1
 202 163 l 257,0,1
530 808 m 257,11,-1
 530 676 l 257,12,-1
 202 676 l 257,13,-1
 202 523 l 257,14,15
 210 524 210 524 226 524 c 257,16,17
 333 524 333 524 408.5 448.5 c 128,-1,18
 484 373 484 373 484 266 c 257,19,20
 484 159 484 159 408.5 84 c 128,-1,21
 333 9 333 9 226 9 c 257,22,-1
 220 8.5 l 2,23,24
 214 8 214 8 207.5 8 c 128,-1,25
 201 8 201 8 190.5 8.5 c 128,-1,26
 180 9 180 9 170 9.5 c 128,-1,27
 160 10 160 10 148.5 12 c 128,-1,28
 137 14 137 14 127 17 c 128,-1,29
 117 20 117 20 107 25 c 128,-1,30
 97 30 97 30 89 37 c 257,31,32
 72 51 72 51 62.5 81 c 128,-1,33
 53 111 53 111 51 134 c 257,34,-1
 50 158 l 257,35,-1
 50 676 l 257,36,-1
 0 676 l 257,37,-1
 0 808 l 257,38,-1
 530 808 l 257,11,-1
EndSplineSet
EndChar

StartChar: u099B
Encoding: 2459 2459 1399
GlifName: u099B_
Width: 726
VWidth: 0
Flags: W
LayerCount: 2
Fore
SplineSet
726 808 m 257,0,-1
 726 676 l 257,1,-1
 215 676 l 257,2,-1
 215 576 l 257,3,4
 221 577 221 577 234 577 c 257,5,6
 285 577 285 577 329.5 554 c 128,-1,7
 374 531 374 531 402 491 c 257,8,9
 419 493 419 493 436 493 c 257,10,11
 537 493 537 493 609 434 c 128,-1,12
 681 375 681 375 681 292 c 257,13,14
 681 231 681 231 640.5 184 c 128,-1,15
 600 137 600 137 533 115 c 257,16,-1
 709 117 l 257,17,-1
 709 39 l 257,18,-1
 388 36 l 257,19,-1
 389 187 l 257,20,21
 412 180 412 180 436 180 c 257,22,23
 498 180 498 180 540.5 211 c 128,-1,24
 583 242 583 242 583 291 c 257,25,26
 583 340 583 340 540 375.5 c 128,-1,27
 497 411 497 411 437 411 c 257,28,29
 441 391 441 391 441 371 c 257,30,31
 441 286 441 286 380.5 225.5 c 128,-1,32
 320 165 320 165 234 165 c 257,33,34
 221 165 221 165 215 166 c 257,35,-1
 93 166 l 257,36,-1
 93 676 l 257,37,-1
 0 676 l 257,38,-1
 0 808 l 257,39,-1
 726 808 l 257,0,-1
215 288 m 257,40,41
 225 286 225 286 234 286 c 257,42,43
 270 286 270 286 295 310.5 c 128,-1,44
 320 335 320 335 320 371 c 257,45,46
 320 407 320 407 295 431.5 c 128,-1,47
 270 456 270 456 234 456 c 257,48,49
 225 456 225 456 215 454 c 257,50,-1
 215 288 l 257,40,41
EndSplineSet
EndChar

StartChar: u099C
Encoding: 2460 2460 1403
GlifName: u099C_
Width: 996
VWidth: 0
Flags: W
LayerCount: 2
Fore
SplineSet
996 808 m 1,0,-1
 996 676 l 1,1,-1
 441 676 l 1,2,-1
 441 629.611328125 l 1,3,-1
 990.700195312 633.5 l 1,4,-1
 988.299804688 413.700195312 l 1,5,6
 960 422 960 422 929.900390625 421.700195312 c 0,7,8
 852 422 852 422 799.5 383.299804688 c 0,9,10
 747 345 747 345 746.700195312 283.299804688 c 0,11,12
 747 222 747 222 800.299804688 177.700195312 c 0,13,14
 854 134 854 134 929.900390625 133.700195312 c 0,15,16
 960 134 960 134 988.299804688 141.700195312 c 1,17,-1
 988.299804688 35.2998046875 l 1,18,19
 960 31 960 31 929.900390625 30.5 c 0,20,21
 847 31 847 31 776.299804688 64.099609375 c 0,22,23
 706 98 706 98 665.099609375 155.700195312 c 0,24,25
 624 214 624 214 624.299804688 282.5 c 0,26,27
 624 359 624 359 674.700195312 417.299804688 c 0,28,29
 725 476 725 476 808.299804688 503.299804688 c 1,30,-1
 441 501.765625 l 1,31,-1
 441 489 l 1,32,33
 501 455 501 455 536.5 395.5 c 128,-1,34
 572 336 572 336 570 265 c 0,35,36
 567 156 567 156 492 82 c 128,-1,37
 417 8 417 8 309 8 c 0,38,39
 247 8 247 8 198 30 c 128,-1,40
 149 52 149 52 118.5 89 c 128,-1,41
 88 126 88 126 72 171.5 c 128,-1,42
 56 217 56 217 56 266 c 1,43,-1
 201 266 l 1,44,-1
 201 265 l 2,45,46
 201 220 201 220 232 190 c 128,-1,47
 263 160 263 160 310 159 c 0,48,49
 357 160 357 160 388 190 c 128,-1,50
 419 220 419 220 419 265 c 0,51,52
 419 307 419 307 392.5 336.5 c 128,-1,53
 366 366 366 366 324 371 c 1,54,-1
 309 371 l 1,55,-1
 309 523 l 1,56,-1
 309 676 l 1,57,-1
 0 676 l 1,58,-1
 0 808 l 1,59,-1
 996 808 l 1,0,-1
EndSplineSet
EndChar

StartChar: u099D
Encoding: 2461 2461 1407
GlifName: u099D_
Width: 944
VWidth: 0
Flags: W
LayerCount: 2
Fore
SplineSet
670 676 m 257,0,-1
 670 289 l 257,1,-1
 673 292 l 257,2,-1
 749 216 l 257,3,-1
 749 676 l 257,4,-1
 670 676 l 257,0,-1
944 808 m 257,5,-1
 944 676 l 257,6,-1
 901 676 l 257,7,-1
 901 5 l 257,8,-1
 749 5 l 257,9,-1
 747 3 l 257,10,-1
 670 80 l 257,11,-1
 670 6 l 257,12,-1
 526 6 l 257,13,-1
 526 5 l 257,14,-1
 70 279 l 257,15,-1
 70 431 l 257,16,-1
 524 608 l 257,17,-1
 524 676 l 257,18,-1
 0 676 l 257,19,-1
 0 808 l 257,20,-1
 944 808 l 257,5,-1
524 158 m 257,21,-1
 524 459 l 257,22,-1
 214 355 l 257,23,-1
 524 158 l 257,21,-1
EndSplineSet
EndChar

StartChar: u099E
Encoding: 2462 2462 1411
GlifName: u099E_
Width: 730
VWidth: 0
Flags: W
LayerCount: 2
Fore
SplineSet
-37 323 m 257,0,-1
 131 323 l 257,1,2
 105 292 105 292 105 253 c 257,3,4
 105 203 105 203 141 171 c 257,5,-1
 408 171 l 257,6,-1
 408 578 l 257,7,8
 376 615 376 615 327 615 c 257,9,10
 287 615 287 615 256 589 c 257,11,-1
 256 757 l 257,12,13
 290 766 290 766 327 766 c 257,14,15
 410 766 410 766 474.5 719 c 128,-1,16
 539 672 539 672 567 596 c 257,17,18
 594 610 594 610 611 612 c 257,19,20
 664 619 664 619 697.5 583.5 c 128,-1,21
 731 548 731 548 730 490 c 257,22,23
 729 447 729 447 705 414 c 257,24,25
 730 380 730 380 730 338 c 257,26,27
 730 284 730 284 692.5 246.5 c 128,-1,28
 655 209 655 209 601 209 c 257,29,-1
 600.5 209 l 2,30,31
 600 209 600 209 599 209 c 257,32,33
 598 209 598 209 597 209 c 257,34,35
 593 209 593 209 590 210 c 257,36,37
 582 210 582 210 574 212 c 257,38,-1
 575 2 l 257,39,-1
 408 2 l 257,40,-1
 408 5 l 257,41,-1
 141 7 l 257,42,43
 58 31 58 31 5.5 98.5 c 128,-1,44
 -47 166 -47 166 -47 253 c 257,45,46
 -47 290 -47 290 -37 323 c 257,0,-1
573 291 m 257,47,48
 585 285 585 285 600 285 c 257,49,50
 624 285 624 285 639.5 300 c 128,-1,51
 655 315 655 315 655 338 c 257,52,53
 655 357 655 357 643 371.5 c 128,-1,54
 631 386 631 386 612 390 c 257,55,-1
 600 437 l 257,56,57
 606 437 606 437 612 439 c 257,58,-1
 612 438 l 257,59,60
 631 442 631 442 643 456.5 c 128,-1,61
 655 471 655 471 655 490 c 257,62,63
 655 519 655 519 636.5 534.5 c 128,-1,64
 618 550 618 550 589 549 c 257,65,66
 584 549 584 549 572 547 c 257,67,-1
 573 291 l 257,47,48
EndSplineSet
EndChar

StartChar: u099F
Encoding: 2463 2463 1415
GlifName: u099F_
Width: 639
VWidth: 0
Flags: W
LayerCount: 2
Fore
SplineSet
616 189 m 257,0,1
 600 131 600 131 555.5 89.5 c 128,-1,2
 511 48 511 48 455 28.5 c 128,-1,3
 399 9 399 9 335 8.5 c 128,-1,4
 271 8 271 8 214.5 27 c 128,-1,5
 158 46 158 46 114 88 c 128,-1,6
 70 130 70 130 53 189 c 257,7,-1
 50 676 l 257,8,-1
 0 676 l 257,9,-1
 0 808 l 257,10,-1
 252 808 l 257,11,-1
 237 823 l 257,12,13
 214 846 214 846 202.5 897 c 128,-1,14
 191 948 191 948 168 971 c 257,15,16
 152 987 152 987 121.5 998 c 128,-1,17
 91 1009 91 1009 68 1012 c 257,18,-1
 45 1015 l 257,19,-1
 134 1103 l 257,20,21
 143 1102 143 1102 158 1100.5 c 128,-1,22
 173 1099 173 1099 205.5 1088.5 c 128,-1,23
 238 1078 238 1078 254 1062 c 257,24,25
 277 1039 277 1039 291 986 c 128,-1,26
 305 933 305 933 328 910 c 257,27,28
 360 878 360 878 391 847 c 257,29,30
 424 814 424 814 494 808 c 257,31,-1
 639 808 l 257,32,-1
 639 676 l 257,33,-1
 217 676 l 257,34,-1
 217 190 l 257,35,36
 246 157 246 157 335 156.5 c 128,-1,37
 424 156 424 156 452 190 c 257,38,-1
 452 378 l 257,39,-1
 619 378 l 257,40,-1
 616 189 l 257,0,1
EndSplineSet
EndChar

StartChar: u09A0
Encoding: 2464 2464 1419
GlifName: u09A_0
Width: 751
VWidth: 0
Flags: W
LayerCount: 2
Fore
SplineSet
374 541 m 257,0,-1
 374 541 l 257,0,-1
726 808 m 257,1,-1
 726 676 l 257,2,-1
 615 676 l 257,3,4
 699 604 699 604 733 495 c 128,-1,5
 767 386 767 386 737 273 c 257,6,7
 709 170 709 170 636 95.5 c 128,-1,8
 563 21 563 21 464.5 -7 c 128,-1,9
 366 -35 366 -35 266 -8 c 257,10,11
 230 2 230 2 197 18 c 257,12,-1
 237 166 l 257,13,-1
 233 173 l 257,14,15
 236 174 236 174 239 175 c 257,16,-1
 240 178 l 257,17,18
 242 177 242 177 243 176 c 257,19,20
 250 179 250 179 257 183 c 257,21,22
 281 197 281 197 284.5 305 c 128,-1,23
 288 413 288 413 276 523.5 c 128,-1,24
 264 634 264 634 249 660 c 257,25,26
 244 669 244 669 238 676 c 257,27,-1
 0 676 l 257,28,-1
 0 808 l 257,29,-1
 252 808 l 257,30,-1
 237 823 l 257,31,32
 214 846 214 846 202.5 897 c 128,-1,33
 191 948 191 948 168 971 c 257,34,35
 152 987 152 987 121.5 998 c 128,-1,36
 91 1009 91 1009 68 1012 c 257,37,-1
 45 1015 l 257,38,-1
 134 1103 l 257,39,40
 143 1102 143 1102 158 1100.5 c 128,-1,41
 173 1099 173 1099 205.5 1088.5 c 128,-1,42
 238 1078 238 1078 254 1062 c 257,43,44
 277 1039 277 1039 291 986 c 128,-1,45
 305 933 305 933 328 910 c 257,46,47
 360 878 360 878 391 847 c 257,48,49
 424 814 424 814 494 808 c 257,50,-1
 726 808 l 257,1,-1
386 621 m 257,51,52
 401 592 401 592 415 524 c 128,-1,53
 429 456 429 456 437.5 382.5 c 128,-1,54
 446 309 446 309 444.5 242 c 128,-1,55
 443 175 443 175 429 149 c 257,56,57
 486 166 486 166 529.5 209.5 c 128,-1,58
 573 253 573 253 589 314 c 257,59,60
 602 363 602 363 548.5 481.5 c 128,-1,61
 495 600 495 600 452 657 c 257,62,-1
 386 621 l 257,51,52
EndSplineSet
EndChar

StartChar: u09A1
Encoding: 2465 2465 1423
GlifName: u09A_1
Width: 616
VWidth: 0
Flags: W
LayerCount: 2
Fore
SplineSet
616 808 m 257,0,-1
 616 676 l 257,1,-1
 441 676 l 257,2,-1
 441 489 l 257,3,4
 501 455 501 455 536.5 395.5 c 128,-1,5
 572 336 572 336 570 265 c 257,6,7
 567 156 567 156 492 82 c 128,-1,8
 417 8 417 8 309 8 c 257,9,10
 247 8 247 8 198 30 c 128,-1,11
 149 52 149 52 118.5 89 c 128,-1,12
 88 126 88 126 72 171.5 c 128,-1,13
 56 217 56 217 56 266 c 257,14,-1
 201 266 l 257,15,-1
 201 265 l 257,16,17
 201 220 201 220 232 190 c 128,-1,18
 263 160 263 160 310 159 c 257,19,20
 357 160 357 160 388 190 c 128,-1,21
 419 220 419 220 419 265 c 257,22,23
 419 307 419 307 392.5 336.5 c 128,-1,24
 366 366 366 366 324 371 c 257,25,-1
 309 371 l 257,26,-1
 309 523 l 257,27,-1
 309 523 l 257,28,-1
 309 676 l 257,29,-1
 0 676 l 257,30,-1
 0 808 l 257,31,-1
 616 808 l 257,0,-1
EndSplineSet
EndChar

StartChar: u09A2
Encoding: 2466 2466 1425
GlifName: u09A_2
Width: 639
VWidth: 0
Flags: W
LayerCount: 2
Fore
SplineSet
616 189 m 257,0,1
 600 131 600 131 555.5 89.5 c 128,-1,2
 511 48 511 48 455 28.5 c 128,-1,3
 399 9 399 9 335 8.5 c 128,-1,4
 271 8 271 8 214.5 27 c 128,-1,5
 158 46 158 46 114 88 c 128,-1,6
 70 130 70 130 53 189 c 257,7,-1
 50 676 l 257,8,-1
 0 676 l 257,9,-1
 0 808 l 257,10,-1
 639 808 l 257,11,-1
 639 676 l 257,12,-1
 217 676 l 257,13,-1
 217 190 l 257,14,15
 246 157 246 157 335 156.5 c 128,-1,16
 424 156 424 156 452 190 c 257,17,-1
 452 378 l 257,18,-1
 619 378 l 257,19,-1
 616 189 l 257,0,1
EndSplineSet
EndChar

StartChar: u09A3
Encoding: 2467 2467 1429
GlifName: u09A_3
Width: 562
VWidth: 0
Flags: W
LayerCount: 2
Fore
SplineSet
362 855 m 257,0,-1
 514 855 l 257,1,-1
 514 808 l 257,2,-1
 562 808 l 257,3,-1
 562 676 l 257,4,-1
 514 676 l 257,5,-1
 514 528 l 257,6,7
 515 514 515 514 515 499 c 257,8,9
 515 486 515 486 514 473 c 257,10,-1
 514 3 l 257,11,-1
 362 3 l 257,12,-1
 362 473 l 257,13,-1
 361 473 l 257,14,15
 361 475 361 475 362 476 c 257,16,-1
 362 523 l 257,17,18
 354 560 354 560 325 583.5 c 128,-1,19
 296 607 296 607 257 607 c 257,20,21
 213 607 213 607 182 575.5 c 128,-1,22
 151 544 151 544 151 499 c 257,23,24
 151 486 151 486 154 473 c 257,25,-1
 1 473 l 257,26,27
 0 486 0 486 0 499 c 257,28,29
 0 607 0 607 75 682 c 128,-1,30
 150 757 150 757 257 757 c 257,31,32
 312 757 312 757 362 736 c 257,33,-1
 362 855 l 257,0,-1
EndSplineSet
EndChar

StartChar: u09A5
Encoding: 2469 2469 1433
GlifName: u09A_5
Width: 635
VWidth: 0
Flags: W
LayerCount: 2
Fore
SplineSet
86 771 m 257,0,1
 97 773 97 773 105 773 c 257,2,3
 165 772 165 772 225.5 750.5 c 128,-1,4
 286 729 286 729 331 684.5 c 128,-1,5
 376 640 376 640 380 584 c 257,6,7
 382 546 382 546 368 511.5 c 128,-1,8
 354 477 354 477 332.5 452 c 128,-1,9
 311 427 311 427 276.5 400.5 c 128,-1,10
 242 374 242 374 214.5 358.5 c 128,-1,11
 187 343 187 343 148.5 321 c 128,-1,12
 110 299 110 299 92 288 c 257,13,-1
 436 172 l 257,14,-1
 436 676 l 257,15,-1
 436 782 l 257,16,-1
 436 808 l 257,17,-1
 635 808 l 257,18,-1
 635 676 l 257,19,-1
 582 676 l 257,20,-1
 582 6 l 257,21,-1
 436 6 l 257,22,-1
 436 21 l 257,23,-1
 0 202 l 257,24,-1
 0 354 l 257,25,26
 141 451 141 451 223 523 c 257,27,28
 232 531 232 531 241.5 546 c 128,-1,29
 251 561 251 561 256 573 c 257,30,-1
 261 584 l 257,31,32
 261 606 261 606 231.5 622 c 128,-1,33
 202 638 202 638 168.5 645 c 128,-1,34
 135 652 135 652 107 652 c 257,35,36
 97 652 97 652 86 649 c 257,37,-1
 86 771 l 257,0,1
EndSplineSet
EndChar

StartChar: u09A6
Encoding: 2470 2470 1437
GlifName: u09A_6
Width: 726
VWidth: 0
Flags: W
LayerCount: 2
Fore
SplineSet
662 587 m 257,0,-1
 662 7 l 257,1,-1
 510 7 l 257,2,-1
 510 405 l 257,3,-1
 244 119 l 257,4,-1
 92 119 l 257,5,-1
 91 676 l 257,6,-1
 0 676 l 257,7,-1
 0 808 l 257,8,-1
 726 808 l 257,9,-1
 726 676 l 257,10,-1
 243 676 l 257,11,-1
 244 301 l 257,12,-1
 510 587 l 257,13,-1
 662 587 l 257,0,-1
EndSplineSet
EndChar

StartChar: u09A7
Encoding: 2471 2471 1441
GlifName: u09A_7
Width: 652
VWidth: 0
Flags: W
LayerCount: 2
Fore
SplineSet
652 808 m 257,0,-1
 652 676 l 257,1,-1
 600 676 l 257,2,-1
 600 6 l 257,3,-1
 454 6 l 257,4,-1
 454 8 l 257,5,-1
 0 279 l 257,6,-1
 0 431 l 257,7,-1
 139 485 l 257,8,9
 92 539 92 539 92 611 c 257,10,11
 92 691 92 691 148.5 748 c 128,-1,12
 205 805 205 805 286 805 c 257,13,-1
 305 805 l 257,14,-1
 305 689 l 257,15,16
 296 691 296 691 286 691 c 257,17,18
 252 691 252 691 228.5 667.5 c 128,-1,19
 205 644 205 644 205 611 c 257,20,21
 205 583 205 583 221.5 562 c 128,-1,22
 238 541 238 541 265 534 c 257,23,-1
 454 608 l 257,24,-1
 454 782 l 257,25,-1
 454 808 l 257,26,-1
 652 808 l 257,0,-1
454 160 m 257,27,-1
 454 459 l 257,28,-1
 144 355 l 257,29,-1
 454 160 l 257,27,-1
EndSplineSet
EndChar

StartChar: u09A8
Encoding: 2472 2472 1445
GlifName: u09A_8
Width: 661
VWidth: 0
Flags: W
LayerCount: 2
Fore
SplineSet
661 808 m 257,0,-1
 661 676 l 257,1,-1
 616 676 l 257,2,-1
 616 128 l 257,3,4
 622 102 622 102 622 75 c 257,5,6
 622 61 622 61 620 49 c 257,7,-1
 616 49 l 257,8,-1
 616 3 l 257,9,-1
 464 3 l 257,10,-1
 464 112 l 257,11,12
 453 143 453 143 425.5 162 c 128,-1,13
 398 181 398 181 364 181 c 257,14,15
 319 181 319 181 288.5 150 c 128,-1,16
 258 119 258 119 258 75 c 257,17,18
 258 61 258 61 261 49 c 257,19,-1
 108 49 l 257,20,21
 106 61 106 61 106 75 c 257,22,23
 106 182 106 182 181.5 257.5 c 128,-1,24
 257 333 257 333 364 333 c 257,25,26
 416 333 416 333 464 312 c 257,27,-1
 464 676 l 257,28,-1
 0 676 l 257,29,-1
 0 808 l 257,30,-1
 464 808 l 257,31,-1
 616 808 l 257,32,-1
 661 808 l 257,0,-1
EndSplineSet
EndChar

StartChar: u09AA
Encoding: 2474 2474 1449
GlifName: u09A_A_
Width: 569
VWidth: 0
Flags: W
LayerCount: 2
Fore
SplineSet
175 581 m 257,0,1
 188 619 188 619 217 646.5 c 128,-1,2
 246 674 246 674 284 685 c 257,3,4
 252 703 252 703 213 702.5 c 128,-1,5
 174 702 174 702 140 682 c 257,6,7
 77 646 77 646 67 575 c 257,8,-1
 175 581 l 257,0,1
302 370 m 257,9,10
 294 372 294 372 286 374 c 257,11,12
 279 376 279 376 272 379.5 c 128,-1,13
 265 383 265 383 258.5 388.5 c 128,-1,14
 252 394 252 394 247 398.5 c 128,-1,15
 242 403 242 403 236 411 c 128,-1,16
 230 419 230 419 226.5 423.5 c 128,-1,17
 223 428 223 428 217 438.5 c 128,-1,18
 211 449 211 449 208.5 452.5 c 128,-1,19
 206 456 206 456 200.5 466.5 c 128,-1,20
 195 477 195 477 194 479 c 257,21,-1
 93 472 l 257,22,23
 102 460 102 460 114 449 c 257,24,-1
 26 399 l 257,25,26
 11 416 11 416 -1 436 c 257,27,28
 -50 522 -50 522 -22.5 618.5 c 128,-1,29
 5 715 5 715 93 766 c 257,30,31
 162 804 162 804 237 798.5 c 128,-1,32
 312 793 312 793 369 747 c 257,33,-1
 369 850 l 257,34,-1
 521 850 l 257,35,-1
 521 806 l 257,36,-1
 569 806 l 257,37,-1
 569 674 l 257,38,-1
 521 674 l 257,39,-1
 521 1 l 257,40,-1
 369 1 l 257,41,-1
 369 492 l 257,42,-1
 367 490 l 257,43,-1
 368 596 l 257,44,-1
 361 592 l 257,45,-1
 360 588 l 257,46,47
 358 588 358 588 356 589 c 257,48,-1
 354 588 l 257,49,50
 354 589 354 589 354 590 c 257,51,52
 349 592 349 592 345 594 c 257,53,54
 318 601 318 601 294 587.5 c 128,-1,55
 270 574 270 574 263 546 c 257,56,57
 256 520 256 520 269.5 496 c 128,-1,58
 283 472 283 472 310 465 c 257,59,60
 318 463 318 463 326 463 c 257,61,-1
 302 370 l 257,9,10
175 581 m 257,62,-1
 175 581 l 257,62,-1
EndSplineSet
EndChar

StartChar: u09AB
Encoding: 2475 2475 1453
GlifName: u09A_B_
Width: 1167
VWidth: 0
Flags: W
LayerCount: 2
Fore
SplineSet
77 185 m 257,0,-1
 108 332 l 257,1,-1
 379 492 l 257,2,-1
 118 676 l 257,3,-1
 0 676 l 257,4,-1
 0 808 l 257,5,-1
 1167 808 l 257,6,-1
 1167 676 l 257,7,-1
 357 676 l 257,8,-1
 540 574 l 257,9,-1
 509 427 l 257,10,-1
 302 267 l 257,11,-1
 644 162 l 257,12,-1
 644 328 l 257,13,-1
 645 328 l 257,14,15
 646 434 646 434 721 508.5 c 128,-1,16
 796 583 796 583 902 583 c 257,17,18
 1009 583 1009 583 1084.5 508 c 128,-1,19
 1160 433 1160 433 1160 325 c 257,20,21
 1160 312 1160 312 1158 299 c 257,22,-1
 1005 299 l 257,23,24
 1008 312 1008 312 1008 325 c 257,25,26
 1008 371 1008 371 977 402 c 128,-1,27
 946 433 946 433 902 433 c 257,28,29
 858 433 858 433 827 402.5 c 128,-1,30
 796 372 796 372 796 328 c 257,31,-1
 796 315 l 257,32,33
 797 307 797 307 799 299 c 257,34,-1
 796 299 l 257,35,-1
 796 3 l 257,36,-1
 644 3 l 257,37,-1
 644 5 l 257,38,-1
 77 185 l 257,0,-1
EndSplineSet
EndChar

StartChar: u09AC
Encoding: 2476 2476 1457
GlifName: u09A_C_
Width: 723
VWidth: 0
Flags: W
LayerCount: 2
Fore
SplineSet
723 808 m 257,0,-1
 723 676 l 257,1,-1
 670 676 l 257,2,-1
 670 6 l 257,3,-1
 524 6 l 257,4,-1
 524 8 l 257,5,-1
 70 279 l 257,6,-1
 70 431 l 257,7,-1
 524 608 l 257,8,-1
 524 676 l 257,9,-1
 0 676 l 257,10,-1
 0 808 l 257,11,-1
 723 808 l 257,0,-1
524 160 m 257,12,-1
 524 459 l 257,13,-1
 214 355 l 257,14,-1
 524 160 l 257,12,-1
EndSplineSet
EndChar

StartChar: u09AD
Encoding: 2477 2477 1461
GlifName: u09A_D_
Width: 726
VWidth: 0
Flags: W
LayerCount: 2
Fore
SplineSet
726 808 m 257,0,-1
 726 676 l 257,1,-1
 0 676 l 257,2,-1
 0 808 l 257,3,-1
 726 808 l 257,0,-1
395 622 m 257,4,-1
 396 639 l 257,5,6
 397 639 397 639 398 639 c 257,7,8
 450 639 450 639 498 622 c 257,9,-1
 509 622 l 257,10,-1
 509 618 l 257,11,12
 596 583 596 583 650 503.5 c 128,-1,13
 704 424 704 424 704 325 c 257,14,15
 704 194 704 194 614.5 102 c 128,-1,16
 525 10 525 10 398 10 c 128,-1,17
 271 10 271 10 181.5 102 c 128,-1,18
 92 194 92 194 92 325 c 257,19,-1
 148 330.5 l 2,20,21
 204 336 204 336 204 337 c 257,22,23
 204 334 204 334 204 331 c 257,24,25
 204 253 204 253 257.5 198 c 128,-1,26
 311 143 311 143 387 143 c 128,-1,27
 463 143 463 143 516.5 198 c 128,-1,28
 570 253 570 253 570 331 c 257,29,30
 570 383 570 383 544.5 426.5 c 128,-1,31
 519 470 519 470 477 495 c 257,32,33
 450 455 450 455 408 432 c 128,-1,34
 366 409 366 409 317 409 c 257,35,36
 236 409 236 409 179.5 465.5 c 128,-1,37
 123 522 123 522 123 603 c 257,38,-1
 123 622 l 257,39,-1
 239 622 l 257,40,41
 236 613 236 613 236 603 c 257,42,43
 236 569 236 569 259.5 545.5 c 128,-1,44
 283 522 283 522 317 522 c 257,45,46
 344 522 344 522 365 538 c 128,-1,47
 386 554 386 554 393 580 c 257,48,-1
 395 615 l 257,49,50
 394 619 394 619 393 622 c 257,51,-1
 395 622 l 257,4,-1
EndSplineSet
EndChar

StartChar: u09AE
Encoding: 2478 2478 1465
GlifName: u09A_E_
Width: 776
VWidth: 0
Flags: W
LayerCount: 2
Fore
SplineSet
313 451 m 257,0,-1
 313 451 l 257,0,-1
776 808 m 257,1,-1
 776 676 l 257,2,-1
 755 676 l 257,3,-1
 755 5 l 257,4,-1
 603 5 l 257,5,-1
 601 3 l 257,6,-1
 485 119 l 257,7,8
 450 68 450 68 394 38 c 128,-1,9
 338 8 338 8 273 8 c 257,10,11
 272 8 272 8 271 8 c 2,12,-1
 270 8 l 257,13,-1
 269 8 l 257,14,15
 267 8 267 8 265 8 c 257,16,17
 257 8 257 8 251 9 c 257,18,19
 150 15 150 15 80.5 89 c 128,-1,20
 11 163 11 163 11 265 c 257,21,22
 11 324 11 324 35.5 375 c 128,-1,23
 60 426 60 426 103 463 c 257,24,25
 33 563 33 563 97 676 c 257,26,-1
 0 676 l 257,27,-1
 0 808 l 257,28,-1
 776 808 l 257,1,-1
271 372 m 257,29,30
 258 372 258 372 247 369 c 257,31,-1
 247 370 l 257,32,33
 210 362 210 362 186 333 c 128,-1,34
 162 304 162 304 162 265 c 257,35,36
 162 227 162 227 186 198 c 128,-1,37
 210 169 210 169 247 161 c 257,38,-1
 247 162 l 257,39,40
 258 159 258 159 271 159 c 257,41,42
 283 159 283 159 295 162 c 257,43,-1
 295 161 l 257,44,45
 332 169 332 169 356 198 c 128,-1,46
 380 227 380 227 380 265 c 257,47,48
 380 304 380 304 356 333 c 128,-1,49
 332 362 332 362 295 370 c 257,50,-1
 295 369 l 257,51,52
 283 372 283 372 271 372 c 257,29,30
603 200 m 257,53,-1
 603 676 l 257,54,-1
 356 676 l 257,55,56
 346 669 346 669 342 671 c 257,57,58
 337 674 337 674 331 676 c 257,59,-1
 292 676 l 257,60,61
 266 665 266 665 232 608 c 257,62,63
 208 567 208 567 227 520 c 257,64,65
 239 522 239 522 251 522 c 257,66,67
 257 523 257 523 265 523 c 257,68,69
 267 523 267 523 269 523 c 257,70,-1
 270 523 l 257,71,72
 271 523 271 523 273 523 c 257,73,74
 380 523 380 523 455.5 447.5 c 128,-1,75
 531 372 531 372 531 265 c 257,76,77
 531 263 531 263 531 261 c 257,78,-1
 603 200 l 257,53,-1
EndSplineSet
EndChar

StartChar: u09AF
Encoding: 2479 2479 1469
GlifName: u09A_F_
Width: 841
VWidth: 0
Flags: W
LayerCount: 2
Fore
SplineSet
77 185 m 257,0,-1
 108 332 l 257,1,-1
 379 492 l 257,2,-1
 118 676 l 257,3,-1
 0 676 l 257,4,-1
 0 808 l 257,5,-1
 644 808 l 257,6,-1
 796 808 l 257,7,-1
 841 808 l 257,8,-1
 841 676 l 257,9,-1
 796 676 l 257,10,-1
 796 3 l 257,11,-1
 644 3 l 257,12,-1
 644 5 l 257,13,-1
 77 185 l 257,0,-1
644 162 m 257,14,-1
 644 676 l 257,15,-1
 357 676 l 257,16,-1
 540 574 l 257,17,-1
 509 427 l 257,18,-1
 302 267 l 257,19,-1
 644 162 l 257,14,-1
EndSplineSet
EndChar

StartChar: u09B0
Encoding: 2480 2480 1473
GlifName: u09B_0
Width: 723
VWidth: 0
Flags: W
LayerCount: 2
Fore
SplineSet
723 808 m 257,0,-1
 723 676 l 257,1,-1
 670 676 l 257,2,-1
 670 6 l 257,3,-1
 523 6 l 257,4,-1
 523 8 l 257,5,-1
 70 279 l 257,6,-1
 70 431 l 257,7,-1
 524 608 l 257,8,-1
 524 676 l 257,9,-1
 0 676 l 257,10,-1
 0 808 l 257,11,-1
 723 808 l 257,0,-1
94 3 m 257,12,-1
 94 145 l 257,13,-1
 246 145 l 257,14,-1
 246 3 l 257,15,-1
 94 3 l 257,12,-1
523 160 m 257,16,-1
 523 459 l 257,17,-1
 214 355 l 257,18,-1
 523 160 l 257,16,-1
EndSplineSet
EndChar

StartChar: u09B2
Encoding: 2482 2482 1477
GlifName: u09B_2
Width: 943
VWidth: 0
Flags: W
LayerCount: 2
Fore
SplineSet
943 808 m 257,0,-1
 943 676 l 257,1,-1
 895 676 l 257,2,-1
 895 52 l 257,3,4
 895 50 895 50 895 49 c 257,5,-1
 895 3 l 257,6,-1
 743 3 l 257,7,-1
 743 49 l 257,8,-1
 742 49 l 257,9,10
 743 50 743 50 743 51 c 257,11,-1
 743 98 l 257,12,13
 735 135 735 135 706 158 c 128,-1,14
 677 181 677 181 638 181 c 257,15,16
 600 181 600 181 571 157.5 c 128,-1,17
 542 134 542 134 535 97 c 257,18,19
 536 84 536 84 536 71 c 257,20,21
 536 61 536 61 535 50 c 257,22,23
 535 49 535 49 536 49 c 257,24,-1
 535 49 l 257,25,26
 535 47 535 47 535 45 c 257,27,-1
 382 45 l 257,28,29
 382 47 382 47 383 49 c 257,30,31
 382 62 382 62 382 75 c 257,32,33
 382 85 382 85 382 96 c 257,34,35
 374 132 374 132 345 155 c 128,-1,36
 316 178 316 178 278 178 c 257,37,38
 234 178 234 178 203 147 c 128,-1,39
 172 116 172 116 172 71 c 257,40,41
 172 58 172 58 175 45 c 257,42,-1
 22 45 l 257,43,44
 21 58 21 58 21 71 c 257,45,46
 21 178 21 178 96 253.5 c 128,-1,47
 171 329 171 329 278 329 c 257,48,49
 380 329 380 329 454 260 c 257,50,51
 524 333 524 333 626 333 c 257,52,53
 688 333 688 333 743 305 c 257,54,-1
 743 676 l 257,55,-1
 0 676 l 257,56,-1
 0 808 l 257,57,-1
 743 808 l 257,58,-1
 895 808 l 257,59,-1
 943 808 l 257,0,-1
EndSplineSet
EndChar

StartChar: u09B6
Encoding: 2486 2486 1481
GlifName: u09B_6
Width: 592
VWidth: 0
Flags: W
LayerCount: 2
Fore
SplineSet
-50 711 m 257,0,-1
 -31 711 l 257,1,2
 43 711 43 711 98 662.5 c 128,-1,3
 153 614 153 614 162 543 c 257,4,5
 170 614 170 614 225 662.5 c 128,-1,6
 280 711 280 711 354 711 c 257,7,-1
 373 711 l 257,8,-1
 373 706 l 257,9,-1
 392 689 l 257,10,-1
 392 852 l 257,11,-1
 544 852 l 257,12,-1
 544 808 l 257,13,-1
 592 808 l 257,14,-1
 592 676 l 257,15,-1
 544 676 l 257,16,-1
 544 3 l 257,17,-1
 392 3 l 257,18,-1
 392 580 l 257,19,-1
 373 599 l 257,20,-1
 373 595 l 257,21,22
 364 597 364 597 354 597 c 257,23,24
 320 597 320 597 296.5 574.5 c 128,-1,25
 273 552 273 552 273 518.5 c 128,-1,26
 273 485 273 485 296.5 461 c 128,-1,27
 320 437 320 437 354 437 c 257,28,29
 364 437 364 437 373 441 c 257,30,-1
 373 325 l 257,31,-1
 354 325 l 257,32,33
 280 325 280 325 225 373 c 128,-1,34
 170 421 170 421 162 494 c 257,35,36
 153 421 153 421 98 373 c 128,-1,37
 43 325 43 325 -31 325 c 257,38,-1
 -50 325 l 257,39,-1
 -50 441 l 257,40,41
 -41 437 -41 437 -31 437 c 257,42,43
 3 437 3 437 26.5 461 c 128,-1,44
 50 485 50 485 50 518.5 c 128,-1,45
 50 552 50 552 26.5 574.5 c 128,-1,46
 3 597 3 597 -31 597 c 257,47,48
 -41 597 -41 597 -50 595 c 257,49,-1
 -50 711 l 257,0,-1
EndSplineSet
EndChar

StartChar: u09B7
Encoding: 2487 2487 1485
GlifName: u09B_7
Width: 841
VWidth: 0
Flags: W
LayerCount: 2
Fore
SplineSet
644 676 m 257,0,-1
 357 676 l 257,1,-1
 644 534 l 257,2,-1
 644 676 l 257,0,-1
644 162 m 257,3,-1
 644 387 l 257,4,-1
 512 442 l 257,5,-1
 302 267 l 257,6,-1
 644 162 l 257,3,-1
77 185 m 257,7,-1
 108 332 l 257,8,-1
 379 492 l 257,9,-1
 118 676 l 257,10,-1
 0 676 l 257,11,-1
 0 808 l 257,12,-1
 841 808 l 257,13,-1
 841 676 l 257,14,-1
 796 676 l 257,15,-1
 796 3 l 257,16,-1
 644 3 l 257,17,-1
 644 5 l 257,18,-1
 77 185 l 257,7,-1
EndSplineSet
EndChar

StartChar: u09B8
Encoding: 2488 2488 1489
GlifName: u09B_8
Width: 776
VWidth: 0
Flags: W
LayerCount: 2
Fore
SplineSet
55 100 m 257,0,-1
 130 225 l 257,1,2
 142 215 142 215 152 210 c 257,3,4
 190 188 190 188 232 198.5 c 128,-1,5
 274 209 274 209 297 245 c 257,6,7
 319 284 319 284 294.5 317.5 c 128,-1,8
 270 351 270 351 227 358 c 257,9,10
 179 384 179 384 143.5 417 c 128,-1,11
 108 450 108 450 86.5 490 c 128,-1,12
 65 530 65 530 67 578 c 128,-1,13
 69 626 69 626 98 676 c 257,14,-1
 0 676 l 257,15,-1
 0 808 l 257,16,-1
 776 808 l 257,17,-1
 776 676 l 257,18,-1
 755 676 l 257,19,-1
 755 5 l 257,20,-1
 603 5 l 257,21,-1
 601 3 l 257,22,-1
 429 175 l 257,23,24
 428 174 428 174 427 173 c 257,25,26
 375 85 375 85 272.5 59.5 c 128,-1,27
 170 34 170 34 76 85 c 257,28,29
 73 88 73 88 65.5 92.5 c 128,-1,30
 58 97 58 97 55 100 c 257,0,-1
446 331 m 257,31,-1
 446 333 l 257,32,-1
 603 200 l 257,33,-1
 603 676 l 257,34,-1
 356 676 l 257,35,36
 346 669 346 669 342 671 c 257,37,38
 337 674 337 674 331 676 c 257,39,-1
 292 676 l 257,40,41
 266 665 266 665 232 608 c 257,42,43
 207 567 207 567 227.5 518 c 128,-1,44
 248 469 248 469 296 461 c 257,45,46
 414 398 414 398 446 331 c 257,31,-1
EndSplineSet
EndChar

StartChar: u09B9
Encoding: 2489 2489 1493
GlifName: u09B_9
Width: 689
VWidth: 0
Flags: W
LayerCount: 2
Fore
SplineSet
689 808 m 257,0,-1
 689 676 l 257,1,-1
 0 676 l 257,2,-1
 0 808 l 257,3,-1
 689 808 l 257,0,-1
236 477 m 257,4,-1
 128 583 l 257,5,6
 205 660 205 660 311.5 661 c 128,-1,7
 418 662 418 662 495 585 c 257,8,9
 571 508 571 508 570 402 c 128,-1,10
 569 296 569 296 492 219 c 257,11,12
 455 181 455 181 412 161 c 257,13,-1
 593 4 l 257,14,-1
 434 4 l 257,15,-1
 226 158 l 257,16,17
 173 180 173 180 131 222 c 257,18,-1
 233 325 l 257,19,-1
 234 324 l 257,20,21
 266 292 266 292 309 292.5 c 128,-1,22
 352 293 352 293 386 326 c 257,23,24
 419 360 419 360 419.5 403 c 128,-1,25
 420 446 420 446 388 478 c 257,26,27
 356 510 356 510 313 510 c 128,-1,28
 270 510 270 510 236 477 c 257,4,-1
EndSplineSet
EndChar

StartChar: u09BC
Encoding: 2492 2492 1497
GlifName: u09B_C_
Width: 0
VWidth: 0
LayerCount: 2
Fore
SplineSet
-510 -192 m 257,0,-1
 -510 -50 l 257,1,-1
 -358 -50 l 257,2,-1
 -358 -192 l 257,3,-1
 -510 -192 l 257,0,-1
EndSplineSet
EndChar

StartChar: u09BD
Encoding: 2493 2493 1501
GlifName: u09B_D_
Width: 689
VWidth: 0
Flags: W
LayerCount: 2
Fore
SplineSet
199 488 m 257,0,-1
 199 472 l 257,1,-1
 189 480 l 257,2,3
 188 479 188 479 186 477 c 257,4,5
 172 491 172 491 154 508 c 257,6,-1
 -50 676 l 257,7,-1
 -50 808 l 257,8,-1
 158 638 l 257,9,10
 228 671 228 671 307.5 657 c 128,-1,11
 387 643 387 643 445 585 c 257,12,13
 521 508 521 508 520 402 c 128,-1,14
 519 296 519 296 442 219 c 257,15,16
 405 181 405 181 362 161 c 257,17,-1
 543 4 l 257,18,-1
 384 4 l 257,19,-1
 176 158 l 257,20,21
 123 180 123 180 81 222 c 257,22,-1
 183 325 l 257,23,-1
 184 324 l 257,24,25
 216 292 216 292 259 292.5 c 128,-1,26
 302 293 302 293 336 326 c 257,27,28
 369 360 369 360 369.5 403 c 128,-1,29
 370 446 370 446 338 478 c 257,30,31
 309 507 309 507 270.5 509.5 c 128,-1,32
 232 512 232 512 199 488 c 257,0,-1
EndSplineSet
EndChar

StartChar: u09BE
Encoding: 2494 2494 1505
GlifName: u09B_E_
Width: 507
VWidth: 0
Flags: W
LayerCount: 2
Fore
SplineSet
307 852 m 257,0,-1
 459 852 l 257,1,-1
 459 808 l 257,2,-1
 507 808 l 257,3,-1
 507 676 l 257,4,-1
 459 676 l 257,5,-1
 459 3 l 257,6,-1
 307 3 l 257,7,-1
 307 494 l 257,8,-1
 305 492 l 257,9,-1
 0 790 l 257,10,-1
 201 787 l 257,11,-1
 307 693 l 257,12,-1
 307 852 l 257,0,-1
EndSplineSet
EndChar

StartChar: u09BF
Encoding: 2495 2495 1509
GlifName: u09B_F_
Width: 275
VWidth: 0
Flags: W
LayerCount: 2
Fore
SplineSet
272 808 m 257,0,-1
 272 676 l 257,1,-1
 227 676 l 257,2,-1
 227 3 l 257,3,-1
 75 3 l 257,4,-1
 75 676 l 257,5,-1
 0 676 l 257,6,-1
 0 808 l 257,7,-1
 75 808 l 257,8,-1
 77 808 l 257,9,10
 76 819 76 819 76 830 c 257,11,12
 76 937 76 937 151 1012.5 c 128,-1,13
 226 1088 226 1088 333 1088 c 128,-1,14
 440 1088 440 1088 515.5 1012.5 c 128,-1,15
 591 937 591 937 591 830 c 257,16,17
 591 817 591 817 590 804 c 257,18,-1
 437 804 l 257,19,20
 440 817 440 817 440 830 c 257,21,22
 440 875 440 875 409 906 c 128,-1,23
 378 937 378 937 333 937 c 257,24,25
 289 937 289 937 258 906 c 128,-1,26
 227 875 227 875 227 830 c 257,27,28
 227 819 227 819 229 808 c 257,29,-1
 272 808 l 257,0,-1
EndSplineSet
EndChar

StartChar: u09C0
Encoding: 2496 2496 1513
GlifName: u09C_0
Width: 196
VWidth: 0
Flags: W
LayerCount: 2
Fore
SplineSet
196 808 m 257,0,-1
 196 676 l 257,1,-1
 151 676 l 257,2,-1
 151 3 l 257,3,-1
 -1 3 l 257,4,-1
 -1 676 l 257,5,-1
 -51 676 l 257,6,-1
 -51 808 l 257,7,-1
 -1 808 l 257,8,-1
 0 808 l 257,9,10
 2 821 2 821 2 837 c 257,11,12
 2 882 2 882 -29 913 c 128,-1,13
 -60 944 -60 944 -105 944 c 257,14,15
 -149 944 -149 944 -180 913 c 128,-1,16
 -211 882 -211 882 -211 837 c 257,17,18
 -211 824 -211 824 -208 811 c 257,19,-1
 -361 811 l 257,20,21
 -362 824 -362 824 -362 837 c 257,22,23
 -362 944 -362 944 -287 1019.5 c 128,-1,24
 -212 1095 -212 1095 -105 1095 c 128,-1,25
 2 1095 2 1095 77.5 1019.5 c 128,-1,26
 153 944 153 944 153 837 c 257,27,28
 153 821 153 821 152 808 c 257,29,-1
 196 808 l 257,0,-1
EndSplineSet
EndChar

StartChar: u09C1
Encoding: 2497 2497 1517
GlifName: u09C_1
Width: 0
VWidth: 0
LayerCount: 2
Fore
SplineSet
-520 -112 m 261,0,1
 -530 -113 -530 -113 -539 -115 c 261,2,-1
 -539 -114 l 261,3,4
 -569 -120 -569 -120 -588 -143.5 c 132,-1,5
 -607 -167 -607 -167 -607 -198 c 261,6,7
 -607 -229 -607 -229 -588 -252 c 132,-1,8
 -569 -275 -569 -275 -539 -281 c 261,9,-1
 -539 -280 l 261,10,11
 -530 -283 -530 -283 -520 -283 c 261,12,13
 -510 -283 -510 -283 -501 -280 c 261,14,-1
 -501 -281 l 261,15,16
 -471 -275 -471 -275 -452 -252 c 132,-1,17
 -433 -229 -433 -229 -433 -198 c 261,18,19
 -433 -167 -433 -167 -452 -143.5 c 132,-1,20
 -471 -120 -471 -120 -501 -114 c 261,21,-1
 -501 -115 l 261,22,23
 -510 -113 -510 -113 -520 -112 c 261,0,1
-522 -404 m 261,24,25
 -523 -404 -523 -404 -524 -404 c 261,26,27
 -531 -404 -531 -404 -536 -403 c 261,28,29
 -617 -398 -617 -398 -672.5 -338.5 c 132,-1,30
 -728 -279 -728 -279 -728 -198 c 261,31,32
 -728 -116 -728 -116 -672.5 -57 c 132,-1,33
 -617 2 -617 2 -536 8 c 261,34,35
 -531 8 -531 8 -524 8 c 261,36,37
 -523 8 -523 8 -522 8 c 261,38,-1
 -521 8 l 261,39,40
 -520 8 -520 8 -518 8 c 261,41,42
 -454 8 -454 8 -402.5 -27 c 132,-1,43
 -351 -62 -351 -62 -327 -119 c 261,44,-1
 0 9 l 261,45,-1
 0 -113 l 261,46,-1
 -294 -212 l 261,47,-1
 0 -311 l 261,48,-1
 0 -433 l 261,49,-1
 -339 -300 l 261,50,51
 -366 -347 -366 -347 -413.5 -375.5 c 132,-1,52
 -461 -404 -461 -404 -518 -404 c 261,53,54
 -519 -404 -519 -404 -519.5 -404 c 132,-1,55
 -520 -404 -520 -404 -520.5 -404 c 132,-1,56
 -521 -404 -521 -404 -522 -404 c 261,24,25
  PathStart: -2
EndSplineSet
EndChar

StartChar: u09C2
Encoding: 2498 2498 1521
GlifName: u09C_2
Width: 0
VWidth: 0
LayerCount: 2
Fore
SplineSet
-27 21 m 257,0,-1
 353 -173 l 257,1,-1
 292 -279 l 257,2,-1
 51 -156 l 257,3,4
 22 -257 22 -257 -69.5 -308.5 c 128,-1,5
 -161 -360 -161 -360 -262 -333 c 257,6,7
 -366 -305 -366 -305 -419 -213 c 128,-1,8
 -472 -121 -472 -121 -445 -17 c 257,9,10
 -441 -4 -441 -4 -437 8 c 257,11,-1
 -289 -32 l 257,12,13
 -295 -43 -295 -43 -299 -56 c 257,14,15
 -310 -100 -310 -100 -288 -138 c 128,-1,16
 -266 -176 -266 -176 -223 -187 c 257,17,18
 -180 -199 -180 -199 -142.5 -177 c 128,-1,19
 -105 -155 -105 -155 -93 -111 c 257,20,21
 -89 -98 -89 -98 -89 -85 c 257,22,-1
 -87 -86 l 257,23,-1
 -89 -85 l 257,24,-1
 -27 21 l 257,0,-1
EndSplineSet
EndChar

StartChar: u09C3
Encoding: 2499 2499 1525
GlifName: u09C_3
Width: 0
VWidth: 0
LayerCount: 2
Fore
SplineSet
154 9 m 257,0,-1
 154 -113 l 257,1,-1
 -139 -212 l 257,2,-1
 154 -311 l 257,3,-1
 154 -433 l 257,4,-1
 -254 -273 l 257,5,-1
 -254 -151 l 257,6,-1
 154 9 l 257,0,-1
EndSplineSet
EndChar

StartChar: u09C4
Encoding: 2500 2500 1529
GlifName: u09C_4
Width: 0
VWidth: 0
LayerCount: 2
Fore
SplineSet
154 9 m 257,0,-1
 154 -113 l 257,1,-1
 108 -128 l 257,2,-1
 154 -144 l 257,3,-1
 154 -266 l 257,4,-1
 -55 -183 l 257,5,-1
 -139 -212 l 257,6,-1
 154 -311 l 257,7,-1
 154 -433 l 257,8,-1
 -254 -273 l 257,9,-1
 -254 -151 l 257,10,-1
 -196 -128 l 257,11,-1
 -254 -106 l 257,12,-1
 -254 16 l 257,13,-1
 154 176 l 257,14,-1
 154 54 l 257,15,-1
 -139 -45 l 257,16,-1
 -55 -73 l 257,17,-1
 154 9 l 257,0,-1
EndSplineSet
EndChar

StartChar: u09C7
Encoding: 2503 2503 1533
GlifName: u09C_7
Width: 621
VWidth: 0
Flags: W
LayerCount: 2
Fore
SplineSet
621 808 m 257,0,-1
 621 676 l 257,1,-1
 454 676 l 257,2,-1
 389 666 l 257,3,4
 335 666 335 666 285.5 613.5 c 128,-1,5
 236 561 236 561 209.5 491 c 128,-1,6
 183 421 183 421 183 361 c 257,7,8
 183 274 183 274 243 212 c 128,-1,9
 303 150 303 150 389 150 c 257,10,11
 423 150 423 150 454 161 c 257,12,-1
 454 15 l 257,13,14
 422 9 422 9 389 9 c 257,15,16
 295 9 295 9 216 56 c 128,-1,17
 137 103 137 103 91 185 c 128,-1,18
 45 267 45 267 45 363 c 257,19,20
 45 441 45 441 75 525 c 128,-1,21
 105 609 105 609 157 676 c 257,22,-1
 0 676 l 257,23,-1
 0 808 l 257,24,-1
 621 808 l 257,0,-1
EndSplineSet
EndChar

StartChar: u09C8
Encoding: 2504 2504 1537
GlifName: u09C_8
Width: 621
VWidth: 0
Flags: W
LayerCount: 2
Fore
SplineSet
621 808 m 257,0,-1
 621 676 l 257,1,-1
 454 676 l 257,2,-1
 389 666 l 257,3,4
 335 666 335 666 285.5 613.5 c 128,-1,5
 236 561 236 561 209.5 491 c 128,-1,6
 183 421 183 421 183 361 c 257,7,8
 183 274 183 274 243 212 c 128,-1,9
 303 150 303 150 389 150 c 257,10,11
 423 150 423 150 454 161 c 257,12,-1
 454 15 l 257,13,14
 422 9 422 9 389 9 c 257,15,16
 295 9 295 9 216 56 c 128,-1,17
 137 103 137 103 91 185 c 128,-1,18
 45 267 45 267 45 363 c 257,19,20
 45 441 45 441 75 525 c 128,-1,21
 105 609 105 609 157 676 c 257,22,-1
 0 676 l 257,23,-1
 0 808 l 257,24,-1
 333 808 l 257,25,26
 324 854 324 854 300 878 c 257,27,28
 268 909 268 909 237 940 c 257,29,30
 213 964 213 964 160.5 977.5 c 128,-1,31
 108 991 108 991 85 1015 c 257,32,33
 69 1030 69 1030 58.5 1060 c 128,-1,34
 48 1090 48 1090 46 1113 c 257,35,-1
 44 1135 l 257,36,-1
 132 1223 l 257,37,38
 133 1214 133 1214 135 1198.5 c 128,-1,39
 137 1183 137 1183 148.5 1149.5 c 128,-1,40
 160 1116 160 1116 176 1100 c 257,41,42
 198 1078 198 1078 249.5 1066 c 128,-1,43
 301 1054 301 1054 324 1032 c 257,44,-1
 394 961 l 257,45,46
 408 947 408 947 416.5 926.5 c 128,-1,47
 425 906 425 906 427 887 c 128,-1,48
 429 868 429 868 429 851 c 128,-1,49
 429 834 429 834 428 823.5 c 2,50,-1
 427 813 l 257,51,-1
 422 808 l 257,52,-1
 621 808 l 257,0,-1
EndSplineSet
EndChar

StartChar: u09CD
Encoding: 2509 2509 1549
GlifName: u09C_D_
Width: 0
VWidth: 0
LayerCount: 2
Fore
SplineSet
-154 4 m 257,0,-1
 -10 -181 l 257,1,-1
 -116 -242 l 257,2,-1
 -260 -57 l 257,3,-1
 -154 4 l 257,0,-1
EndSplineSet
EndChar

StartChar: u09CE
Encoding: 2510 2510 1553
GlifName: u09C_E_
Width: 512
VWidth: 0
Flags: W
LayerCount: 2
Fore
SplineSet
216.447265625 -11 m 257,0,1
 224.447265625 12 224.447265625 12 278.447265625 86 c 128,-1,2
 332.447265625 160 332.447265625 160 323.947265625 203 c 128,-1,3
 315.447265625 246 315.447265625 246 298.447265625 276.5 c 128,-1,4
 281.447265625 307 281.447265625 307 263.447265625 306 c 257,5,6
 208.447265625 319 208.447265625 319 165.947265625 341.5 c 128,-1,7
 123.447265625 364 123.447265625 364 91.447265625 399 c 128,-1,8
 59.447265625 434 59.447265625 434 51.447265625 480 c 128,-1,9
 43.447265625 526 43.447265625 526 57.447265625 586 c 257,10,11
 85.447265625 684 85.447265625 684 178.447265625 735 c 128,-1,12
 271.447265625 786 271.447265625 786 374.447265625 762 c 257,13,14
 378.447265625 760 378.447265625 760 386.947265625 757.5 c 128,-1,15
 395.447265625 755 395.447265625 755 399.447265625 753 c 257,16,-1
 359.447265625 613 l 257,17,18
 344.447265625 619 344.447265625 619 333.447265625 622 c 257,19,20
 291.447265625 632 291.447265625 632 253.447265625 611 c 128,-1,21
 215.447265625 590 215.447265625 590 203.447265625 548 c 257,22,23
 190.447265625 502 190.447265625 502 222.947265625 460.5 c 128,-1,24
 255.447265625 419 255.447265625 419 303.447265625 423 c 257,25,26
 350.447265625 412 350.447265625 412 391.447265625 368.5 c 128,-1,27
 432.447265625 325 432.447265625 325 455.947265625 266 c 128,-1,28
 479.447265625 207 479.447265625 207 429.447265625 109.5 c 128,-1,29
 379.447265625 12 379.447265625 12 361.447265625 -47 c 257,30,-1
 216.447265625 -11 l 257,0,1
EndSplineSet
EndChar

StartChar: u09D7
Encoding: 2519 2519 1557
GlifName: u09D_7
Width: 254
VWidth: 0
Flags: W
LayerCount: 2
Fore
SplineSet
205 808 m 257,0,-1
 205 676 l 257,1,-1
 160 676 l 257,2,-1
 160 3 l 257,3,-1
 8 3 l 257,4,-1
 8 676 l 257,5,-1
 -50 676 l 257,6,-1
 -50 808 l 257,7,-1
 8 808 l 257,8,-1
 18 808 l 257,9,10
 9 832 9 832 -6 847 c 257,11,12
 -38 878 -38 878 -69 909 c 257,13,14
 -93 933 -93 933 -145.5 946.5 c 128,-1,15
 -198 960 -198 960 -221 984 c 257,16,17
 -237 999 -237 999 -247.5 1029 c 128,-1,18
 -258 1059 -258 1059 -260 1082 c 257,19,-1
 -262 1104 l 257,20,-1
 -174 1192 l 257,21,22
 -173 1183 -173 1183 -171 1167.5 c 128,-1,23
 -169 1152 -169 1152 -157.5 1118.5 c 128,-1,24
 -146 1085 -146 1085 -130 1069 c 257,25,26
 -108 1047 -108 1047 -56.5 1035 c 128,-1,27
 -5 1023 -5 1023 18 1001 c 257,28,-1
 19 999 l 257,29,-1
 20 998 l 257,30,-1
 22 996 l 257,31,-1
 23 995 l 257,32,-1
 24 994 l 257,33,-1
 26 992 l 257,34,-1
 27 991 l 257,35,-1
 28 990 l 257,36,-1
 30 989 l 257,37,-1
 31 987 l 257,38,-1
 32 986 l 257,39,-1
 33 985 l 257,40,-1
 34 984 l 257,41,-1
 36 982 l 257,42,-1
 37 981 l 257,43,-1
 38 980 l 257,44,-1
 39 979 l 257,45,-1
 40 978 l 257,46,-1
 41 977 l 257,47,-1
 42 976 l 257,48,-1
 43 975 l 257,49,-1
 44 974 l 257,50,-1
 46 973 l 257,51,-1
 47 972 l 257,52,-1
 48 971 l 257,53,-1
 49 970 l 257,54,-1
 50 969 l 257,55,-1
 51 968 l 257,56,-1
 52 967 l 257,57,-1
 53 965 l 257,58,-1
 54 964 l 257,59,-1
 55 963 l 257,60,-1
 56 962 l 257,61,-1
 57 961 l 257,62,-1
 58 961 l 257,63,-1
 58 960 l 257,64,-1
 59 959 l 257,65,-1
 60 958 l 257,66,-1
 61 958 l 257,67,-1
 61 957 l 257,68,-1
 62 956 l 257,69,-1
 63 955 l 257,70,-1
 64 954 l 257,71,-1
 65 954 l 257,72,-1
 65 953 l 257,73,-1
 66 952 l 257,74,-1
 67 951 l 257,75,-1
 68 950 l 257,76,-1
 69 950 l 257,77,-1
 69 949 l 257,78,-1
 70 948 l 257,79,-1
 71 947 l 257,80,-1
 72 946 l 257,81,-1
 73 945 l 257,82,-1
 74 945 l 257,83,-1
 74 944 l 257,84,-1
 75 943 l 257,85,-1
 76 942 l 257,86,-1
 77 941 l 257,87,-1
 78 940 l 257,88,-1
 79 939 l 257,89,-1
 80 938 l 257,90,-1
 81 937 l 257,91,-1
 82 936 l 257,92,-1
 83 935 l 257,93,-1
 84 934 l 257,94,-1
 85 934 l 257,95,-1
 86 933 l 257,96,-1
 87 932 l 257,97,-1
 88 930 l 257,98,99
 126 892 126 892 123 808 c 257,100,-1
 160 808 l 257,101,-1
 205 808 l 257,0,-1
EndSplineSet
EndChar

StartChar: u09E0
Encoding: 2528 2528 1573
GlifName: u09E_0
Width: 1294
VWidth: 0
Flags: W
LayerCount: 2
Fore
SplineSet
872 782 m 257,0,-1
 1018 782 l 257,1,-1
 1018 291 l 257,2,-1
 1092 216 l 257,3,-1
 1094 800 l 257,4,-1
 1294 800 l 257,5,-1
 1294 668 l 257,6,-1
 1244 668 l 257,7,-1
 1244 5 l 257,8,-1
 1242 5 l 257,9,-1
 1242 -84 l 257,10,-1
 948 -183 l 257,11,-1
 1242 -282 l 257,12,-1
 1242 -404 l 257,13,-1
 833 -244 l 257,14,-1
 833 -122 l 257,15,-1
 1159 5 l 257,16,-1
 1093 5 l 257,17,-1
 1090 3 l 257,18,-1
 1018 75 l 257,19,-1
 1018 6 l 257,20,-1
 871 6 l 257,21,-1
 871 8 l 257,22,-1
 418 185 l 257,23,-1
 418 337 l 257,24,-1
 665 567 l 257,25,-1
 675 634 l 257,26,27
 655 577 655 577 605.5 541 c 128,-1,28
 556 505 556 505 494 505 c 257,29,30
 449 505 449 505 409.5 524 c 128,-1,31
 370 543 370 543 343 576 c 257,32,33
 316 543 316 543 277 524 c 128,-1,34
 238 505 238 505 194 505 c 257,35,36
 113 505 113 505 56.5 561.5 c 128,-1,37
 0 618 0 618 0 699 c 257,38,-1
 0 718 l 257,39,-1
 116 718 l 257,40,41
 113 709 113 709 113 699 c 257,42,43
 113 665 113 665 136.5 641.5 c 128,-1,44
 160 618 160 618 194 618 c 128,-1,45
 228 618 228 618 250.5 641.5 c 128,-1,46
 273 665 273 665 273 699 c 257,47,48
 273 709 273 709 270 718 c 257,49,-1
 300 718 l 257,50,-1
 386 718 l 257,51,-1
 416 718 l 257,52,53
 413 709 413 709 413 699 c 257,54,55
 413 665 413 665 436.5 641.5 c 128,-1,56
 460 618 460 618 494 618 c 128,-1,57
 528 618 528 618 550.5 641.5 c 128,-1,58
 573 665 573 665 573 699 c 257,59,60
 573 772 573 772 570 781 c 257,61,-1
 872 782 l 257,0,-1
871 165 m 257,62,-1
 871 714 l 257,63,-1
 704 449 l 257,64,-1
 703 450 l 257,65,-1
 562 279 l 257,66,-1
 871 165 l 257,62,-1
EndSplineSet
EndChar

StartChar: u09E1
Encoding: 2529 2529 1577
GlifName: u09E_1
Width: 779
VWidth: 0
Flags: W
LayerCount: 2
Fore
SplineSet
259 -141 m 257,0,1
 259 -136 259 -136 259 -131 c 257,2,3
 259 -88 259 -88 289 -58 c 128,-1,4
 319 -28 319 -28 362 -28 c 257,5,6
 390 -28 390 -28 413.5 -41.5 c 128,-1,7
 437 -55 437 -55 450 -79 c 257,8,9
 463 -28 463 -28 425 10 c 257,10,11
 398 38 398 38 359.5 38.5 c 128,-1,12
 321 39 321 39 294 12 c 257,13,14
 283 1 283 1 277 -12 c 257,15,-1
 231 34 l 257,16,17
 239 46 239 46 250 56 c 257,18,19
 294 101 294 101 358.5 100 c 128,-1,20
 423 99 423 99 469 53 c 128,-1,21
 515 7 515 7 516 -57.5 c 128,-1,22
 517 -122 517 -122 472 -166 c 257,23,24
 462 -177 462 -177 450 -185 c 257,25,-1
 406 -141 l 257,26,-1
 403 -141 l 257,27,28
 403 -140 403 -140 404 -139 c 257,29,-1
 403 -138 l 257,30,-1
 404 -137 l 257,31,32
 404 -134 404 -134 404 -131 c 257,33,34
 404 -113 404 -113 392 -100.5 c 128,-1,35
 380 -88 380 -88 362 -88 c 257,36,37
 344 -88 344 -88 331.5 -100.5 c 128,-1,38
 319 -113 319 -113 319 -131 c 257,39,40
 319 -136 319 -136 320 -141 c 257,41,-1
 259 -141 l 257,0,1
49 109 m 257,42,43
 48 122 48 122 48 135 c 257,44,45
 48 242 48 242 123 317.5 c 128,-1,46
 198 393 198 393 305 393 c 257,47,48
 375 393 375 393 434 358.5 c 128,-1,49
 493 324 493 324 527 266 c 257,50,51
 541 325 541 325 525 384 c 128,-1,52
 509 443 509 443 464 488 c 257,53,54
 395 557 395 557 299 558.5 c 128,-1,55
 203 560 203 560 136 492 c 257,56,57
 109 466 109 466 93 432 c 257,58,-1
 -22 547 l 257,59,60
 -1 577 -1 577 25 603 c 257,61,62
 98 677 98 677 197.5 702 c 128,-1,63
 297 727 297 727 397.5 699 c 128,-1,64
 498 671 498 671 574 595 c 257,65,66
 649 519 649 519 677 419 c 128,-1,67
 705 319 705 319 680 219.5 c 128,-1,68
 655 120 655 120 581 47 c 257,69,70
 555 21 555 21 525 0 c 257,71,-1
 416 109 l 257,72,-1
 409 109 l 257,73,74
 409 112 409 112 410 115 c 257,75,-1
 407 118 l 257,76,77
 409 118 409 118 411 119 c 257,78,79
 412 127 412 127 412 135 c 257,80,81
 412 180 412 180 381 211 c 128,-1,82
 350 242 350 242 305 242 c 257,83,84
 261 242 261 242 230 211 c 128,-1,85
 199 180 199 180 199 135 c 257,86,87
 199 122 199 122 202 109 c 257,88,-1
 49 109 l 257,42,43
EndSplineSet
EndChar

StartChar: u09E2
Encoding: 2530 2530 1581
GlifName: u09E_2
Width: 0
VWidth: 0
LayerCount: 2
Fore
SplineSet
-163 -141 m 257,0,1
 -164 -136 -164 -136 -164 -131 c 257,2,3
 -164 -88 -164 -88 -134 -58 c 128,-1,4
 -104 -28 -104 -28 -61 -28 c 257,5,6
 -33 -28 -33 -28 -9.5 -41.5 c 128,-1,7
 14 -55 14 -55 28 -79 c 257,8,9
 40 -28 40 -28 3 10 c 257,10,11
 -25 38 -25 38 -63.5 38.5 c 128,-1,12
 -102 39 -102 39 -129 12 c 257,13,14
 -139 1 -139 1 -146 -12 c 257,15,-1
 -192 34 l 257,16,17
 -183 46 -183 46 -173 56 c 257,18,19
 -128 101 -128 101 -64 100 c 128,-1,20
 0 99 0 99 46.5 53 c 128,-1,21
 93 7 93 7 93.5 -57.5 c 128,-1,22
 94 -122 94 -122 50 -166 c 257,23,24
 39 -177 39 -177 27 -185 c 257,25,-1
 -16 -141 l 257,26,-1
 -19 -141 l 257,27,28
 -19 -140 -19 -140 -19 -139 c 257,29,-1
 -20 -138 l 257,30,31
 -19 -138 -19 -138 -19 -137 c 257,32,33
 -18 -134 -18 -134 -18 -131 c 257,34,35
 -18 -113 -18 -113 -30.5 -100.5 c 128,-1,36
 -43 -88 -43 -88 -61 -88 c 257,37,38
 -79 -88 -79 -88 -91 -100.5 c 128,-1,39
 -103 -113 -103 -113 -103 -131 c 257,40,41
 -103 -136 -103 -136 -102 -141 c 257,42,-1
 -163 -141 l 257,0,1
EndSplineSet
EndChar

StartChar: u09E3
Encoding: 2531 2531 1585
GlifName: u09E_3
Width: 0
VWidth: 0
LayerCount: 2
Fore
SplineSet
-7 -290 m 257,0,1
 -8 -284 -8 -284 -8 -279 c 257,2,3
 -8 -236 -8 -236 22 -206 c 128,-1,4
 52 -176 52 -176 95 -176 c 257,5,6
 123 -176 123 -176 146.5 -189.5 c 128,-1,7
 170 -203 170 -203 184 -227 c 257,8,9
 196 -176 196 -176 159 -138 c 257,10,11
 131 -110 131 -110 92.5 -109.5 c 128,-1,12
 54 -109 54 -109 27 -136 c 257,13,14
 17 -147 17 -147 10 -160 c 257,15,-1
 -36 -114 l 257,16,17
 -27 -102 -27 -102 -17 -92 c 257,18,19
 28 -47 28 -47 92 -48 c 128,-1,20
 156 -49 156 -49 202.5 -95 c 128,-1,21
 249 -141 249 -141 249.5 -205.5 c 128,-1,22
 250 -270 250 -270 206 -314 c 257,23,24
 195 -325 195 -325 183 -333 c 257,25,-1
 140 -290 l 257,26,-1
 137 -290 l 257,27,28
 137 -288 137 -288 137 -287 c 257,29,-1
 136 -286 l 257,30,31
 137 -286 137 -286 137 -285 c 257,32,33
 138 -282 138 -282 138 -279 c 257,34,35
 138 -261 138 -261 125.5 -248.5 c 128,-1,36
 113 -236 113 -236 95 -236 c 257,37,38
 77 -236 77 -236 65 -248.5 c 128,-1,39
 53 -261 53 -261 53 -279 c 257,40,41
 53 -284 53 -284 54 -290 c 257,42,-1
 -7 -290 l 257,0,1
-192 -154 m 257,43,44
 -193 -148 -193 -148 -193 -143 c 257,45,46
 -193 -100 -193 -100 -163 -70 c 128,-1,47
 -133 -40 -133 -40 -90 -40 c 257,48,49
 -62 -40 -62 -40 -38.5 -53.5 c 128,-1,50
 -15 -67 -15 -67 -1 -91 c 257,51,52
 11 -40 11 -40 -26 -2 c 257,53,54
 -54 26 -54 26 -92.5 26.5 c 128,-1,55
 -131 27 -131 27 -158 0 c 257,56,57
 -168 -11 -168 -11 -175 -24 c 257,58,-1
 -221 22 l 257,59,60
 -212 34 -212 34 -202 44 c 257,61,62
 -157 89 -157 89 -93 88 c 128,-1,63
 -29 87 -29 87 17.5 41 c 128,-1,64
 64 -5 64 -5 64.5 -69.5 c 128,-1,65
 65 -134 65 -134 21 -178 c 257,66,67
 10 -189 10 -189 -2 -197 c 257,68,-1
 -45 -154 l 257,69,-1
 -48 -154 l 257,70,71
 -48 -152 -48 -152 -48 -151 c 257,72,-1
 -49 -150 l 257,73,74
 -48 -150 -48 -150 -48 -149 c 257,75,76
 -47 -146 -47 -146 -47 -143 c 257,77,78
 -47 -125 -47 -125 -59.5 -112.5 c 128,-1,79
 -72 -100 -72 -100 -90 -100 c 257,80,81
 -108 -100 -108 -100 -120 -112.5 c 128,-1,82
 -132 -125 -132 -125 -132 -143 c 257,83,84
 -132 -148 -132 -148 -131 -154 c 257,85,-1
 -192 -154 l 257,43,44
EndSplineSet
EndChar

StartChar: u09E6
Encoding: 2534 2534 1589
GlifName: u09E_6
Width: 864
VWidth: 0
Flags: W
LayerCount: 2
Fore
SplineSet
616 383 m 257,0,1
 616 470 616 470 562.5 532 c 128,-1,2
 509 594 509 594 432.5 594 c 128,-1,3
 356 594 356 594 302 532 c 128,-1,4
 248 470 248 470 248 383 c 257,5,6
 248 295 248 295 302 233.5 c 128,-1,7
 356 172 356 172 432.5 172 c 128,-1,8
 509 172 509 172 562.5 233.5 c 128,-1,9
 616 295 616 295 616 383 c 257,0,1
738 385 m 257,10,11
 738 288 738 288 697 206.5 c 128,-1,12
 656 125 656 125 586 77.5 c 128,-1,13
 516 30 516 30 432.5 30 c 128,-1,14
 349 30 349 30 278.5 77.5 c 128,-1,15
 208 125 208 125 167 206.5 c 128,-1,16
 126 288 126 288 126 385 c 257,17,18
 126 481 126 481 167 562.5 c 128,-1,19
 208 644 208 644 278.5 691.5 c 128,-1,20
 349 739 349 739 432.5 739 c 128,-1,21
 516 739 516 739 586 691.5 c 128,-1,22
 656 644 656 644 697 562.5 c 128,-1,23
 738 481 738 481 738 385 c 257,10,11
EndSplineSet
EndChar

StartChar: u09E7
Encoding: 2535 2535 1593
GlifName: u09E_7
Width: 555
VWidth: 0
Flags: W
LayerCount: 2
Fore
SplineSet
123 152 m 257,0,1
 218 152 218 152 285 220.5 c 128,-1,2
 352 289 352 289 352 386 c 257,3,4
 352 484 352 484 285 552.5 c 128,-1,5
 218 621 218 621 123 621 c 257,6,7
 85 621 85 621 50 609 c 257,8,-1
 50 771 l 257,9,10
 86 778 86 778 123 778 c 257,11,12
 281 778 281 778 393 662.5 c 128,-1,13
 505 547 505 547 505 384 c 128,-1,14
 505 221 505 221 393 106 c 128,-1,15
 281 -9 281 -9 123 -9 c 257,16,17
 86 -9 86 -9 50 -2 c 257,18,-1
 50 164 l 257,19,20
 85 152 85 152 123 152 c 257,0,1
EndSplineSet
EndChar

StartChar: u09E8
Encoding: 2536 2536 1597
GlifName: u09E_8
Width: 783
VWidth: 0
Flags: W
LayerCount: 2
Fore
SplineSet
45.5 231 m 257,0,-1
 121.5 363 l 257,1,-1
 502.5 451 l 257,2,-1
 130.5 667 l 257,3,-1
 206.5 799 l 257,4,-1
 737.5 491 l 257,5,-1
 661.5 360 l 257,6,-1
 279.5 272 l 257,7,-1
 623.5 73 l 257,8,-1
 547.5 -59 l 257,9,-1
 45.5 231 l 257,0,-1
EndSplineSet
EndChar

StartChar: u09E9
Encoding: 2537 2537 1601
GlifName: u09E_9
Width: 726
VWidth: 0
Flags: W
LayerCount: 2
Fore
SplineSet
355 518 m 257,0,-1
 361 639 l 257,1,2
 362 639 362 639 363 639 c 257,3,4
 490 639 490 639 579.5 547 c 128,-1,5
 669 455 669 455 669 325 c 257,6,7
 669 194 669 194 579.5 102 c 128,-1,8
 490 10 490 10 363 10 c 128,-1,9
 236 10 236 10 146.5 102 c 128,-1,10
 57 194 57 194 57 325 c 257,11,-1
 113 330.5 l 2,12,13
 169 336 169 336 169 337 c 257,14,15
 169 334 169 334 169 331 c 257,16,17
 169 253 169 253 222.5 198 c 128,-1,18
 276 143 276 143 352 143 c 128,-1,19
 428 143 428 143 481.5 198 c 128,-1,20
 535 253 535 253 535 331 c 257,21,22
 535 408 535 408 482.5 462.5 c 128,-1,23
 430 517 430 517 355 518 c 257,0,-1
EndSplineSet
EndChar

StartChar: u09EA
Encoding: 2538 2538 1605
GlifName: u09E_A_
Width: 616
VWidth: 0
Flags: W
LayerCount: 2
Fore
SplineSet
307 8 m 257,0,-1
 306 8 l 257,1,2
 305 8 305 8 303 8 c 257,3,4
 296 8 296 8 291 9 c 257,5,6
 201 15 201 15 140 80 c 128,-1,7
 79 145 79 145 79 234 c 257,8,9
 79 267 79 267 106.5 318 c 128,-1,10
 134 369 134 369 160 405 c 257,11,12
 125 453 125 453 125 512 c 257,13,14
 125 584 125 584 174 636 c 128,-1,15
 223 688 223 688 294 693 c 257,16,17
 298 694 298 694 304 694 c 257,18,19
 305 694 305 694 306.5 694 c 128,-1,20
 308 694 308 694 309 694 c 257,21,22
 385 694 385 694 438 641 c 128,-1,23
 491 588 491 588 491 512 c 257,24,25
 491 453 491 453 456 405 c 257,26,27
 482 369 482 369 509.5 318 c 128,-1,28
 537 267 537 267 537 234 c 257,29,30
 537 141 537 141 470.5 74.5 c 128,-1,31
 404 8 404 8 310 8 c 257,32,33
 309 8 309 8 308 8 c 2,34,-1
 307 8 l 257,0,-1
308 587 m 257,35,36
 299 587 299 587 291 585 c 257,37,-1
 291 586 l 257,38,39
 265 581 265 581 248 560.5 c 128,-1,40
 231 540 231 540 231 512 c 257,41,42
 231 485 231 485 248 464.5 c 128,-1,43
 265 444 265 444 291 439 c 257,44,-1
 291 440 l 257,45,46
 299 438 299 438 308 437 c 257,47,48
 317 438 317 438 325 440 c 257,49,-1
 325 439 l 257,50,51
 351 444 351 444 368 464.5 c 128,-1,52
 385 485 385 485 385 512 c 257,53,54
 385 540 385 540 368 560.5 c 128,-1,55
 351 581 351 581 325 586 c 257,56,-1
 325 585 l 257,57,58
 317 587 317 587 308 587 c 257,35,36
308 329 m 257,59,60
 297 328 297 328 287 326 c 257,61,-1
 287 327 l 257,62,63
 254 320 254 320 233 294.5 c 128,-1,64
 212 269 212 269 212 234 c 257,65,66
 212 201 212 201 233 175.5 c 128,-1,67
 254 150 254 150 287 143 c 257,68,-1
 287 144 l 257,69,70
 297 141 297 141 308 141 c 257,71,72
 319 141 319 141 329 144 c 257,73,-1
 329 143 l 257,74,75
 362 150 362 150 383 175.5 c 128,-1,76
 404 201 404 201 404 234 c 257,77,78
 404 269 404 269 383 294.5 c 128,-1,79
 362 320 362 320 329 327 c 257,80,-1
 329 326 l 257,81,82
 319 328 319 328 308 329 c 257,59,60
EndSplineSet
EndChar

StartChar: u09EB
Encoding: 2539 2539 1609
GlifName: u09E_B_
Width: 779
VWidth: 0
Flags: W
LayerCount: 2
Fore
SplineSet
357.723632812 389 m 257,0,-1
 356.723632812 390 l 257,1,-1
 357.723632812 389 l 257,0,-1
738.723632812 484 m 257,2,-1
 661.723632812 352 l 257,3,4
 652.723632812 361 652.723632812 361 640.723632812 368 c 257,5,6
 601.723632812 390 601.723632812 390 559.723632812 379 c 128,-1,7
 517.723632812 368 517.723632812 368 494.723632812 329 c 257,8,9
 472.723632812 290 472.723632812 290 484.223632812 248 c 128,-1,10
 495.723632812 206 495.723632812 206 534.723632812 183 c 257,11,12
 540.723632812 179 540.723632812 179 548.723632812 176 c 257,13,14
 549.723632812 177 549.723632812 177 551.723632812 178 c 257,15,-1
 552.723632812 175 l 257,16,17
 555.723632812 174 555.723632812 174 558.723632812 173 c 257,18,-1
 554.723632812 166 l 257,19,-1
 594.723632812 18 l 257,20,21
 561.723632812 2 561.723632812 2 525.723632812 -8 c 257,22,23
 425.723632812 -35 425.723632812 -35 327.223632812 -7 c 128,-1,24
 228.723632812 21 228.723632812 21 155.723632812 95.5 c 128,-1,25
 82.7236328125 170 82.7236328125 170 54.7236328125 273 c 257,26,27
 32.7236328125 352 32.7236328125 352 44.2236328125 429 c 128,-1,28
 55.7236328125 506 55.7236328125 506 90.7236328125 571 c 128,-1,29
 125.723632812 636 125.723632812 636 186.223632812 684 c 128,-1,30
 246.723632812 732 246.723632812 732 321.723632812 752 c 257,31,32
 357.723632812 762 357.723632812 762 394.723632812 764 c 257,33,-1
 436.723632812 608 l 257,34,35
 411.723632812 610 411.723632812 610 386.723632812 606 c 257,36,-1
 492.723632812 483 l 257,37,38
 495.723632812 484 495.723632812 484 514.723632812 489.5 c 128,-1,39
 533.723632812 495 533.723632812 495 540.223632812 497 c 128,-1,40
 546.723632812 499 546.723632812 499 564.723632812 503.5 c 128,-1,41
 582.723632812 508 582.723632812 508 592.223632812 509.5 c 128,-1,42
 601.723632812 511 601.723632812 511 617.723632812 513.5 c 128,-1,43
 633.723632812 516 633.723632812 516 644.723632812 515 c 128,-1,44
 655.723632812 514 655.723632812 514 669.223632812 513 c 128,-1,45
 682.723632812 512 682.723632812 512 694.223632812 508 c 128,-1,46
 705.723632812 504 705.723632812 504 716.723632812 498 c 257,47,48
 727.723632812 492 727.723632812 492 738.723632812 484 c 257,2,-1
356.723632812 390 m 257,49,-1
 240.723632812 518 l 257,50,51
 208.723632812 476 208.723632812 476 198.223632812 423.5 c 128,-1,52
 187.723632812 371 187.723632812 371 202.723632812 314 c 257,53,54
 218.723632812 253 218.723632812 253 262.223632812 209.5 c 128,-1,55
 305.723632812 166 305.723632812 166 362.723632812 149 c 257,56,57
 331.723632812 204 331.723632812 204 329.723632812 267 c 128,-1,58
 327.723632812 330 327.723632812 330 356.723632812 390 c 257,49,-1
EndSplineSet
EndChar

StartChar: u09EC
Encoding: 2540 2540 1613
GlifName: u09E_C_
Width: 616
VWidth: 0
Flags: W
LayerCount: 2
Fore
SplineSet
303.946289062 756 m 257,0,-1
 435.946289062 756 l 257,1,-1
 435.946289062 489 l 257,2,3
 495.946289062 455 495.946289062 455 531.446289062 395.5 c 128,-1,4
 566.946289062 336 566.946289062 336 564.946289062 265 c 257,5,6
 561.946289062 156 561.946289062 156 486.946289062 82 c 128,-1,7
 411.946289062 8 411.946289062 8 303.946289062 8 c 257,8,9
 241.946289062 8 241.946289062 8 192.946289062 30 c 128,-1,10
 143.946289062 52 143.946289062 52 113.446289062 89 c 128,-1,11
 82.9462890625 126 82.9462890625 126 66.9462890625 171.5 c 128,-1,12
 50.9462890625 217 50.9462890625 217 50.9462890625 266 c 257,13,-1
 195.946289062 266 l 257,14,-1
 195.946289062 265 l 257,15,16
 195.946289062 220 195.946289062 220 226.946289062 190 c 128,-1,17
 257.946289062 160 257.946289062 160 304.946289062 159 c 257,18,19
 351.946289062 160 351.946289062 160 382.946289062 190 c 128,-1,20
 413.946289062 220 413.946289062 220 413.946289062 265 c 257,21,22
 413.946289062 307 413.946289062 307 387.446289062 336.5 c 128,-1,23
 360.946289062 366 360.946289062 366 318.946289062 371 c 257,24,-1
 303.946289062 371 l 257,25,-1
 303.946289062 523 l 257,26,-1
 303.946289062 523 l 257,27,-1
 303.946289062 756 l 257,0,-1
EndSplineSet
EndChar

StartChar: u09ED
Encoding: 2541 2541 1617
GlifName: u09E_D_
Width: 534
VWidth: 0
Flags: W
LayerCount: 2
Fore
SplineSet
332 631 m 257,0,1
 320 634 320 634 308 634 c 257,2,3
 263 634 263 634 232 603 c 128,-1,4
 201 572 201 572 201 528 c 257,5,6
 201 483 201 483 232 452 c 128,-1,7
 263 421 263 421 308 421 c 257,8,9
 320 421 320 421 332 424 c 257,10,-1
 332 631 l 257,0,1
332 8 m 257,11,-1
 332 271 l 257,12,13
 324 270 324 270 308 270 c 257,14,15
 201 270 201 270 125.5 345.5 c 128,-1,16
 50 421 50 421 50 528 c 128,-1,17
 50 635 50 635 125.5 710 c 128,-1,18
 201 785 201 785 308 785 c 257,19,-1
 314 785 l 257,20,21
 320 785 320 785 326.5 785.5 c 128,-1,22
 333 786 333 786 343.5 785.5 c 128,-1,23
 354 785 354 785 364 784 c 128,-1,24
 374 783 374 783 385.5 781 c 128,-1,25
 397 779 397 779 407 776 c 128,-1,26
 417 773 417 773 427 768 c 128,-1,27
 437 763 437 763 445 757 c 257,28,29
 462 743 462 743 471.5 712.5 c 128,-1,30
 481 682 481 682 482 659 c 257,31,-1
 484 636 l 257,32,-1
 484 8 l 257,33,-1
 332 8 l 257,11,-1
EndSplineSet
EndChar

StartChar: u09EE
Encoding: 2542 2542 1621
GlifName: u09E_E_
Width: 692
VWidth: 0
Flags: W
LayerCount: 2
Fore
SplineSet
203.5 786 m 257,0,-1
 203.5 523 l 257,1,2
 211.5 524 211.5 524 227.5 524 c 257,3,4
 241.5 524 241.5 524 256.5 522 c 257,5,-1
 640.5 522 l 257,6,-1
 640.5 370 l 257,7,-1
 463.5 370 l 257,8,9
 485.5 320 485.5 320 485.5 266 c 257,10,11
 485.5 159 485.5 159 410 84 c 128,-1,12
 334.5 9 334.5 9 227.5 9 c 257,13,-1
 221.5 8.5 l 2,14,15
 215.5 8 215.5 8 209 8 c 128,-1,16
 202.5 8 202.5 8 192 8.5 c 128,-1,17
 181.5 9 181.5 9 171.5 9.5 c 128,-1,18
 161.5 10 161.5 10 150 12 c 128,-1,19
 138.5 14 138.5 14 128.5 17 c 128,-1,20
 118.5 20 118.5 20 108.5 25 c 128,-1,21
 98.5 30 98.5 30 90.5 37 c 257,22,23
 73.5 51 73.5 51 64 81 c 128,-1,24
 54.5 111 54.5 111 52.5 134 c 257,25,-1
 51.5 158 l 257,26,-1
 51.5 786 l 257,27,-1
 203.5 786 l 257,0,-1
203.5 163 m 257,28,29
 215.5 160 215.5 160 227.5 160 c 257,30,31
 272.5 160 272.5 160 303.5 190.5 c 128,-1,32
 334.5 221 334.5 221 334.5 266 c 257,33,34
 334.5 304 334.5 304 311 333 c 128,-1,35
 287.5 362 287.5 362 251.5 370 c 257,36,-1
 205.5 370 l 257,37,38
 204.5 370 204.5 370 203.5 370 c 257,39,-1
 203.5 163 l 257,28,29
EndSplineSet
EndChar

